<svg width="221" height="220" viewBox="0 0 221 220" fill="none" xmlns="http://www.w3.org/2000/svg">
<path d="M104.624 22.6864H75.3906V30.4216H104.624V22.6864Z" fill="#EBEBEB"/>
<path d="M92.2656 38.5659C92.2593 38.5192 92.2593 38.4719 92.2656 38.4251C92.2656 38.3239 92.2656 38.1919 92.2656 38.0291C92.2656 37.6639 92.2655 37.1491 92.2435 36.5067C92.2435 35.1867 92.2128 33.2507 92.1908 30.8351L92.2832 30.9231L63.0495 30.9803C63.1155 30.9143 62.8999 31.1299 63.1991 30.8351V34.7599C63.1991 36.0477 63.1991 37.3149 63.1991 38.5615L63.0539 38.4163L83.8879 38.4823L90.048 38.5263H91.7112H92.1512H92.3051C92.26 38.5334 92.2139 38.5334 92.1687 38.5263H91.7508H90.1183L84.0067 38.5659L63.0319 38.7199H62.8867V38.5747C62.8867 37.3295 62.8867 36.0623 62.8867 34.7731V30.8395L63.0363 30.6899L92.27 30.7471H92.3624V30.8395C92.3624 33.2815 92.3272 35.2395 92.314 36.5595C92.314 37.2019 92.3139 37.7035 92.2919 38.0643C92.2919 38.2183 92.2919 38.3459 92.2919 38.4427C92.2919 38.5395 92.2656 38.5703 92.2656 38.5659Z" fill="#E0E0E0"/>
<path d="M69.6148 10.8372H18.918V63.6856H69.6148V10.8372Z" fill="#E0E0E0"/>
<path d="M66.1831 10.8372H15.4863V63.6856H66.1831V10.8372Z" fill="#FAFAFA"/>
<path d="M66.1998 63.7032H15.459V10.8196H66.191L66.1998 63.7032ZM15.4986 63.668H66.169V10.868H15.4986V63.668Z" fill="#E0E0E0"/>
<path d="M59.3708 17.9387H22.3008V56.5795H59.3708V17.9387Z" fill="white"/>
<path d="M22.3004 56.8392C22.0349 57.225 21.728 57.5806 21.3852 57.8996C20.7912 58.5244 19.9596 59.3736 19.0268 60.2888C18.094 61.204 17.2404 62.0268 16.6068 62.6076C16.2848 62.9422 15.9244 63.2375 15.5332 63.4876C15.7956 63.1008 16.1012 62.745 16.444 62.4272C17.038 61.8024 17.8696 60.9576 18.8068 60.0336C19.744 59.1096 20.602 58.2956 21.2312 57.7148C21.5512 57.3811 21.9102 57.0871 22.3004 56.8392V56.8392Z" fill="#E0E0E0"/>
<path d="M59.3672 56.76C59.755 57.0246 60.1121 57.3316 60.432 57.6752C61.0568 58.2692 61.9016 59.1008 62.8212 60.0336C63.7408 60.9664 64.5812 61.82 65.14 62.4536C65.4726 62.7758 65.7678 63.1345 66.02 63.5228C65.6302 63.266 65.2739 62.9615 64.9596 62.6164C64.3348 62.0224 63.4856 61.1908 62.566 60.2536C61.6464 59.3164 60.806 58.4584 60.2428 57.8292C59.9091 57.5092 59.6151 57.1503 59.3672 56.76V56.76Z" fill="#E0E0E0"/>
<path d="M59.2656 18.04C59.5302 17.6522 59.8372 17.2951 60.1808 16.9752C60.7748 16.3504 61.6064 15.5056 62.5392 14.586C63.472 13.6664 64.3256 12.848 64.9592 12.2672C65.2787 11.9299 65.6394 11.6342 66.0328 11.3872C65.7694 11.772 65.4639 12.1262 65.122 12.4432C64.528 13.068 63.6964 13.9172 62.7592 14.8368C61.822 15.7564 60.964 16.5968 60.3348 17.16C60.0151 17.4953 59.6561 17.7907 59.2656 18.04Z" fill="#E0E0E0"/>
<path d="M22.1997 18.1368C21.8098 17.8766 21.4524 17.5708 21.1349 17.226C20.5101 16.632 19.6653 15.8004 18.7457 14.8676C17.8261 13.9348 17.0077 13.0768 16.4269 12.4476C16.0936 12.1245 15.7983 11.7643 15.5469 11.374C15.936 11.6334 16.2921 11.9393 16.6073 12.2848C17.2189 12.8744 18.0681 13.7104 18.9789 14.6476C19.8897 15.5848 20.7389 16.4384 21.3021 17.072C21.6415 17.391 21.9427 17.7484 22.1997 18.1368V18.1368Z" fill="#E0E0E0"/>
<path d="M59.2658 56.5796C59.2658 56.5796 59.2658 56.5136 59.2658 56.3948C59.2658 56.276 59.2658 56.0824 59.2658 55.8536C59.2658 55.3696 59.2658 54.6744 59.2658 53.768C59.2658 51.9376 59.2438 49.2756 59.2262 45.892C59.2262 39.1248 59.1866 29.4844 59.1558 17.9388L59.2966 18.084H22.3366L22.4994 17.9168C22.4994 32.1024 22.4994 45.3684 22.4774 56.5576L22.3366 56.4168L49.1018 56.4916L56.6214 56.5268H58.6102H59.125H59.301C59.247 56.5341 59.1922 56.5341 59.1382 56.5268H58.641H56.6786L49.1986 56.562L22.3586 56.6324H22.2178V56.4916C22.2178 45.3024 22.2178 32.0364 22.1914 17.8508V17.776H22.363L59.323 17.798H59.4682V17.9388C59.4374 29.524 59.411 39.1952 59.3934 45.9844C59.3934 49.3504 59.367 52.0036 59.3582 53.8252C59.3582 54.7052 59.3582 55.4092 59.3582 55.8844C59.3582 56.1088 59.3582 56.2804 59.3582 56.408C59.3325 56.4678 59.3015 56.5252 59.2658 56.5796V56.5796Z" fill="#E0E0E0"/>
<path d="M47.0168 31.0771H34.6484V43.4456H47.0168V31.0771Z" fill="#EBEBEB"/>
<path d="M30.5195 74.1047L38.2019 72.3447L40.3579 87.7667L35.2231 88.9371L30.5195 74.1047ZM36.8291 96.9319C36.4058 96.6905 36.0383 96.3622 35.7509 95.9686C35.4635 95.575 35.2627 95.1251 35.1615 94.6483C35.0442 94.1765 35.0314 93.6847 35.1241 93.2073C35.2169 92.73 35.4128 92.2788 35.6983 91.8851C36.3145 91.036 37.2324 90.4551 38.2635 90.2615C39.2707 89.9865 40.3454 90.1143 41.2599 90.6179C41.6818 90.8547 42.0471 91.1804 42.3305 91.5725C42.6139 91.9645 42.8086 92.4135 42.9011 92.8883C43.0176 93.3616 43.0323 93.8542 42.9443 94.3335C42.8563 94.8129 42.6676 95.2681 42.3907 95.6691C41.7748 96.5122 40.875 97.1043 39.857 97.3363C38.8391 97.5684 37.7716 97.4248 36.8511 96.9319H36.8291Z" fill="#E0E0E0"/>
<path d="M15.314 76.7712C15.6721 76.7773 16.0249 76.8588 16.3494 77.0104C16.6739 77.1621 16.9628 77.3804 17.1972 77.6512C17.445 77.9145 17.6315 78.2294 17.7434 78.5732C17.8552 78.917 17.8896 79.2814 17.844 79.64C17.7476 80.3959 17.3668 81.0866 16.7792 81.5716C16.2292 82.1072 15.492 82.4071 14.7244 82.4076C14.3685 82.4036 14.0176 82.3229 13.6956 82.1711C13.3737 82.0192 13.0883 81.7997 12.8588 81.5276C12.6154 81.2638 12.431 80.9512 12.318 80.6105C12.2049 80.2699 12.1658 79.909 12.2032 79.552C12.2372 79.1727 12.3456 78.8037 12.5223 78.4662C12.699 78.1287 12.9404 77.8294 13.2328 77.5852C13.7918 77.0497 14.54 76.757 15.314 76.7712ZM27.48 89.2496L23.146 93.104L16.2864 83.9256L19.1816 81.3516L27.48 89.2496Z" fill="#E0E0E0"/>
<path d="M203.331 121.594H174.098V129.329H203.331V121.594Z" fill="#EBEBEB"/>
<path d="M190.967 137.474C190.967 137.474 190.967 137.425 190.967 137.333C190.967 137.24 190.967 137.1 190.967 136.937C190.967 136.572 190.967 136.057 190.967 135.414C190.967 134.094 190.94 132.158 190.918 129.738L191.006 129.831L161.777 129.888L161.922 129.743V137.469L161.773 137.324L182.607 137.39L188.767 137.43H190.425H190.865H191.019C190.976 137.437 190.931 137.437 190.887 137.43H190.469H188.837L182.721 137.469L161.786 137.535H161.641V129.747L161.79 129.598L191.019 129.655H191.112V129.743C191.112 132.189 191.072 134.143 191.063 135.463C191.063 136.105 191.063 136.607 191.041 136.968C191.041 137.122 191.041 137.249 191.041 137.346C191.026 137.393 191 137.437 190.967 137.474V137.474Z" fill="#E0E0E0"/>
<path d="M180.507 28.5428C180.501 28.496 180.501 28.4487 180.507 28.402C180.507 28.2964 180.507 28.1688 180.507 28.006C180.507 27.6408 180.507 27.126 180.485 26.4836C180.485 25.1636 180.454 23.2276 180.432 20.8076L180.525 20.9L151.291 20.9572L151.441 20.8076V24.7324C151.441 26.026 151.441 27.2946 151.441 28.5384L151.296 28.3932L172.13 28.4592L178.29 28.4988H179.953H180.393C180.444 28.4927 180.496 28.4927 180.547 28.4988H180.41H179.992H178.36L172.248 28.5428L151.313 28.6088H151.168V28.4636C151.168 27.2184 151.168 25.9512 151.168 24.6576V20.812L151.318 20.6624L180.551 20.724H180.644V20.812C180.644 23.254 180.608 25.212 180.595 26.532C180.595 27.1744 180.595 27.676 180.573 28.0324C180.573 28.1908 180.573 28.314 180.573 28.4152C180.573 28.5164 180.507 28.5428 180.507 28.5428Z" fill="#E0E0E0"/>
<path d="M184.472 20.8075C184.467 20.7593 184.467 20.7106 184.472 20.6623C184.472 20.5479 184.472 20.4159 184.472 20.2531C184.472 19.8703 184.472 19.3511 184.446 18.6999C184.446 17.3447 184.415 15.4307 184.388 13.0723L184.498 13.1823L166.934 13.2219C166.802 13.3583 167.114 13.0415 167.083 13.0767V17.0367C167.083 18.3303 167.083 19.5843 167.083 20.7855L166.907 20.6799L179.469 20.7459L183.13 20.7855H184.116C184.234 20.7787 184.353 20.7787 184.472 20.7855C184.365 20.7937 184.258 20.7937 184.151 20.7855H183.196L179.566 20.8251L166.907 20.8911H166.766V20.7503C166.766 19.5491 166.766 18.2951 166.766 17.0015V13.0415C166.731 13.0723 167.048 12.7555 166.916 12.8919L184.481 12.9315H184.586V13.0371C184.56 15.4219 184.542 17.3579 184.529 18.7307C184.529 19.3731 184.507 19.8835 184.503 20.2575C184.498 20.6315 184.476 20.8163 184.472 20.8075Z" fill="#E0E0E0"/>
<path d="M138.831 180.55C138.828 180.503 138.828 180.456 138.831 180.409C138.831 180.303 138.831 180.176 138.831 180.013C138.831 179.648 138.831 179.133 138.809 178.49C138.809 177.17 138.779 175.234 138.761 172.814L138.849 172.907L109.62 172.964C109.686 172.898 109.47 173.114 109.765 172.814V176.73C109.765 178.024 109.765 179.293 109.765 180.536L109.62 180.4L130.454 180.466L136.614 180.506L138.277 180.528H138.717H138.871C138.826 180.532 138.78 180.532 138.735 180.528H138.321L136.689 180.55L130.573 180.589L109.637 180.655H109.492V176.695C109.492 176.053 109.492 175.402 109.492 174.746V172.779L109.646 172.63L138.875 172.691H138.968V172.779C138.946 175.226 138.928 177.179 138.915 178.499C138.915 179.142 138.915 179.643 138.893 180V180.382C138.887 180.443 138.866 180.5 138.831 180.55V180.55Z" fill="#E0E0E0"/>
<path d="M142.796 172.814C142.791 172.766 142.791 172.717 142.796 172.669C142.796 172.559 142.796 172.423 142.796 172.26C142.796 171.877 142.796 171.38 142.769 170.707C142.769 169.352 142.734 167.438 142.712 165.084L142.818 165.189L125.253 165.233L125.403 165.084V169.044C125.403 170.337 125.403 171.591 125.403 172.792L125.262 172.652L137.828 172.718L141.489 172.757H142.475H142.827C142.721 172.768 142.615 172.768 142.51 172.757H141.551L137.921 172.797L125.262 172.867H125.121V172.722C125.121 171.521 125.121 170.267 125.121 168.973C125.121 168.326 125.121 167.653 125.121 167.006V165.088L125.271 164.938L142.835 164.978H142.945V165.088C142.923 167.468 142.901 169.404 142.888 170.777C142.888 171.42 142.888 171.93 142.862 172.304C142.85 172.475 142.828 172.646 142.796 172.814V172.814Z" fill="#E0E0E0"/>
<path d="M197.656 206.602C197.656 206.664 158.632 206.716 110.505 206.716C62.3781 206.716 23.3457 206.664 23.3457 206.602C23.3457 206.54 62.3605 206.488 110.505 206.488C158.65 206.488 197.656 206.536 197.656 206.602Z" fill="#263238"/>
<path d="M181.56 156.292C181.351 156.81 181.262 157.368 181.3 157.925C181.166 157.268 180.914 156.64 180.556 156.072C180.42 155.861 180.209 155.632 179.967 155.698C179.725 155.764 179.646 156.064 179.637 156.314C179.61 157.006 179.761 157.692 180.077 158.308C179.631 157.737 179.052 157.284 178.392 156.988C178.338 156.953 178.276 156.933 178.212 156.929C178.149 156.924 178.085 156.935 178.026 156.961C177.899 157.04 177.899 157.221 177.916 157.366C178.005 157.947 178.242 158.496 178.605 158.959C178.969 159.421 179.445 159.782 179.989 160.006L180.345 160.059C181.113 159.847 181.773 159.355 182.195 158.679C182.616 158.003 182.768 157.194 182.62 156.411C182.567 156.116 182.4 155.773 182.101 155.769C181.802 155.764 181.661 156.042 181.56 156.292Z" fill="#DB2228"/>
<path d="M173.562 172.269C174.601 171.613 175.75 171.149 176.954 170.9C176.241 168.463 176.207 165.876 176.857 163.42C177.086 162.443 177.518 161.524 178.124 160.723C178.429 160.325 178.812 159.994 179.249 159.75C179.686 159.505 180.169 159.353 180.668 159.302C181.208 159.294 181.744 159.408 182.234 159.637C182.724 159.866 183.156 160.202 183.497 160.622L184.751 163.517C184.823 163.938 184.873 164.363 184.9 164.789C185.049 167.604 184.417 170.406 183.074 172.885C184.394 174.319 185.789 176.801 185.362 179.674H170.504C170.244 176.88 171.291 173.906 173.562 172.269Z" fill="#455A64"/>
<path d="M183.733 173.8C183.733 173.8 183.702 173.738 183.623 173.637C183.51 173.483 183.386 173.336 183.253 173.197C182.771 172.696 182.216 172.271 181.608 171.934C180.702 171.433 179.706 171.116 178.677 171.002C177.411 170.836 176.123 171.016 174.949 171.522C173.776 172.027 172.761 172.84 172.011 173.875C171.392 174.702 170.944 175.645 170.691 176.647C170.517 177.32 170.444 178.016 170.476 178.71C170.486 178.898 170.506 179.084 170.537 179.269C170.54 179.336 170.553 179.401 170.577 179.463C170.523 178.529 170.615 177.592 170.85 176.686C171.119 175.712 171.574 174.799 172.192 173.998C172.927 173.002 173.914 172.218 175.051 171.728C176.188 171.238 177.435 171.059 178.664 171.208C179.671 171.315 180.648 171.613 181.542 172.088C182.357 172.542 183.096 173.119 183.733 173.8V173.8Z" fill="#263238"/>
<path d="M184.975 165.832C185.03 165.506 185.039 165.174 185.001 164.846C184.978 164.048 184.844 163.257 184.601 162.496C184.354 161.726 183.917 161.029 183.329 160.472C183.1 160.228 182.812 160.046 182.493 159.944C182.471 159.98 182.806 160.16 183.219 160.587C183.75 161.153 184.15 161.829 184.39 162.567C184.619 163.313 184.767 164.081 184.83 164.859C184.849 165.187 184.898 165.512 184.975 165.832V165.832Z" fill="#263238"/>
<path d="M176.385 177.76C175.956 177.254 175.491 176.78 174.995 176.339C174.551 175.848 174.072 175.39 173.561 174.97C173.907 175.542 174.337 176.058 174.837 176.502C175.285 176.998 175.808 177.422 176.385 177.76V177.76Z" fill="#263238"/>
<path d="M178.039 176.88C178.033 176.379 177.951 175.883 177.797 175.406C177.72 174.915 177.572 174.438 177.357 173.989C177.434 174.982 177.664 175.958 178.039 176.88V176.88Z" fill="#263238"/>
<path d="M182.453 175.243C181.763 176.062 181.307 177.051 181.133 178.108C181.393 177.652 181.614 177.175 181.793 176.682C182.049 176.22 182.27 175.739 182.453 175.243V175.243Z" fill="#263238"/>
<path d="M177.679 168.304C177.069 167.251 176.33 166.279 175.479 165.409C175.751 165.953 176.089 166.461 176.486 166.923C176.824 167.431 177.225 167.895 177.679 168.304V168.304Z" fill="#263238"/>
<path d="M178.732 163.68C178.036 162.4 177.21 161.196 176.268 160.085C176.583 160.743 176.965 161.367 177.407 161.946C177.786 162.57 178.23 163.151 178.732 163.68V163.68Z" fill="#263238"/>
<path d="M180.403 164.877C180.188 165.917 180.121 166.982 180.205 168.04C180.42 167.001 180.487 165.935 180.403 164.877V164.877Z" fill="#263238"/>
<path d="M187.06 166.993C186.315 167.262 185.607 167.622 184.952 168.067C184.258 168.448 183.612 168.912 183.029 169.448C183.736 169.099 184.418 168.702 185.071 168.26C185.761 167.882 186.425 167.458 187.06 166.993Z" fill="#263238"/>
<g opacity="0.3">
<path opacity="0.3" d="M181.732 170.993C180.987 170.604 180.16 170.4 179.32 170.399C178.44 170.355 177.486 170.443 176.9 171.081V171.112C179.099 170.977 181.271 171.655 183.003 173.017C182.985 172.598 182.858 172.192 182.635 171.837C182.412 171.482 182.101 171.191 181.732 170.993V170.993Z" fill="black"/>
</g>
<path d="M174.665 141.808C174.235 141.691 173.784 141.673 173.345 141.755C173.848 141.59 174.316 141.335 174.727 141.002C174.877 140.875 175.035 140.69 174.965 140.505C174.894 140.32 174.648 140.29 174.45 140.307C173.907 140.352 173.385 140.539 172.936 140.848C173.341 140.445 173.643 139.95 173.816 139.405C173.838 139.361 173.849 139.312 173.849 139.262C173.849 139.213 173.838 139.164 173.816 139.119C173.771 139.081 173.717 139.056 173.658 139.047C173.6 139.039 173.54 139.047 173.486 139.071C173.042 139.196 172.637 139.433 172.311 139.76C171.985 140.087 171.749 140.492 171.625 140.936V141.222C171.867 141.801 172.313 142.271 172.879 142.542C173.447 142.807 174.094 142.849 174.692 142.661C174.916 142.591 175.171 142.428 175.132 142.195C175.092 141.962 174.872 141.86 174.665 141.808Z" fill="#DB2228"/>
<path d="M144.697 122.813C144.617 123.251 144.636 123.703 144.754 124.133C144.544 123.643 144.246 123.195 143.874 122.813C143.738 122.672 143.536 122.531 143.36 122.619C143.184 122.707 143.17 122.954 143.206 123.147C143.297 123.685 143.526 124.19 143.87 124.612C143.435 124.246 142.917 123.992 142.361 123.873C142.314 123.856 142.263 123.85 142.213 123.856C142.164 123.862 142.116 123.88 142.075 123.908C141.991 123.988 142.018 124.128 142.075 124.238C142.236 124.671 142.506 125.055 142.859 125.352C143.212 125.65 143.636 125.851 144.09 125.937H144.376C144.934 125.651 145.365 125.166 145.582 124.577C145.8 123.989 145.788 123.34 145.551 122.76C145.458 122.54 145.274 122.32 145.045 122.346C144.816 122.373 144.732 122.606 144.697 122.813Z" fill="#DB2228"/>
<path d="M165.561 161.674C165.341 161.674 165.121 161.704 164.923 161.726C164.541 157.48 165.825 153.168 164.527 149.112L164.703 149.332C166.266 149.58 167.866 149.437 169.359 148.914C170.103 148.65 170.785 148.237 171.365 147.701C171.944 147.164 172.408 146.516 172.729 145.794C173.034 145.067 173.128 144.269 173.001 143.491C172.874 142.713 172.532 141.987 172.012 141.394C170.542 139.858 167.955 139.938 166.111 140.998C164.351 142.019 163.084 143.73 161.914 145.42C161.3 144.931 160.617 144.538 159.885 144.254C161.931 141.434 163.911 138.472 164.558 135.062C165.267 131.336 163.872 126.922 160.413 125.382C157.47 124.062 153.774 125.255 151.697 127.732C151.534 127.926 151.398 128.132 151.257 128.339L151.327 128.137C150.817 126.824 149.81 125.765 148.525 125.189C147.884 124.911 147.189 124.783 146.491 124.817C145.794 124.851 145.114 125.044 144.503 125.382C143.899 125.732 143.398 126.236 143.051 126.841C142.704 127.447 142.523 128.134 142.527 128.832C142.589 129.617 142.859 130.371 143.309 131.017C143.759 131.663 144.373 132.177 145.088 132.506C146.47 133.12 148.016 133.264 149.488 132.915C149.3 134.229 149.307 135.564 149.51 136.875C149.972 139.836 151.292 142.595 152.863 145.16C152.427 145.45 152.023 145.785 151.657 146.159C148.987 148.953 148.815 153.441 150.214 157.045C151.613 160.648 155.402 163.306 158.029 166.14C156.949 168.1 156.263 170.252 156.009 172.476C155.545 171.515 154.825 170.701 153.927 170.125C153.029 169.549 151.989 169.232 150.923 169.211C149.774 169.211 148.489 169.73 148.133 170.821C147.821 171.785 148.349 172.823 149.013 173.567C149.878 174.435 150.948 175.071 152.124 175.415C153.3 175.76 154.544 175.802 155.741 175.538L155.771 174.838C155.681 176.452 155.72 178.071 155.886 179.678H172.843C172.843 179.678 177.402 161.234 165.561 161.674Z" fill="#455A64"/>
<path d="M192.309 179.652H152.186V186.762H192.309V179.652Z" fill="#DB2228"/>
<path d="M155.182 185.35L160.061 206.602H183.975L189.312 185.35H155.182Z" fill="#DB2228"/>
<path d="M192.287 186.771C192.287 186.85 183.236 186.912 172.073 186.912C160.91 186.912 151.859 186.85 151.859 186.771C151.859 186.692 160.91 186.63 172.073 186.63C183.236 186.63 192.287 186.692 192.287 186.771Z" fill="#263238"/>
<path d="M168.707 162.36C168.636 162.305 168.557 162.261 168.474 162.228C168.247 162.108 168.012 162.007 167.77 161.924C166.871 161.628 165.922 161.519 164.98 161.603C163.577 161.728 162.227 162.2 161.051 162.976C159.631 163.954 158.472 165.266 157.676 166.795C156.874 168.309 156.327 169.944 156.057 171.635C155.856 173.012 155.766 174.402 155.788 175.793C155.788 176.981 155.832 177.94 155.854 178.6C155.854 178.913 155.881 179.164 155.89 179.362C155.883 179.451 155.883 179.541 155.89 179.63C155.909 179.542 155.917 179.452 155.912 179.362C155.912 179.164 155.912 178.922 155.912 178.6C155.912 177.91 155.912 176.959 155.912 175.798C155.914 174.414 156.02 173.033 156.228 171.666C156.504 170 157.048 168.389 157.839 166.896C158.617 165.398 159.746 164.111 161.13 163.143C162.274 162.375 163.588 161.898 164.958 161.753C165.882 161.656 166.816 161.74 167.708 161.999C168.372 162.215 168.694 162.4 168.707 162.36Z" fill="#263238"/>
<path d="M165.121 153.371C165.141 153.305 165.15 153.237 165.148 153.168C165.168 152.976 165.177 152.782 165.174 152.588C165.17 151.872 165.086 151.159 164.923 150.462C164.69 149.425 164.292 148.431 163.744 147.519C163.426 146.975 163.044 146.471 162.605 146.018C162.145 145.52 161.61 145.095 161.021 144.76C160.429 144.422 159.79 144.176 159.124 144.03C158.504 143.908 157.872 143.86 157.241 143.889C156.18 143.955 155.138 144.203 154.161 144.624C153.508 144.898 152.884 145.239 152.3 145.64C152.089 145.776 151.939 145.904 151.833 145.983C151.728 146.062 151.679 146.111 151.684 146.12C151.688 146.128 151.921 145.974 152.348 145.71C152.948 145.34 153.58 145.023 154.236 144.764C155.204 144.37 156.232 144.142 157.276 144.091C157.889 144.067 158.502 144.115 159.102 144.236C160.391 144.526 161.564 145.196 162.468 146.159C162.896 146.6 163.271 147.088 163.586 147.616C164.134 148.506 164.539 149.477 164.787 150.493C164.962 151.178 165.07 151.878 165.108 152.583C165.108 153.089 165.104 153.366 165.121 153.371Z" fill="#263238"/>
<path d="M149.361 135.428C149.446 134.979 149.493 134.524 149.501 134.068C149.537 133.628 149.581 133.148 149.669 132.603C149.758 132.012 149.921 131.434 150.153 130.882C150.576 129.873 151.095 128.907 151.701 127.996C152.163 127.296 152.515 126.909 152.489 126.887C152.463 126.865 152.379 126.962 152.212 127.129C151.983 127.374 151.768 127.633 151.569 127.904C150.917 128.801 150.371 129.771 149.941 130.794C149.707 131.358 149.547 131.95 149.466 132.554C149.396 133.049 149.354 133.547 149.343 134.046C149.31 134.506 149.316 134.968 149.361 135.428V135.428Z" fill="#263238"/>
<path d="M151.548 173.554C151.121 173.78 150.731 174.069 150.39 174.412C150.004 174.7 149.665 175.046 149.383 175.437C149.811 175.204 150.202 174.908 150.54 174.557C150.926 174.276 151.265 173.938 151.548 173.554V173.554Z" fill="#263238"/>
<path d="M150.126 172.141C149.663 171.981 149.177 171.895 148.687 171.886C148.205 171.802 147.712 171.791 147.227 171.855C148.173 172.1 149.151 172.196 150.126 172.141V172.141Z" fill="#263238"/>
<path d="M151.205 169.638C150.968 169.245 150.699 168.872 150.4 168.524C150.159 168.132 149.886 167.76 149.586 167.411C149.871 168.309 150.439 169.09 151.205 169.638V169.638Z" fill="#263238"/>
<path d="M153.102 168.489C153.117 169.046 153.206 169.597 153.366 170.13C153.455 170.681 153.617 171.216 153.85 171.723C153.834 171.167 153.745 170.615 153.586 170.082C153.497 169.532 153.334 168.996 153.102 168.489V168.489Z" fill="#263238"/>
<path d="M154.372 174.24C154.411 174.192 154.143 173.884 153.773 173.549C153.404 173.215 153.065 172.977 153.025 173.026C152.986 173.074 153.25 173.382 153.624 173.716C153.998 174.051 154.328 174.266 154.372 174.24Z" fill="#263238"/>
<path d="M160.269 173.109C160.085 172.761 159.839 172.449 159.543 172.19C159.103 171.723 158.698 171.38 158.663 171.424C158.628 171.468 158.94 171.864 159.389 172.348C159.838 172.832 160.22 173.153 160.269 173.109Z" fill="#263238"/>
<path d="M161.54 167.666C161.427 167.268 161.242 166.894 160.995 166.562C160.811 166.192 160.562 165.858 160.26 165.576C160.373 165.975 160.558 166.349 160.805 166.681C160.989 167.051 161.238 167.385 161.54 167.666Z" fill="#263238"/>
<path d="M165.302 163.24C165.185 163.701 165.141 164.178 165.17 164.652C165.125 165.127 165.158 165.605 165.267 166.069C165.382 165.608 165.425 165.131 165.394 164.657C165.439 164.183 165.408 163.704 165.302 163.24V163.24Z" fill="#263238"/>
<path d="M173.178 164.736C172.77 165.145 172.396 165.587 172.06 166.056C171.664 166.475 171.305 166.927 170.986 167.407C171.908 166.703 172.66 165.8 173.186 164.767L173.178 164.736Z" fill="#263238"/>
<path d="M174.191 172.48C173.247 172.507 172.314 172.686 171.428 173.012C172.372 172.986 173.305 172.806 174.191 172.48Z" fill="#263238"/>
<path d="M166.018 175.168C165.943 174.621 165.759 174.095 165.477 173.62C165.259 173.113 164.943 172.654 164.549 172.269C165.026 173.242 165.516 174.208 166.018 175.168V175.168Z" fill="#263238"/>
<path d="M168.742 171.459C168.86 171.09 168.906 170.702 168.878 170.315C168.925 169.931 168.897 169.541 168.795 169.167C168.671 169.535 168.623 169.924 168.654 170.311C168.611 170.696 168.641 171.085 168.742 171.459V171.459Z" fill="#263238"/>
<path d="M159.952 178.002C159.893 177.57 159.728 177.159 159.473 176.805C159.275 176.415 158.981 176.082 158.619 175.837C158.806 176.219 159.027 176.582 159.279 176.924C159.468 177.304 159.694 177.665 159.952 178.002V178.002Z" fill="#263238"/>
<path d="M169.279 178.539C169.546 178.212 169.752 177.839 169.886 177.439C170.092 177.069 170.229 176.665 170.291 176.246C170.026 176.576 169.819 176.948 169.68 177.346C169.477 177.717 169.342 178.121 169.279 178.539V178.539Z" fill="#263238"/>
<path d="M154.778 161.286C154.266 161.193 153.743 161.172 153.225 161.225C152.703 161.204 152.181 161.26 151.676 161.392C152.709 161.509 153.755 161.474 154.778 161.286V161.286Z" fill="#263238"/>
<path d="M151.394 155.5C150.947 155.042 150.446 154.64 149.902 154.304C149.404 153.904 148.86 153.565 148.283 153.292C148.73 153.75 149.231 154.151 149.775 154.488C150.275 154.886 150.818 155.225 151.394 155.5V155.5Z" fill="#263238"/>
<path d="M151.745 148.064C151.363 147.763 150.957 147.494 150.531 147.259C150.145 146.962 149.739 146.691 149.316 146.45C149.595 146.863 149.967 147.206 150.403 147.448C150.799 147.751 151.258 147.962 151.745 148.064V148.064Z" fill="#263238"/>
<path d="M155.534 145.433C155.501 144.818 155.391 144.209 155.208 143.62C155.098 143.013 154.913 142.422 154.658 141.86C154.694 142.476 154.805 143.085 154.988 143.673C155.099 144.28 155.282 144.87 155.534 145.433V145.433Z" fill="#263238"/>
<path d="M161.87 143.559C161.562 143.877 161.312 144.246 161.131 144.65C160.886 145.018 160.704 145.424 160.59 145.851C160.898 145.533 161.148 145.164 161.329 144.76C161.575 144.392 161.757 143.986 161.87 143.559V143.559Z" fill="#263238"/>
<path d="M167.33 156.108C167.286 156.055 166.564 156.609 165.614 157.194C164.663 157.78 163.854 158.18 163.854 158.242C165.162 157.821 166.349 157.089 167.312 156.108H167.33Z" fill="#263238"/>
<path d="M158.46 158.928C158.146 158.601 157.778 158.329 157.374 158.123C157.008 157.856 156.6 157.65 156.168 157.516C156.485 157.839 156.852 158.11 157.255 158.316C157.62 158.585 158.028 158.792 158.46 158.928V158.928Z" fill="#263238"/>
<path d="M156.995 152.926C157.043 152.878 156.471 152.315 155.939 151.496C155.406 150.678 155.116 149.93 155.059 149.952C155.32 151.149 156.012 152.207 157.003 152.926H156.995Z" fill="#263238"/>
<path d="M159.904 151.571C159.991 151.092 160.006 150.603 159.948 150.119C159.963 149.632 159.902 149.145 159.767 148.676C159.663 149.642 159.709 150.619 159.904 151.571V151.571Z" fill="#263238"/>
<path d="M161.505 157.52C161.676 157.048 161.772 156.552 161.791 156.05C161.884 155.557 161.903 155.053 161.849 154.554C161.588 155.521 161.473 156.52 161.505 157.52Z" fill="#263238"/>
<path d="M165.993 139.634C165.8 140.177 165.642 140.733 165.523 141.297C165.331 141.839 165.177 142.393 165.061 142.956C165.391 142.473 165.626 141.931 165.751 141.359C165.945 140.806 166.027 140.219 165.993 139.634V139.634Z" fill="#263238"/>
<path d="M169.157 150.04C168.748 149.69 168.314 149.371 167.859 149.085C167.443 148.739 167.002 148.424 166.539 148.144C167.223 148.997 168.122 149.652 169.144 150.04H169.157Z" fill="#263238"/>
<path d="M173.447 146.854C172.396 146.628 171.34 146.426 170.279 146.247C170.758 146.515 171.284 146.687 171.828 146.753C172.356 146.893 172.906 146.928 173.447 146.854V146.854Z" fill="#263238"/>
<path d="M169.272 143.282C169.236 143.229 168.832 143.427 168.365 143.722C167.899 144.016 167.551 144.302 167.586 144.355C167.916 144.276 168.224 144.126 168.488 143.915C168.955 143.616 169.302 143.334 169.272 143.282Z" fill="#263238"/>
<path d="M171.357 139.423C170.954 139.62 170.606 139.911 170.34 140.272C170.017 140.587 169.776 140.977 169.641 141.407C169.964 141.107 170.259 140.777 170.521 140.422C170.827 140.113 171.107 139.779 171.357 139.423Z" fill="#263238"/>
<path d="M174.199 143.101C173.702 143.175 173.213 143.295 172.739 143.462C172.245 143.558 171.76 143.698 171.291 143.88C171.801 143.919 172.313 143.851 172.796 143.682C173.297 143.582 173.774 143.385 174.199 143.101Z" fill="#263238"/>
<path d="M154.501 138.16C154.109 137.486 153.682 136.834 153.22 136.206C152.815 135.537 152.375 134.889 151.9 134.266C152.172 135.003 152.547 135.698 153.014 136.33C153.423 137.005 153.924 137.621 154.501 138.16V138.16Z" fill="#263238"/>
<path d="M155.772 133.65C155.773 132.524 155.625 131.402 155.332 130.315C155.326 131.441 155.474 132.564 155.772 133.65V133.65Z" fill="#263238"/>
<path d="M160.146 134.35C160.08 134.35 159.895 135.203 159.464 136.193C159.033 137.183 158.531 137.918 158.584 137.953C159.063 137.482 159.432 136.911 159.666 136.281C159.967 135.681 160.131 135.021 160.146 134.35V134.35Z" fill="#263238"/>
<path d="M165.285 135.436C165.237 135.397 164.595 136.149 163.71 136.981C162.826 137.812 162.038 138.406 162.073 138.459C162.742 138.126 163.348 137.679 163.864 137.139C164.434 136.659 164.915 136.083 165.285 135.436V135.436Z" fill="#263238"/>
<path d="M163.3 126.104C163.238 126.104 163.036 127.041 162.684 128.176C162.332 129.312 161.966 130.214 162.024 130.24C162.426 129.628 162.723 128.953 162.904 128.242C163.156 127.557 163.29 126.834 163.3 126.104V126.104Z" fill="#263238"/>
<path d="M157.372 123.033C157.23 123.574 157.159 124.132 157.161 124.692C157.087 125.248 157.087 125.812 157.161 126.368C157.307 125.826 157.379 125.266 157.377 124.705C157.454 124.15 157.452 123.587 157.372 123.033V123.033Z" fill="#263238"/>
<path d="M145.154 130.926C144.726 130.916 144.299 130.947 143.878 131.019C143.456 131.012 143.034 131.046 142.619 131.12C143.034 131.266 143.479 131.304 143.913 131.23C144.345 131.232 144.771 131.128 145.154 130.926Z" fill="#263238"/>
<path d="M145.515 127.842C144.968 127.429 144.378 127.075 143.755 126.786C143.171 126.432 142.548 126.145 141.898 125.932C142.447 126.344 143.037 126.698 143.658 126.988C144.243 127.343 144.866 127.629 145.515 127.842V127.842Z" fill="#263238"/>
<path d="M148.819 127.952C148.765 127.416 148.639 126.889 148.445 126.386C148.318 125.861 148.12 125.356 147.855 124.885C147.907 125.422 148.033 125.949 148.229 126.452C148.352 126.978 148.551 127.483 148.819 127.952V127.952Z" fill="#263238"/>
<g opacity="0.3">
<path opacity="0.3" d="M158.072 166.126C158.1 165.306 158.319 164.503 158.712 163.782C159.105 163.061 159.66 162.442 160.334 161.973C161.654 161.093 164.074 160.987 165.02 161.66C163.536 161.702 162.101 162.196 160.906 163.077C159.787 163.916 158.827 164.949 158.072 166.126" fill="black"/>
</g>
<g opacity="0.3">
<path opacity="0.3" d="M152.842 145.433C153.149 144.793 153.601 144.233 154.161 143.797C154.721 143.361 155.375 143.061 156.071 142.921C157.444 142.67 159.385 143.431 159.904 144.289C158.711 143.81 157.399 143.707 156.146 143.994C154.967 144.271 153.848 144.759 152.842 145.433" fill="black"/>
</g>
<g opacity="0.3">
<path opacity="0.3" d="M149.382 133.131C149.114 132.659 148.955 132.133 148.917 131.592C148.879 131.05 148.963 130.507 149.162 130.002C149.567 128.999 150.354 128.506 151.393 128.207C150.328 129.752 149.492 131.318 149.413 133.188" fill="black"/>
</g>
<path d="M170.779 163.346C170.779 163.346 170.955 163.508 171.219 163.838C171.611 164.304 171.955 164.808 172.244 165.343C173.097 167.174 173.604 169.146 173.741 171.16C173.871 173.173 173.772 175.193 173.446 177.184C173.322 177.949 173.208 178.57 173.129 178.996C173.074 179.216 173.041 179.44 173.028 179.665C173.113 179.456 173.179 179.239 173.226 179.018C173.331 178.578 173.477 177.98 173.617 177.214C174.001 175.215 174.126 173.174 173.991 171.142C173.863 169.1 173.33 167.104 172.425 165.268C172.116 164.732 171.743 164.234 171.316 163.786C171.169 163.604 170.986 163.455 170.779 163.346V163.346Z" fill="#263238"/>
<path d="M152.186 179.652H152.309H152.665H154.042L159.102 179.687L175.822 179.718L192.327 179.687L192.243 179.608C192.243 181.808 192.243 183.568 192.265 184.818C192.265 185.42 192.265 185.891 192.265 186.234C192.265 186.384 192.265 186.507 192.265 186.6C192.26 186.642 192.26 186.685 192.265 186.727C192.265 186.727 192.265 186.683 192.265 186.6C192.265 186.516 192.265 186.384 192.265 186.234C192.265 185.891 192.265 185.42 192.292 184.818C192.292 183.568 192.322 181.795 192.344 179.608V179.524H192.265L175.805 179.52L159.085 179.555L154.025 179.59L152.648 179.612H152.291C152.254 179.621 152.219 179.634 152.186 179.652Z" fill="#263238"/>
<path d="M109.814 36.7971L113.145 104.135L125.047 103.91V121.515L141.921 104.179H195.817L201.871 33.3475L109.814 36.7971Z" fill="white"/>
<path d="M109.814 36.7971L201.867 33.2463H201.981V33.3607C200.177 54.4807 198.122 78.6147 195.94 104.201V104.306H141.921L142 104.276L125.122 121.603L124.946 121.788V121.532C124.946 115.41 124.946 109.544 124.946 103.932L125.047 104.029L113.145 104.249H113.057V104.161C111.082 63.1179 109.85 37.5627 109.814 36.8411C109.854 37.5847 111.134 63.1355 113.238 104.161L113.145 104.073L125.047 103.844H125.144V103.946C125.144 109.569 125.144 115.435 125.144 121.546L124.964 121.471L141.833 104.135L141.864 104.1H195.817L195.702 104.205C197.902 78.6279 199.962 54.4851 201.77 33.3651L201.876 33.4751L109.814 36.7971Z" fill="#263238"/>
<path d="M187.561 53.5744L192.942 40.6912L197.553 43.428L187.561 53.5744Z" fill="#DB2228"/>
<path d="M192.854 63.4171L207.017 64.3543L205.904 69.6915L192.854 63.4171Z" fill="#DB2228"/>
<path d="M190.826 56.1748L209.297 45.5972L212.914 53.6492L190.826 56.1748Z" fill="#DB2228"/>
<path d="M170.193 46.1339L171.007 48.1051L172.979 48.9191L171.007 49.7287L170.193 51.7043L169.384 49.7287L167.408 48.9191L169.384 48.1051L170.193 46.1339Z" fill="#DB2228"/>
<path d="M123.352 91.2252L124.166 93.2008L126.137 94.0104L124.166 94.8244L123.352 96.7956L122.542 94.8244L120.566 94.0104L122.542 93.2008L123.352 91.2252Z" fill="#DB2228"/>
<path d="M163.506 44.8844L163.915 45.87L164.9 46.2792L163.915 46.684L163.506 47.6696L163.101 46.684L162.115 46.2792L163.101 45.87L163.506 44.8844Z" fill="#DB2228"/>
<path d="M130.533 90.4243L130.938 91.4143L131.928 91.8191L130.938 92.2239L130.533 93.2095L130.128 92.2239L129.143 91.8191L130.128 91.4143L130.533 90.4243Z" fill="#DB2228"/>
<path d="M193.162 76.2695L193.567 77.2551L194.557 77.6599L193.567 78.0647L193.162 79.0547L192.758 78.0647L191.768 77.6599L192.758 77.2551L193.162 76.2695Z" fill="#DB2228"/>
<path d="M136.922 71.4427V85.36H133.679L127.519 77.9372V85.36H123.66V71.4427H126.903L133.063 78.8656V71.4427H136.922Z" fill="#DB2228"/>
<path d="M150.892 82.3284V85.36H139.707V71.4427H150.632V74.4875H143.592V76.8328H149.779V79.7808H143.61V82.3284H150.892Z" fill="#DB2228"/>
<path d="M174.739 71.4428L170.216 85.36H165.997L163.33 76.8812L160.545 85.36H156.325L151.807 71.4296H155.868L158.671 80.322L161.619 71.4296H165.24L168.047 80.4056L170.973 71.4296L174.739 71.4428Z" fill="#DB2228"/>
<path d="M177.759 85.2324C176.838 85.0166 175.962 84.6397 175.172 84.1191L176.465 81.2108C177.838 82.0885 179.43 82.5641 181.059 82.5836C182.573 82.5836 183.329 82.2095 183.329 81.4527C183.326 81.257 183.263 81.0671 183.147 80.9094C183.031 80.7517 182.869 80.634 182.683 80.5727C182.008 80.31 181.312 80.1068 180.601 79.9656C179.705 79.7862 178.823 79.5436 177.961 79.2395C177.262 78.9859 176.638 78.559 176.149 77.9988C175.617 77.3501 175.347 76.5262 175.392 75.6888C175.383 74.8701 175.626 74.0685 176.087 73.392C176.61 72.6616 177.333 72.0979 178.168 71.7684C179.247 71.3418 180.401 71.1383 181.561 71.17C182.472 71.1702 183.38 71.275 184.267 71.4824C185.091 71.6614 185.884 71.9656 186.616 72.3843L185.402 75.3104C184.226 74.6353 182.899 74.2661 181.543 74.2368C180.951 74.1928 180.359 74.313 179.831 74.5843C179.669 74.6738 179.534 74.8051 179.44 74.9644C179.345 75.1238 179.295 75.3055 179.295 75.4908C179.297 75.6797 179.359 75.8629 179.473 76.0135C179.587 76.164 179.747 76.2739 179.928 76.3268C180.593 76.5814 181.279 76.7743 181.979 76.9032C182.875 77.081 183.757 77.3236 184.619 77.6291C185.314 77.8858 185.937 78.3088 186.431 78.8611C186.968 79.5039 187.242 80.3261 187.197 81.1624C187.205 81.9714 186.962 82.763 186.502 83.4283C185.973 84.1562 185.248 84.7192 184.412 85.052C183.337 85.4839 182.186 85.6905 181.028 85.6591C179.925 85.6569 178.826 85.5135 177.759 85.2324V85.2324Z" fill="#DB2228"/>
<path d="M55.3379 51.4493C55.9846 49.3625 57.0401 47.4254 58.4429 45.7506C59.8456 44.0759 61.5677 42.697 63.5087 41.6945C67.7767 39.4945 72.8631 39.3317 77.5315 40.4053C82.1999 41.4789 86.5119 43.7273 90.5863 46.2441C92.8743 47.6565 95.1535 49.2009 96.7463 51.3525C99.6855 55.2773 102.524 61.6661 102.678 66.5721C102.801 70.5321 101.001 80.3969 99.2279 83.9433C98.5943 85.2061 97.1159 86.3237 95.3339 87.2609C93.4268 90.7716 90.9087 93.9141 87.8979 96.5405C87.0531 93.8565 86.2112 91.1725 85.3723 88.4885L55.3379 51.4493Z" fill="#263238"/>
<path d="M104.423 100.386C106.355 93.2404 105.506 84.4404 105.202 78.3244C104.899 72.2084 106.249 69.5728 101.643 59.334C98.1974 51.6648 92.495 47.014 87.061 44.1936L65.1226 46.5828C65.2766 46.1956 65.435 45.8216 65.5934 45.4652L57.757 46.64C54.8706 46.288 52.8818 47.6652 51.487 49.874C51.0114 50.4086 50.6036 50.9997 50.2726 51.634C49.2342 53.6536 48.891 55.946 48.561 58.19C48.258 60.4111 48.1008 62.6496 48.0902 64.8912C48.0242 65.7712 47.967 66.5588 47.9098 67.1616C47.8536 68.1391 47.9351 69.1196 48.1518 70.0744C48.473 79.4992 49.683 89.8744 48.5346 97.7108C48.4114 98.5292 48.3014 99.4048 48.6622 100.153C49.023 100.901 49.881 101.402 50.6818 101.781C60.4102 106.405 67.2918 100.861 76.9058 96.008C78.7802 95.0664 80.6942 93.9224 82.7886 94.0016C84.9886 94.0852 86.8366 99.8888 88.8694 100.782" fill="#263238"/>
<path d="M94.2515 64.5921C94.0007 58.6477 90.2915 53.6757 84.5715 52.0389L66.7427 46.9437C59.0031 45.8833 53.5427 55.3037 52.8167 63.0609C52.0027 71.7025 51.3955 80.8281 52.2227 87.3181C53.8859 100.368 63.7903 102.326 63.7903 102.326C63.7903 102.326 63.6143 108.508 63.5131 112.301L72.1767 153.912L90.9955 110.488L94.2955 64.7285C94.3043 64.5305 94.2647 64.8913 94.2515 64.5921Z" fill="#FFBE9D"/>
<path d="M57.5112 74.8C57.4931 75.2347 57.646 75.6592 57.9372 75.9824C58.2284 76.3057 58.6346 76.502 59.0688 76.5292C59.28 76.5529 59.4937 76.534 59.6975 76.4736C59.9012 76.4131 60.0907 76.3125 60.2548 76.1775C60.4189 76.0425 60.5543 75.876 60.6529 75.6877C60.7515 75.4995 60.8113 75.2934 60.8288 75.0816C60.847 74.6477 60.6946 74.2238 60.4044 73.9007C60.1142 73.5776 59.709 73.3808 59.2756 73.3524C59.0642 73.3287 58.8502 73.3476 58.6462 73.408C58.4422 73.4684 58.2524 73.569 58.088 73.7039C57.9235 73.8389 57.7877 74.0054 57.6887 74.1936C57.5896 74.3819 57.5293 74.5881 57.5112 74.8V74.8Z" fill="#263238"/>
<path d="M54.6212 68.2001C54.8192 68.4201 56.1128 67.5269 57.9036 67.5885C59.6944 67.6501 60.9836 68.5829 61.1816 68.3717C61.2828 68.2749 61.0804 67.8789 60.5216 67.4433C59.7539 66.8838 58.8315 66.5763 57.8816 66.5633C56.9503 66.5334 56.0337 66.8 55.2636 67.3245C54.7312 67.7205 54.5288 68.1077 54.6212 68.2001Z" fill="#263238"/>
<path d="M72.7962 75.0421C72.7791 75.4762 72.9317 75.9 73.2216 76.2235C73.5115 76.5471 73.916 76.7452 74.3494 76.7757C74.5606 76.7975 74.774 76.7771 74.9773 76.7157C75.1805 76.6543 75.3695 76.5531 75.5333 76.418C75.6971 76.2829 75.8323 76.1166 75.9312 75.9287C76.0301 75.7408 76.0907 75.5352 76.1094 75.3237C76.1265 74.89 75.9737 74.4668 75.6837 74.1439C75.3937 73.821 74.9892 73.6239 74.5562 73.5945C74.3452 73.5714 74.1316 73.5908 73.9281 73.6515C73.7247 73.7121 73.5354 73.8129 73.3714 73.9477C73.2074 74.0826 73.0721 74.2489 72.9733 74.4368C72.8745 74.6248 72.8143 74.8306 72.7962 75.0421Z" fill="#263238"/>
<path d="M71.654 68.6928C71.852 68.9172 73.1456 68.0196 74.9364 68.0812C76.7272 68.1428 78.0164 69.08 78.2144 68.8644C78.3156 68.772 78.1176 68.3716 77.5544 67.936C76.7951 67.3796 75.882 67.0722 74.9408 67.056C74.0023 67.0176 73.0765 67.2831 72.3008 67.8128C71.7552 68.2 71.5528 68.5916 71.654 68.6928Z" fill="#263238"/>
<path d="M65.6469 82.6101C65.6469 82.5089 64.5513 82.2845 62.7517 81.9985C62.3117 81.9369 61.8717 81.8312 61.7969 81.5144C61.7221 81.1976 61.9069 80.696 62.1445 80.168L63.6053 76.7273C65.6381 71.8212 67.1253 67.782 66.9229 67.7028C66.7205 67.6236 64.9165 71.5308 62.8881 76.4368L61.4801 79.9041C61.2909 80.4189 60.9785 80.9997 61.1897 81.6905C61.2502 81.8544 61.3475 82.0024 61.4742 82.1229C61.6008 82.2434 61.7533 82.3333 61.9201 82.3857C62.172 82.4605 62.432 82.5048 62.6945 82.5176C64.5073 82.6716 65.6205 82.7201 65.6469 82.6101Z" fill="#263238"/>
<path d="M81.1564 98.1992C81.1564 98.1992 76.6728 106.999 63.7148 105.384L63.794 102.326C69.8521 102.586 75.8632 101.157 81.1564 98.1992Z" fill="#7B4B45" fill-opacity="0.29"/>
<path d="M72.4005 60.5441C72.5589 61.0369 74.3585 60.8609 76.4529 61.1777C78.5473 61.4945 80.2325 62.1237 80.5229 61.6925C80.6549 61.4901 80.3733 61.0193 79.7001 60.5265C78.8038 59.919 77.7806 59.524 76.7086 59.3715C75.6366 59.219 74.5439 59.313 73.5137 59.6465C72.7305 59.9369 72.3301 60.3109 72.4005 60.5441Z" fill="#263238"/>
<path d="M55.0294 60.3725C55.3286 60.7905 56.5782 60.4033 58.0654 60.4297C59.5526 60.4561 60.7978 60.7905 61.1014 60.3725C61.2334 60.1701 61.0486 59.7565 60.5118 59.3517C59.7878 58.8674 58.9364 58.6089 58.0654 58.6089C57.1944 58.6089 56.343 58.8674 55.619 59.3517C55.0602 59.7565 54.893 60.1701 55.0294 60.3725Z" fill="#263238"/>
<path d="M56.6891 51.2997C57.5427 49.3681 59.7207 48.2549 61.8283 48.2197C63.9359 48.1845 65.9731 49.0293 67.7727 50.1381C75.3803 54.8285 79.0455 65.7405 86.5563 70.5849C88.4043 71.7773 90.8815 70.8049 92.4391 72.3449C93.9967 73.8849 94.9603 76.3357 94.0187 78.3201C95.0879 76.9429 96.1703 75.5393 96.7995 73.9201C97.4287 72.3009 97.5607 70.4001 96.7291 68.8513C96.0999 67.6853 94.9691 66.7789 94.6743 65.4853C94.4235 64.3501 94.9031 63.1797 94.8899 62.0181C94.8767 60.8565 94.3487 59.7169 93.7943 58.6697C90.9519 53.2885 86.9699 48.3825 81.7515 45.2497C78.3455 43.1534 74.4339 42.022 70.4347 41.9761C66.4171 41.9546 62.5245 43.3718 59.4611 45.9713C57.7011 47.5157 55.8619 49.1129 56.6847 51.2997" fill="#263238"/>
<path d="M92.2056 73.9553C92.3508 73.5857 99.1972 71.3153 99.0828 78.5357C98.9684 85.5361 91.9504 83.9565 91.9416 83.7541C91.9328 83.5517 92.2056 73.9553 92.2056 73.9553Z" fill="#FFBE9D"/>
<path d="M94.1501 81.1449C94.1809 81.1449 94.2689 81.2329 94.4757 81.3341C94.7639 81.4605 95.0893 81.4731 95.3864 81.3693C96.13 81.1097 96.7768 79.9481 96.834 78.6897C96.8649 78.0873 96.7597 77.4858 96.526 76.9297C96.4661 76.7119 96.3549 76.5116 96.2019 76.3455C96.0488 76.1795 95.8582 76.0524 95.646 75.9749C95.5066 75.9342 95.3572 75.9442 95.2244 76.0029C95.0916 76.0617 94.9838 76.1655 94.92 76.2961C94.8188 76.4897 94.8628 76.6305 94.8232 76.6393C94.7836 76.6481 94.678 76.5205 94.7396 76.2345C94.779 76.0593 94.8787 75.9036 95.0212 75.7945C95.217 75.6534 95.4604 75.595 95.6988 75.6317C95.9858 75.6925 96.2522 75.8266 96.4719 76.0209C96.6917 76.2152 96.8574 76.4631 96.9528 76.7405C97.2393 77.3519 97.3722 78.024 97.34 78.6985C97.2652 80.1065 96.5172 81.4133 95.5008 81.6861C95.3124 81.7376 95.1148 81.7457 94.9227 81.7099C94.7307 81.6741 94.5493 81.5953 94.3921 81.4793C94.1589 81.3165 94.1237 81.1581 94.1501 81.1449Z" fill="#7B4B45"/>
<path d="M95.1002 70.4353C94.9522 70.3688 94.812 70.2861 94.6822 70.1889C94.4226 70.0129 94.0134 69.7753 93.5294 69.4101C92.1816 68.361 90.9486 67.1723 89.851 65.8637C88.2564 63.9041 86.7713 61.8579 85.4026 59.7344C83.8186 57.3716 82.0806 54.7581 79.8366 52.3776C78.7358 51.2327 77.5143 50.2104 76.1934 49.3284C74.9584 48.5209 73.6283 47.8692 72.2334 47.388C69.8658 46.5491 67.3602 46.1683 64.8502 46.266C63.1494 46.3121 61.4624 46.5859 59.8342 47.08C59.2534 47.2384 58.8266 47.4188 58.5142 47.52C58.3731 47.5849 58.2256 47.635 58.0742 47.6696C58.2152 47.5892 58.3623 47.5201 58.5142 47.4628C58.9437 47.2693 59.3845 47.1018 59.8342 46.9612C61.4551 46.4129 63.1452 46.0959 64.8546 46.0196C67.3934 45.8932 69.9329 46.2562 72.3346 47.0888C73.7593 47.5726 75.1189 48.2302 76.3826 49.0468C77.7255 49.9345 78.9664 50.9674 80.083 52.1269C82.3402 54.5601 84.0694 57.2001 85.6402 59.5673C86.989 61.6969 88.4504 63.7532 90.0182 65.7273C91.0918 67.0396 92.2914 68.2436 93.5998 69.3221C94.0662 69.6961 94.4578 69.9513 94.7086 70.1449C94.846 70.2321 94.9768 70.3292 95.1002 70.4353Z" fill="#455A64"/>
<path d="M94.9115 82.4077C95.2558 82.3565 95.6066 82.4385 95.8926 82.6369C96.1786 82.8353 96.3782 83.1353 96.4508 83.4757C96.5235 83.8161 96.4636 84.1713 96.2836 84.4692C96.1035 84.7671 95.8167 84.9851 95.4815 85.079C95.1463 85.1728 94.788 85.1354 94.4794 84.9744C94.1709 84.8133 93.9353 84.5408 93.8206 84.2121C93.7059 83.8835 93.7207 83.5235 93.8621 83.2055C94.0034 82.8874 94.2607 82.6352 94.5815 82.5001" fill="white"/>
<path d="M94.5807 82.5001C94.2731 82.7341 94.0444 83.0565 93.9251 83.4241C93.8693 83.6137 93.8622 83.8143 93.9045 84.0073C93.9468 84.2004 94.0371 84.3796 94.1671 84.5285C94.3181 84.7167 94.5214 84.8561 94.7514 84.929C94.9814 85.002 95.2279 85.0053 95.4598 84.9385C95.6916 84.8717 95.8986 84.7378 96.0546 84.5537C96.2105 84.3696 96.3085 84.1434 96.3363 83.9037C96.3669 83.7084 96.3478 83.5085 96.2809 83.3224C96.2141 83.1363 96.1015 82.9701 95.9535 82.8389C95.6609 82.586 95.296 82.432 94.9107 82.3989C94.9107 82.3989 95.0207 82.3285 95.2407 82.3285C95.5626 82.3372 95.8724 82.4534 96.1207 82.6585C96.3118 82.808 96.4606 83.0047 96.5524 83.2292C96.6442 83.4538 96.6759 83.6984 96.6443 83.9389C96.6155 84.2388 96.4971 84.5231 96.3046 84.7548C96.112 84.9865 95.8541 85.1548 95.5645 85.2379C95.2749 85.321 94.967 85.3149 94.6809 85.2206C94.3948 85.1262 94.1437 84.9479 93.9603 84.7089C93.8061 84.5224 93.7034 84.2987 93.6625 84.0602C93.6216 83.8216 93.6439 83.5766 93.7271 83.3493C93.8235 83.0475 94.0188 82.7871 94.2815 82.6101C94.4487 82.5001 94.5719 82.4825 94.5807 82.5001Z" fill="#263238"/>
<path d="M93.2737 72.3668C93.3309 74.2808 93.3573 76.3004 92.4289 77.9724C91.5005 79.6444 89.2389 80.74 87.5889 79.7324C86.2689 78.9184 85.8993 77.1716 85.7145 75.6228C85.1777 71.148 85.0017 66.6336 84.4297 62.1632L93.2737 72.3668Z" fill="#263238"/>
<path d="M58.5098 48.0217C58.5098 48.0613 59.1302 47.9205 60.2698 47.9205C61.855 47.9368 63.4211 48.2688 64.8766 48.8973C65.8825 49.3177 66.84 49.8459 67.7322 50.4725C68.754 51.2039 69.731 51.9959 70.6582 52.8441C72.8038 54.7698 74.7108 56.9457 76.3386 59.3253C77.1922 60.6013 77.9402 61.9037 78.763 63.1181C79.5313 64.2987 80.4367 65.3843 81.4602 66.3521C83.2276 67.9456 85.1736 69.3291 87.2594 70.4749C89.0194 71.4737 90.4978 72.1777 91.5186 72.6749L92.6978 73.2205C92.8369 73.2934 92.9847 73.3481 93.1378 73.3833C93.0166 73.2896 92.8852 73.2099 92.7462 73.1457L91.5802 72.5297C90.5858 72.0017 89.1294 71.2581 87.3914 70.2329C85.3494 69.063 83.4417 67.6731 81.7022 66.0881C80.7 65.1337 79.8139 64.0645 79.0622 62.9025C78.257 61.7013 77.509 60.3945 76.6466 59.1097C75.0093 56.702 73.079 54.5072 70.9002 52.5757C69.9544 51.7241 68.9566 50.932 67.9126 50.2041C66.9921 49.5777 66.0066 49.0525 64.9734 48.6377C63.4814 48.018 61.876 47.7183 60.261 47.7577C59.8253 47.7715 59.3914 47.8186 58.963 47.8985C58.8072 47.92 58.6549 47.9614 58.5098 48.0217V48.0217Z" fill="#455A64"/>
<path d="M72.7846 87.1201C72.7023 86.45 72.5337 85.7934 72.283 85.1665C72.23 84.9143 72.0799 84.693 71.865 84.5505C71.6199 84.4671 71.352 84.4813 71.117 84.5901C69.6474 85.0697 67.7642 85.9365 66.277 86.4161C66.183 86.9253 66.1992 87.4488 66.3244 87.9512C66.4497 88.4536 66.681 88.9234 67.003 89.3289C67.4782 89.9405 68.719 90.2089 69.4934 90.1781C70.0107 90.2106 70.5285 90.1231 71.0063 89.9223C71.4841 89.7216 71.909 89.4131 72.2478 89.0209C72.666 88.4806 72.8584 87.7993 72.7846 87.1201V87.1201Z" fill="#7B4B45" fill-opacity="0.02"/>
<path d="M67.6364 89.5136C67.676 89.4168 68.4152 90.068 69.7924 89.9536C70.5722 89.8872 71.296 89.5214 71.812 88.9328C72.1058 88.5668 72.315 88.1402 72.4245 87.6838C72.5341 87.2274 72.5413 86.7523 72.4456 86.2928C72.3547 85.8267 72.1353 85.3954 71.812 85.0476C71.5216 84.7528 71.1432 84.8276 70.7032 84.9992L68.3932 85.9408C67.0732 86.4644 66.2372 86.7548 66.1932 86.6888C66.1492 86.6228 66.9368 86.2004 68.2304 85.5844L70.5096 84.5196C70.7569 84.4073 71.0219 84.3388 71.2928 84.3172C71.6176 84.3054 71.9339 84.4225 72.1728 84.6428C72.5894 85.0633 72.8726 85.5975 72.9868 86.1784C73.0995 86.7182 73.0867 87.2766 72.9494 87.8106C72.8121 88.3447 72.5539 88.84 72.1948 89.2584C71.8918 89.5901 71.5245 89.8567 71.1153 90.042C70.7061 90.2273 70.2635 90.3275 69.8144 90.3364C69.2203 90.3605 68.6312 90.2205 68.1116 89.9316C67.7596 89.7204 67.6144 89.54 67.6364 89.5136Z" fill="#263238"/>
<path d="M79.4497 78.8349C79.4233 78.8701 79.0405 78.5577 78.3321 78.2233C77.9181 78.0339 77.4862 77.8865 77.0429 77.7833C76.4987 77.6577 75.9425 77.5913 75.3841 77.5853C74.8259 77.5921 74.27 77.657 73.7253 77.7789C73.2821 77.8828 72.8503 78.0302 72.4361 78.2189C71.7277 78.5489 71.3449 78.8613 71.3185 78.8261C71.2921 78.7909 71.3977 78.7293 71.5693 78.5885C71.6727 78.4992 71.783 78.4183 71.8993 78.3465C72.0403 78.2467 72.1872 78.1556 72.3393 78.0737C72.7581 77.8531 73.201 77.6819 73.6593 77.5633C74.2178 77.4234 74.7908 77.3495 75.3665 77.3433C75.944 77.3484 76.5187 77.4238 77.0781 77.5677C77.5362 77.6865 77.9791 77.8578 78.3981 78.0781C78.5574 78.1613 78.7117 78.2539 78.8601 78.3553C78.9763 78.4271 79.0867 78.508 79.1901 78.5973C79.3705 78.7601 79.4585 78.8217 79.4497 78.8349Z" fill="#7B4B45"/>
<path d="M40.2324 206.602L108.828 206.518L108.116 193.204L109.396 145.332L108.001 114.149C102.281 111.795 91.3736 108.17 91.3736 108.17C91.3736 108.17 87.33 117.885 76.7656 117.885C66.9404 117.885 63.284 109.278 63.284 109.278L58.4176 111.201C52.1862 112.227 46.0873 113.938 40.2324 116.305L42.6612 149.6C42.6612 149.6 47.7652 177.606 46.8896 182.565C46.014 187.524 40.2324 206.602 40.2324 206.602Z" fill="#DB2228"/>
<g opacity="0.3">
<path opacity="0.3" d="M70.1082 158.457C69.5362 162.25 69.1226 166.615 71.7098 169.457C73.2058 171.09 75.397 171.833 77.3418 172.885C81.337 175.041 84.3818 178.605 87.1494 182.191C89.917 185.777 92.5174 189.587 95.9758 192.531C99.4342 195.474 103.962 197.525 108.454 196.887L107.517 187.937L84.2454 164.243L70.1082 158.457Z" fill="black"/>
</g>
<path d="M41.1131 115.984C41.1131 115.984 35.6439 117.863 30.7599 127.89C27.7459 134.09 16.8251 171.89 16.4159 176.625C16.3894 176.924 16.4159 177.263 16.3807 177.632C14.9507 190.832 27.6007 199.949 38.3147 192.839C41.5013 190.686 43.8674 187.52 45.0291 183.854L49.1651 171.059L41.1131 115.984Z" fill="#DB2228"/>
<path d="M72.8283 177.782C72.7931 177.835 68.1159 174.988 62.3783 171.424C56.6407 167.86 52.0119 164.921 52.0471 164.868C52.0823 164.815 56.7595 167.662 62.4971 171.231C68.2347 174.799 72.8591 177.729 72.8283 177.782Z" fill="#263238"/>
<path d="M108.001 114.149C108.001 114.149 121.052 116.644 123.841 125.616C126.34 133.558 132.06 169.061 132.852 176.44C133.913 186.56 131.7 197.851 120.906 198.99C110.113 200.13 89.8203 181.469 89.8203 181.469L103.126 164.23L108.437 167.086L107.464 142.468L108.001 114.149Z" fill="#DB2228"/>
<path d="M112.286 197.164L112.159 197.12L111.789 196.975C111.468 196.834 110.971 196.671 110.372 196.368C108.648 195.522 106.976 194.574 105.365 193.53C99.9041 189.888 94.6918 185.887 89.7628 181.553L89.6836 181.487L89.7452 181.403C91.382 179.287 93.1112 177.043 94.8888 174.733L103.06 164.173L103.112 164.103L103.192 164.142C106.144 165.647 108.806 167.169 111.178 168.542C113.549 169.915 115.613 171.143 117.338 172.168C119.062 173.193 120.391 174.02 121.298 174.588L122.349 175.248L122.613 175.419C122.675 175.459 122.706 175.481 122.701 175.485L122.604 175.433L122.327 175.274L121.262 174.649L117.258 172.278C115.538 171.27 113.461 170.051 111.098 168.696C108.736 167.341 106.056 165.832 103.108 164.336L103.24 164.305L95.0868 174.887L89.9388 181.553V181.399C94.8556 185.734 100.045 189.749 105.475 193.42C107.073 194.475 108.729 195.44 110.434 196.31C111.028 196.623 111.521 196.799 111.833 196.948L112.198 197.116C112.26 197.12 112.291 197.16 112.286 197.164Z" fill="#263238"/>
<path d="M43.291 145.534C43.1959 145.544 43.1001 145.544 43.005 145.534L42.1734 145.442L39.0626 145.068L28.221 143.673L28.3354 143.594C27.5874 146.181 26.7866 149.024 25.9726 152.007C24.2126 158.382 22.7562 164.182 21.7926 168.401C21.3086 170.513 20.9478 172.225 20.7058 173.413C20.5914 173.994 20.499 174.451 20.433 174.781C20.4022 174.926 20.3758 175.041 20.3582 175.133C20.3521 175.176 20.3403 175.217 20.323 175.256C20.3168 175.214 20.3168 175.171 20.323 175.129L20.3758 174.772C20.433 174.442 20.5078 173.98 20.6046 173.395C20.8202 172.203 21.159 170.482 21.621 168.366C22.545 164.133 23.9926 158.325 25.7394 151.945C26.5534 148.962 27.3586 146.12 28.1198 143.537L28.1462 143.449H28.2342L39.0758 144.905L42.1558 145.345L42.983 145.473L43.291 145.534Z" fill="#263238"/>
<path d="M45.8467 139.845C45.9127 139.845 46.2867 148.874 46.6739 160.015C47.0611 171.156 47.3383 180.193 47.2767 180.198C47.2151 180.202 46.8367 171.169 46.4451 160.024C46.0535 148.878 45.7851 139.845 45.8467 139.845Z" fill="#263238"/>
<path d="M107.526 143.915C107.536 143.994 107.536 144.074 107.526 144.153V144.826C107.526 145.411 107.526 146.26 107.556 147.308C107.596 149.406 107.71 152.302 107.864 155.501C108.018 158.699 108.181 161.564 108.304 163.689C108.353 164.714 108.397 165.555 108.428 166.171C108.428 166.443 108.428 166.668 108.454 166.848C108.466 166.927 108.466 167.007 108.454 167.086C108.436 167.009 108.423 166.931 108.414 166.853L108.348 166.179C108.3 165.559 108.23 164.723 108.15 163.698C107.996 161.608 107.807 158.713 107.653 155.514C107.499 152.315 107.42 149.411 107.42 147.312C107.42 146.26 107.42 145.411 107.464 144.826C107.464 144.553 107.495 144.329 107.504 144.148C107.5 144.07 107.508 143.992 107.526 143.915V143.915Z" fill="#263238"/>
<path d="M116.688 123.64C116.74 123.675 114.562 127.16 111.826 131.432C109.089 135.705 106.827 139.132 106.774 139.097C106.722 139.062 108.895 135.577 111.636 131.309C114.378 127.041 116.635 123.64 116.688 123.64Z" fill="#263238"/>
<path d="M49.6399 115.034C48.1307 115.1 47.9811 114.281 46.3179 116.736C44.6547 119.192 45.6007 122.069 42.8287 122.549C40.0567 123.028 38.2791 117.097 37.9887 116.538C37.8655 116.283 37.1615 114.734 36.2287 112.702C35.1023 110.233 33.6547 107.048 32.5195 104.588C30.4515 100.104 28.3615 101.9 28.3615 101.9L32.0003 114.99C32.0003 114.99 26.7511 105.252 24.5203 103.11C22.2895 100.967 20.8067 102.846 20.8067 102.846L27.9171 116.688C27.9171 116.688 22.3379 108.896 20.7407 106.66C19.1435 104.425 17.8191 104.5 17.3659 105.226C16.9127 105.952 17.2339 107.382 17.7751 108.508C18.3163 109.635 25.1407 120.028 24.8591 119.992C24.5775 119.957 19.0907 115.768 17.6211 115.034C16.1515 114.299 14.9327 114.915 14.7523 116.195C14.5719 117.476 25.2683 126.944 25.2683 126.944L29.9191 139.04L29.1007 143.761L42.5339 145.332L42.7671 138.314C42.7671 138.314 45.7767 133.703 46.8635 130.368C47.9503 127.032 49.6223 118.36 50.1811 117.48C50.7399 116.6 51.1447 114.972 49.6399 115.034Z" fill="#FFBE9D"/>
<path d="M42.4018 130.341C42.4018 130.341 42.1202 130.288 41.6186 130.205C40.9125 130.086 40.1957 130.042 39.4802 130.073C38.9859 130.098 38.4936 130.153 38.0062 130.24C37.4266 130.368 36.8259 130.368 36.2462 130.24C35.6218 130.04 35.0656 129.67 34.6402 129.171C34.2002 128.682 33.7954 128.115 33.3686 127.574C31.904 125.705 30.2082 124.03 28.3218 122.588C27.6002 122.038 27.0018 121.62 26.5618 121.339C26.3347 121.205 26.1158 121.058 25.9062 120.899C25.9063 120.899 25.9766 120.921 26.0954 120.982C26.2142 121.044 26.3903 121.141 26.6059 121.273C27.2286 121.641 27.8321 122.04 28.4142 122.47C30.3458 123.882 32.0723 125.555 33.5446 127.442C33.9846 127.992 34.3586 128.555 34.7986 129.026C35.194 129.499 35.7137 129.852 36.299 130.046C36.8441 130.165 37.4084 130.165 37.9534 130.046C38.4484 129.966 38.9482 129.919 39.4494 129.906C40.1767 129.889 40.9033 129.959 41.6142 130.112C41.865 130.17 42.0542 130.222 42.1862 130.262C42.2604 130.282 42.3326 130.308 42.4018 130.341V130.341Z" fill="#7B4B45"/>
<path d="M69.6256 135.432L70.2108 165.757C70.2182 166.125 70.2981 166.488 70.4459 166.824C70.5938 167.161 70.8066 167.466 71.0722 167.721C71.3379 167.975 71.6512 168.175 71.9941 168.308C72.337 168.442 72.7029 168.506 73.0708 168.498L85.8308 168.23C86.5509 168.214 87.2373 167.921 87.7471 167.412C88.2569 166.903 88.5508 166.217 88.5676 165.497L89.3024 135.445C89.3112 135.072 89.2453 134.701 89.1087 134.353C88.972 134.006 88.7674 133.689 88.5067 133.422C88.246 133.155 87.9346 132.942 87.5907 132.797C87.2468 132.652 86.8773 132.577 86.504 132.576H72.424C72.0516 132.576 71.683 132.651 71.3397 132.795C70.9964 132.939 70.6853 133.15 70.4247 133.416C70.1641 133.682 69.9592 133.997 69.822 134.344C69.6847 134.69 69.618 135.06 69.6256 135.432V135.432Z" fill="#263238"/>
<path d="M80.8623 138.384C80.8623 138.618 80.793 138.846 80.6633 139.04C80.5335 139.234 80.3491 139.385 80.1334 139.474C79.9176 139.563 79.6803 139.586 79.4514 139.541C79.2226 139.495 79.0125 139.382 78.8477 139.217C78.683 139.051 78.571 138.841 78.526 138.612C78.481 138.383 78.505 138.145 78.5949 137.93C78.6849 137.715 78.8367 137.531 79.0312 137.402C79.2257 137.273 79.4541 137.204 79.6875 137.205C79.8423 137.205 79.9957 137.235 80.1388 137.294C80.2819 137.353 80.4118 137.44 80.5211 137.55C80.6304 137.659 80.7168 137.789 80.7754 137.933C80.8339 138.076 80.8635 138.23 80.8623 138.384V138.384Z" fill="white"/>
<path d="M89.0028 142.388C89.0028 142.388 92.6636 146.718 94.01 148.641C95.3564 150.564 95.836 156.82 95.836 156.82L96.716 164.036L101.824 167.006L92.2456 179.08L84.374 171.732L76.7884 168.96C76.7884 168.96 71.6844 164.151 70.8176 161.92C70.3035 160.663 70.0418 159.318 70.0476 157.96C70.0476 157.96 67.6452 152.768 67.1612 150.92C66.6772 149.072 66.6816 145.82 66.6816 145.82C66.6816 145.82 68.028 145.433 69.1852 147.646L67.3548 143.898C67.3548 143.898 68.3184 141.011 70.8176 143.801C73.3168 146.59 77.4572 151.303 77.4572 151.303L82.174 155.056L82.7504 154.383C82.7504 154.383 74.3904 144.184 74.5708 142.358C74.7512 140.532 76.498 140.43 78.324 142.358C80.15 144.285 87.6564 153.903 88.62 154C89.5836 154.097 89.8696 152.75 89.8696 152.75L89.1964 149.094L88.8136 148.324L89.0028 142.388Z" fill="#FFBE9D"/>
<path d="M76.0258 157.595C75.8995 157.49 75.7858 157.37 75.687 157.238C75.4802 156.996 75.1898 156.64 74.8422 156.196C74.1426 155.316 73.2098 154.048 72.2374 152.623C71.265 151.197 70.4334 149.868 69.8614 148.892C69.5754 148.403 69.351 148.012 69.2014 147.726C69.1149 147.587 69.0441 147.44 68.9902 147.286C69.103 147.407 69.2006 147.541 69.2806 147.686L70.0198 148.808C70.627 149.758 71.4718 151.07 72.4442 152.495C73.4166 153.921 74.323 155.184 74.9874 156.099L75.775 157.181C75.8723 157.31 75.9563 157.449 76.0258 157.595V157.595Z" fill="#7B4B45"/>
<path d="M73.7686 162.417C72.9525 161.476 72.1929 160.487 71.4938 159.456C70.7362 158.473 70.0397 157.445 69.4082 156.376C70.2243 157.317 70.9839 158.306 71.683 159.337C72.4436 160.318 73.1402 161.347 73.7686 162.417V162.417Z" fill="#7B4B45"/>
<path d="M128.561 61.9967C127.747 61.9967 127.04 61.819 126.442 61.4637C125.853 61.0997 125.394 60.5884 125.064 59.9297C124.744 59.271 124.583 58.4867 124.583 57.5767C124.583 56.6667 124.752 55.8824 125.09 55.2237C125.437 54.565 125.918 54.058 126.533 53.7027C127.149 53.3387 127.855 53.1567 128.652 53.1567C129.502 53.1567 130.191 53.317 130.719 53.6377C131.257 53.9584 131.69 54.4524 132.019 55.1197L131.07 55.6397C130.88 55.1457 130.576 54.773 130.16 54.5217C129.753 54.2617 129.25 54.1317 128.652 54.1317C128.072 54.1317 127.556 54.2704 127.105 54.5477C126.663 54.8164 126.312 55.2107 126.052 55.7307C125.801 56.242 125.675 56.8574 125.675 57.5767C125.675 58.296 125.784 58.9157 126 59.4357C126.226 59.947 126.555 60.3414 126.988 60.6187C127.43 60.8874 127.968 61.0217 128.6 61.0217C128.956 61.0217 129.285 60.9784 129.588 60.8917C129.9 60.7964 130.169 60.6577 130.394 60.4757C130.628 60.2937 130.81 60.064 130.94 59.7867C131.07 59.5094 131.135 59.1844 131.135 58.8117V58.5127H128.405V57.5377H132.084V61.8667H131.265L131.213 60.2677L131.434 60.3067C131.209 60.844 130.854 61.26 130.368 61.5547C129.883 61.8494 129.281 61.9967 128.561 61.9967ZM136.746 55.2367C137.362 55.2367 137.903 55.371 138.371 55.6397C138.848 55.9084 139.221 56.2984 139.489 56.8097C139.758 57.3124 139.892 57.9147 139.892 58.6167C139.892 59.3187 139.758 59.9254 139.489 60.4367C139.221 60.9394 138.848 61.325 138.371 61.5937C137.903 61.8624 137.362 61.9967 136.746 61.9967C136.14 61.9967 135.598 61.8624 135.121 61.5937C134.645 61.325 134.272 60.9394 134.003 60.4367C133.735 59.9254 133.6 59.3187 133.6 58.6167C133.6 57.9147 133.735 57.3124 134.003 56.8097C134.272 56.2984 134.645 55.9084 135.121 55.6397C135.598 55.371 136.14 55.2367 136.746 55.2367ZM136.746 56.1337C136.304 56.1337 135.927 56.2334 135.615 56.4327C135.303 56.632 135.061 56.918 134.887 57.2907C134.723 57.6547 134.64 58.0967 134.64 58.6167C134.64 59.128 134.723 59.57 134.887 59.9427C135.061 60.3154 135.303 60.6014 135.615 60.8007C135.927 61 136.304 61.0997 136.746 61.0997C137.188 61.0997 137.565 61 137.877 60.8007C138.189 60.6014 138.428 60.3154 138.592 59.9427C138.766 59.57 138.852 59.128 138.852 58.6167C138.852 58.0967 138.766 57.6547 138.592 57.2907C138.428 56.918 138.189 56.632 137.877 56.4327C137.565 56.2334 137.188 56.1337 136.746 56.1337ZM144.281 55.2367C144.897 55.2367 145.438 55.371 145.906 55.6397C146.383 55.9084 146.756 56.2984 147.024 56.8097C147.293 57.3124 147.427 57.9147 147.427 58.6167C147.427 59.3187 147.293 59.9254 147.024 60.4367C146.756 60.9394 146.383 61.325 145.906 61.5937C145.438 61.8624 144.897 61.9967 144.281 61.9967C143.675 61.9967 143.133 61.8624 142.656 61.5937C142.18 61.325 141.807 60.9394 141.538 60.4367C141.27 59.9254 141.135 59.3187 141.135 58.6167C141.135 57.9147 141.27 57.3124 141.538 56.8097C141.807 56.2984 142.18 55.9084 142.656 55.6397C143.133 55.371 143.675 55.2367 144.281 55.2367ZM144.281 56.1337C143.839 56.1337 143.462 56.2334 143.15 56.4327C142.838 56.632 142.596 56.918 142.422 57.2907C142.258 57.6547 142.175 58.0967 142.175 58.6167C142.175 59.128 142.258 59.57 142.422 59.9427C142.596 60.3154 142.838 60.6014 143.15 60.8007C143.462 61 143.839 61.0997 144.281 61.0997C144.723 61.0997 145.1 61 145.412 60.8007C145.724 60.6014 145.963 60.3154 146.127 59.9427C146.301 59.57 146.387 59.128 146.387 58.6167C146.387 58.0967 146.301 57.6547 146.127 57.2907C145.963 56.918 145.724 56.632 145.412 56.4327C145.1 56.2334 144.723 56.1337 144.281 56.1337ZM151.66 61.9967C151.123 61.9967 150.629 61.8624 150.178 61.5937C149.728 61.325 149.368 60.9394 149.099 60.4367C148.831 59.9254 148.696 59.3187 148.696 58.6167C148.696 57.8974 148.839 57.2864 149.125 56.7837C149.411 56.281 149.788 55.8997 150.256 55.6397C150.724 55.371 151.227 55.2367 151.764 55.2367C152.302 55.2367 152.765 55.3754 153.155 55.6527C153.554 55.93 153.818 56.2984 153.948 56.7577L153.818 56.8487V52.3767H154.858V61.8667H153.948L153.857 60.2937L154 60.2157C153.94 60.597 153.792 60.922 153.558 61.1907C153.333 61.4507 153.051 61.65 152.713 61.7887C152.384 61.9274 152.033 61.9967 151.66 61.9967ZM151.764 61.0867C152.18 61.0867 152.54 60.9827 152.843 60.7747C153.155 60.5667 153.394 60.272 153.558 59.8907C153.732 59.5007 153.818 59.0457 153.818 58.5257C153.818 58.0317 153.732 57.607 153.558 57.2517C153.394 56.8964 153.16 56.6234 152.856 56.4327C152.562 56.242 152.215 56.1467 151.816 56.1467C151.158 56.1467 150.646 56.372 150.282 56.8227C149.918 57.2734 149.736 57.8714 149.736 58.6167C149.736 59.362 149.914 59.96 150.269 60.4107C150.625 60.8614 151.123 61.0867 151.764 61.0867Z" fill="#DB2228"/>
</svg>
