<svg width="221" height="220" viewBox="0 0 221 220" fill="none" xmlns="http://www.w3.org/2000/svg">
<path d="M199.054 41.668H101.119V179.551H199.054V41.668Z" fill="#EBEBEB"/>
<path d="M186.338 26.3999C187.332 25.7998 188.402 25.3351 189.519 25.0183L190.175 21.8679L195.499 21.7711L196.264 24.8995C197.394 25.1769 198.482 25.6046 199.498 26.1711L202.187 24.4111L206.019 28.1071L204.352 30.8571C204.952 31.8528 205.416 32.9241 205.733 34.0427L208.884 34.6983L208.976 40.0223L205.852 40.7879C205.573 41.9161 205.146 43.0022 204.58 44.0175L206.34 46.7103L202.64 50.5383L199.89 48.8707C198.896 49.4723 197.826 49.9384 196.709 50.2567L196.053 53.4071L190.729 53.4995L189.964 50.3755C188.835 50.0969 187.749 49.6693 186.734 49.1039L184.041 50.8639L180.213 47.1635L181.881 44.4135C181.277 43.4193 180.81 42.3477 180.495 41.2279L177.344 40.5723L177.252 35.2483L180.376 34.4827C180.656 33.355 181.084 32.2691 181.648 31.2531L179.888 28.5647L183.588 24.7323L186.338 26.3999ZM189.176 33.4927C188.388 34.3057 187.859 35.3343 187.656 36.4481C187.453 37.5619 187.585 38.7109 188.036 39.7496C188.487 40.7882 189.235 41.6698 190.187 42.2827C191.139 42.8956 192.251 43.2122 193.383 43.1925C194.515 43.1728 195.616 42.8175 196.546 42.1718C197.476 41.5261 198.193 40.619 198.607 39.5652C199.021 38.5115 199.113 37.3586 198.872 36.2525C198.63 35.1465 198.066 34.137 197.25 33.3519C196.158 32.3035 194.695 31.7306 193.182 31.7586C191.669 31.7866 190.228 32.4134 189.176 33.5015V33.4927Z" fill="#E0E0E0"/>
<path d="M189.178 33.5015C189.478 33.1305 189.838 32.8123 190.243 32.5599C191.344 31.8434 192.66 31.5323 193.965 31.6799C194.867 31.7692 195.736 32.0707 196.499 32.5599C197.377 33.1332 198.085 33.9308 198.55 34.8699C199.073 35.9251 199.265 37.1138 199.1 38.2799C198.937 39.5221 198.379 40.6788 197.507 41.5784C196.635 42.478 195.496 43.0726 194.26 43.2739C193.678 43.3771 193.084 43.3861 192.5 43.3003C191.94 43.2388 191.394 43.0903 190.881 42.8603C189.926 42.4305 189.105 41.751 188.505 40.8935C187.867 39.9853 187.504 38.9121 187.461 37.803C187.418 36.6939 187.697 35.5959 188.263 34.6411C188.495 34.2306 188.792 33.8606 189.143 33.5455C189.173 33.5719 188.799 33.9195 188.359 34.7027C187.745 35.8164 187.522 37.1038 187.726 38.3591C187.863 39.2182 188.199 40.0333 188.707 40.7395C189.291 41.5456 190.077 42.1832 190.986 42.5875C191.993 43.0287 193.106 43.1649 194.189 42.9791C195.353 42.7799 196.422 42.2146 197.242 41.3655C198.062 40.5163 198.59 39.4276 198.748 38.2579C198.892 37.1694 198.716 36.0625 198.242 35.0723C197.806 34.1809 197.141 33.4215 196.315 32.8723C195.592 32.3929 194.765 32.0914 193.903 31.9923C192.642 31.8327 191.364 32.1008 190.273 32.7535C189.539 33.1451 189.204 33.5323 189.178 33.5015Z" fill="#E0E0E0"/>
<path d="M186.339 26.3999C186.277 26.3746 186.218 26.3437 186.163 26.3075L185.635 26.0039L183.54 24.7851H183.606L179.932 28.6395V28.5339L181.692 31.2179L181.78 31.2399L181.754 31.2927C181.196 32.3012 180.775 33.38 180.504 34.5003V34.5619H180.443L177.319 35.3363L177.407 35.2219C177.442 36.8998 177.477 38.6744 177.512 40.5459L177.38 40.4799L180.531 41.1267H180.614L180.636 41.2059C180.95 42.3115 181.412 43.3697 182.009 44.3519L182.053 44.4267L182.009 44.5015L180.346 47.2515L180.324 47.0711L184.156 50.7671H183.967L186.655 49.0071L186.735 48.9543L186.818 49.0027C187.822 49.5586 188.895 49.9802 190.008 50.2567H190.101L190.127 50.3491C190.365 51.3259 190.629 52.3951 190.893 53.4731L190.734 53.3543L196.058 53.2575L195.9 53.3851L196.555 50.2347L196.577 50.1379L196.674 50.1115C197.776 49.7983 198.831 49.3396 199.811 48.7475V48.7475L199.899 48.6991L199.983 48.7475L202.733 50.4195H202.531L206.227 46.5915V46.7939L204.467 44.1011L204.409 44.0219L204.458 43.9339C205.017 42.9328 205.44 41.8614 205.716 40.7483L205.738 40.6515H205.831L208.959 39.8903L208.84 40.0443C208.811 38.2256 208.781 36.451 208.752 34.7203L208.871 34.8655L205.721 34.2055H205.633L205.611 34.1175C205.297 33.0118 204.838 31.9524 204.247 30.9671L204.203 30.8923L204.22 30.7999L205.892 28.0499L205.914 28.2215L202.091 24.5123H202.249L199.552 26.2723L199.495 26.3119L199.433 26.2767C198.428 25.7134 197.352 25.2872 196.234 25.0095H196.168V24.9479C195.891 23.8083 195.645 22.7875 195.411 21.8195L195.508 21.8943L190.184 21.9603L190.255 21.9031C189.982 23.1615 189.762 24.1911 189.577 25.0491V25.0799H189.546C188.706 25.3145 187.89 25.6283 187.109 26.0171L186.537 26.3163C186.476 26.3536 186.413 26.386 186.347 26.4131C186.404 26.3705 186.463 26.3309 186.523 26.2943C186.647 26.2195 186.831 26.1051 187.087 25.9687C187.86 25.557 188.674 25.2253 189.515 24.9787L189.48 25.0183C189.652 24.1383 189.859 23.1263 190.114 21.8635V21.8063H190.171L195.495 21.6875H195.57V21.7623C195.807 22.7303 196.063 23.7511 196.344 24.8863L196.265 24.8071C197.405 25.0837 198.503 25.5113 199.53 26.0787H199.407L202.091 24.3187L202.174 24.2659L202.249 24.3319L206.086 28.0235L206.165 28.0983L206.108 28.1907C205.567 29.0707 205.017 30.0035 204.445 30.9451V30.7999C205.053 31.8052 205.525 32.8868 205.848 34.0163L205.738 33.9107L208.889 34.5663H209.007V34.6895C209.043 36.4172 209.076 38.1904 209.109 40.0091V40.1367L208.99 40.1631L205.866 40.9331L205.98 40.8187C205.698 41.9605 205.266 43.0598 204.695 44.0879V43.9207L206.455 46.6135L206.526 46.7191L206.433 46.8115L202.737 50.6439L202.649 50.7363L202.535 50.6703L199.82 49.0159H199.987C198.981 49.6245 197.898 50.0951 196.767 50.4151L196.881 50.2919L196.225 53.4423L196.199 53.5699H196.067L190.743 53.6579H190.615L190.585 53.5347C190.321 52.4523 190.061 51.3875 189.823 50.4063L189.938 50.5251C188.797 50.2396 187.698 49.8062 186.669 49.2359H186.831L184.139 50.9959L184.037 51.0619L183.949 50.9783C182.629 49.6891 181.309 48.4351 180.121 47.2735L180.038 47.1899L180.099 47.0931L181.771 44.3431V44.4927C181.168 43.4851 180.7 42.4021 180.381 41.2719L180.46 41.3599L177.31 40.6999H177.209V40.5987C177.176 38.7302 177.148 36.9555 177.125 35.2747V35.1823L177.213 35.1603L180.341 34.4035L180.267 34.4783C180.554 33.3456 180.992 32.2564 181.569 31.2399V31.3367L179.809 28.6395L179.774 28.5823L179.822 28.5383L183.54 24.7059L183.571 24.6751L183.606 24.6971L185.63 25.9599L186.154 26.2899C186.217 26.3233 186.279 26.36 186.339 26.3999V26.3999Z" fill="#E0E0E0"/>
<path d="M163.106 15.6332C163.704 15.2752 164.346 14.9971 165.015 14.806L165.407 12.9228L168.593 12.8656L169.033 14.7356C169.709 14.9011 170.361 15.1571 170.969 15.4968L172.579 14.4408L174.872 16.6408L173.873 18.2864C174.248 18.883 174.54 19.5286 174.74 20.2048L176.627 20.6008L176.684 23.7864L174.81 24.2264C174.644 24.9031 174.388 25.5543 174.049 26.1624L175.105 27.7728L172.905 30.0652L171.22 29.084C170.626 29.4457 169.987 29.7268 169.319 29.92L168.927 31.8076L165.737 31.8604L165.297 29.9904C164.622 29.8249 163.972 29.5689 163.365 29.2292L161.755 30.2852L159.463 28.0852L160.439 26.4C160.082 25.8035 159.804 25.1631 159.612 24.4948L157.729 24.1032L157.672 20.9132L159.542 20.4732C159.709 19.7983 159.965 19.1487 160.303 18.5416L159.247 16.9312L161.447 14.6344L163.093 15.6332H163.106ZM164.809 19.8792C164.34 20.3658 164.025 20.9805 163.906 21.6457C163.786 22.3108 163.866 22.9965 164.136 23.6161C164.405 24.2358 164.853 24.7616 165.421 25.1272C165.99 25.4927 166.654 25.6816 167.329 25.6699C168.005 25.6582 168.662 25.4465 169.218 25.0616C169.773 24.6766 170.202 24.1357 170.45 23.5071C170.699 22.8785 170.755 22.1904 170.612 21.5298C170.469 20.8692 170.134 20.2657 169.649 19.7956C169.326 19.4823 168.945 19.2358 168.526 19.0703C168.108 18.9049 167.661 18.8237 167.211 18.8315C166.762 18.8392 166.318 18.9358 165.905 19.1156C165.493 19.2954 165.12 19.5549 164.809 19.8792V19.8792Z" fill="#F5F5F5"/>
<path d="M164.809 19.8792C164.988 19.6591 165.202 19.4702 165.443 19.3204C166.103 18.8919 166.892 18.7053 167.674 18.7924C168.256 18.8554 168.813 19.0647 169.292 19.401C169.771 19.7372 170.158 20.1893 170.415 20.7152C170.57 21.0161 170.676 21.34 170.727 21.6744C170.785 22.0226 170.785 22.3778 170.727 22.726C170.632 23.468 170.3 24.1596 169.781 24.6984C169.262 25.2372 168.583 25.5947 167.845 25.718C167.496 25.7729 167.139 25.7729 166.789 25.718C166.312 25.6533 165.852 25.4905 165.44 25.2399C165.029 24.9893 164.673 24.6562 164.396 24.2616C164.084 23.8167 163.881 23.304 163.806 22.7656C163.688 21.9878 163.843 21.193 164.246 20.5172C164.389 20.2712 164.57 20.0498 164.783 19.8616C164.783 19.8616 164.576 20.086 164.312 20.5568C164.083 20.9649 163.941 21.4165 163.897 21.8825C163.852 22.3486 163.905 22.8188 164.053 23.263C164.201 23.7072 164.441 24.1155 164.756 24.4618C165.071 24.808 165.455 25.0846 165.883 25.2736C166.176 25.4064 166.488 25.4925 166.807 25.5288C167.137 25.5785 167.474 25.5711 167.801 25.5068C168.499 25.3903 169.14 25.0529 169.631 24.5443C170.122 24.0358 170.437 23.383 170.529 22.682C170.585 22.3528 170.585 22.0168 170.529 21.6876C170.479 21.3717 170.383 21.0649 170.243 20.7768C169.981 20.2425 169.582 19.7872 169.086 19.4568C168.659 19.1693 168.171 18.9855 167.661 18.92C166.899 18.8157 166.124 18.9707 165.461 19.36C165.025 19.668 164.823 19.8968 164.809 19.8792Z" fill="#F5F5F5"/>
<path d="M163.106 15.6331L163 15.5803L162.688 15.3955L161.447 14.6651H161.482L159.282 16.9707V16.9091L160.343 18.5151V18.5459V18.5767C160.011 19.1827 159.76 19.829 159.595 20.4995V20.5347H159.56L157.69 21.0011L157.742 20.9307C157.742 21.9339 157.782 22.9987 157.804 24.1163L157.742 24.0415L159.63 24.4331H159.678V24.4815C159.868 25.1429 160.145 25.7761 160.501 26.3647L160.528 26.4087L160.501 26.4527L159.507 28.0983V27.9927L161.804 30.1927H161.689L163.3 29.1367L163.348 29.1059L163.396 29.1323C163.997 29.4652 164.639 29.7168 165.306 29.8803H165.363V29.9375C165.508 30.5227 165.667 31.1607 165.825 31.8075L165.728 31.7371L168.914 31.6799L168.822 31.7547C168.945 31.1607 169.081 30.5183 169.213 29.8715V29.8099H169.27C169.93 29.62 170.561 29.3449 171.149 28.9915V28.9915L171.202 28.9607L171.255 28.9915L172.9 29.9903H172.777C173.525 29.2159 174.264 28.4547 174.977 27.6979V27.8211L173.921 26.2107L173.89 26.1579L173.917 26.1095C174.252 25.5094 174.505 24.8672 174.669 24.1999V24.1427H174.722L176.592 23.7027L176.522 23.7951C176.504 22.7098 176.486 21.6479 176.469 20.6095L176.544 20.6975L174.656 20.3015H174.603V20.2487C174.416 19.5864 174.143 18.9516 173.789 18.3611L173.758 18.3171L173.789 18.2731L174.788 16.6319V16.7287C173.983 15.9499 173.222 15.2151 172.5 14.5287H172.592L170.978 15.5803L170.942 15.6067H170.907C170.317 15.2543 169.682 14.9821 169.02 14.7971H168.98V14.7619C168.817 14.0799 168.668 13.4683 168.54 12.8875L168.597 12.9315L165.412 12.9711L165.456 12.9403C165.293 13.6927 165.161 14.3087 165.051 14.8235C164.538 14.9678 164.04 15.1609 163.564 15.3999L163.22 15.5803C163.185 15.6053 163.147 15.6246 163.106 15.6375L163.216 15.5671C163.286 15.5231 163.396 15.4527 163.55 15.3735C164.014 15.1262 164.502 14.9271 165.007 14.7795L164.985 14.8059C165.086 14.2911 165.209 13.6707 165.363 12.9139V12.8831H165.398L168.584 12.8127H168.628V12.8611C168.773 13.4375 168.923 14.0491 169.068 14.7311L169.024 14.6827C169.705 14.8477 170.361 15.1038 170.973 15.4439H170.903L172.54 14.3791L172.592 14.3439L172.636 14.3879L174.933 16.5879L174.977 16.6319L174.946 16.6891L173.948 18.3347V18.2467C174.313 18.8483 174.596 19.4966 174.788 20.1739L174.722 20.1123L176.61 20.5039H176.68V20.5743C176.702 21.6127 176.72 22.6731 176.742 23.7643V23.8347L176.671 23.8567L174.797 24.2967L174.867 24.2263C174.701 24.9104 174.444 25.569 174.102 26.1843V26.0875L175.18 27.7199L175.219 27.7815L175.166 27.8387L172.966 30.1311L172.914 30.1883L172.848 30.1487L171.198 29.1499H171.299C170.697 29.5136 170.048 29.7948 169.372 29.9859L169.442 29.9155C169.306 30.5623 169.174 31.2047 169.046 31.7987V31.8779H168.967L165.781 31.9307H165.702V31.8559C165.544 31.2091 165.39 30.5711 165.262 29.9815L165.332 30.0519C164.624 29.895 163.94 29.6434 163.3 29.3039H163.396L161.786 30.3599L161.724 30.3995L161.672 30.3599C160.88 29.5899 160.101 28.8419 159.384 28.1599L159.331 28.1115L159.37 28.0543L160.369 26.4087V26.4967C160.008 25.8941 159.728 25.246 159.538 24.5695L159.599 24.6267L157.712 24.1999H157.65V24.1383C157.65 23.0207 157.619 21.9383 157.602 20.9527V20.8955H157.654L159.529 20.4555L159.48 20.5039C159.65 19.8223 159.91 19.1667 160.255 18.5547V18.6163L159.208 17.0015L159.186 16.9663L159.212 16.9399C160.118 16.0115 160.866 15.2415 161.438 14.6607H161.46L162.675 15.4175L162.983 15.6155L163.106 15.6331Z" fill="#F5F5F5"/>
<path d="M77.7469 22.6555H20.1465V118.004H77.7469V22.6555Z" fill="#E0E0E0"/>
<path d="M75.8328 22.6555H18.2324V118.004H75.8328V22.6555Z" fill="#EBEBEB"/>
<path d="M73.3824 24.5872H20.6836V116.068H73.3824V24.5872Z" fill="#FAFAFA"/>
<path d="M63.1208 36.476H30.7148V104.183H63.1208V36.476Z" fill="#EBEBEB"/>
<path d="M30.7156 80.2207C30.6408 73.8979 36.33 67.7247 42.5956 66.8403C45.5832 66.4003 48.7556 67.0119 51.5452 65.8679C56.526 63.8263 58.11 57.2087 63.126 55.2463L63.3548 104.183H30.7156V80.2207Z" fill="#E0E0E0"/>
<path d="M157.083 184.633C157.737 184.236 158.441 183.93 159.177 183.722L159.617 181.65L163.115 181.588L163.621 183.643C164.363 183.827 165.078 184.108 165.746 184.479L167.506 183.322L170.023 185.75L168.927 187.559C169.322 188.214 169.629 188.918 169.838 189.653L171.911 190.093L171.972 193.613L169.9 194.093C169.715 194.835 169.434 195.549 169.064 196.218L170.221 197.978L167.792 200.495L165.979 199.399C165.325 199.796 164.621 200.102 163.885 200.31L163.445 202.382L159.947 202.444L159.441 200.385C158.699 200.202 157.984 199.923 157.316 199.553L155.556 200.71L153.039 198.277L154.135 196.469C153.738 195.815 153.432 195.11 153.224 194.374L151.151 193.934L151.09 190.436L153.18 189.948C153.364 189.206 153.645 188.491 154.016 187.823L152.859 186.063L155.287 183.542L157.1 184.642L157.083 184.633ZM158.948 189.297C158.432 189.831 158.085 190.507 157.953 191.238C157.82 191.97 157.907 192.724 158.204 193.406C158.5 194.088 158.991 194.666 159.617 195.068C160.242 195.471 160.972 195.678 161.715 195.665C162.458 195.653 163.181 195.419 163.792 194.996C164.403 194.572 164.874 193.977 165.146 193.285C165.419 192.593 165.48 191.836 165.322 191.11C165.164 190.384 164.794 189.721 164.259 189.204C163.904 188.861 163.486 188.592 163.027 188.411C162.568 188.23 162.078 188.141 161.584 188.15C161.091 188.158 160.605 188.264 160.152 188.461C159.7 188.658 159.291 188.942 158.948 189.297Z" fill="#F5F5F5"/>
<path d="M207.652 205.44C207.652 205.44 207.859 205.44 208.281 205.44H210.195V205.48C200.295 205.528 159.978 205.568 111.776 205.568L40.3727 205.533L18.7379 205.48H12.8551H11.3239H10.8047H11.3239H12.8551L18.7379 205.458L40.3727 205.423L111.776 205.388C159.978 205.388 200.295 205.427 210.195 205.476V205.48H208.281C207.859 205.449 207.652 205.44 207.652 205.44Z" fill="#263238"/>
<path d="M191.193 34.4828H92.5762V173.633H191.193V34.4828Z" fill="white"/>
<path d="M191.193 173.633C191.193 172.704 191.149 116.684 191.087 34.4828L191.193 34.584H92.5841L92.6985 34.4696C92.6985 86.614 92.6985 134.834 92.6765 173.62L92.5841 173.527L191.201 173.62L92.5841 173.712H92.4609V173.62C92.4609 134.834 92.4609 86.614 92.4609 34.4696V34.364H92.5841H191.193H191.298V34.4696C191.237 116.684 191.193 172.704 191.193 173.633Z" fill="#263238"/>
<path d="M138.37 126.87H102.158C100.533 126.87 99.2148 128.188 99.2148 129.813V133.58C99.2148 135.205 100.533 136.523 102.158 136.523H138.37C139.996 136.523 141.314 135.205 141.314 133.58V129.813C141.314 128.188 139.996 126.87 138.37 126.87Z" fill="#F5F5F5"/>
<path d="M182.301 126.87H147.022C145.396 126.87 144.078 128.188 144.078 129.813V133.58C144.078 135.205 145.396 136.523 147.022 136.523H182.301C183.927 136.523 185.245 135.205 185.245 133.58V129.813C185.245 128.188 183.927 126.87 182.301 126.87Z" fill="#F5F5F5"/>
<path d="M182.882 146.652H101.961C100.335 146.652 99.0176 147.97 99.0176 149.596V153.362C99.0176 154.988 100.335 156.306 101.961 156.306H182.882C184.507 156.306 185.825 154.988 185.825 153.362V149.596C185.825 147.97 184.507 146.652 182.882 146.652Z" fill="#F5F5F5"/>
<path d="M118.545 122.984C118.545 123.046 114.479 123.099 109.459 123.099C104.439 123.099 100.373 123.046 100.373 122.984C100.373 122.923 104.439 122.87 109.459 122.87C114.479 122.87 118.545 122.923 118.545 122.984Z" fill="#263238"/>
<path d="M161.542 122.984C161.542 123.046 158.339 123.099 154.387 123.099C150.436 123.099 147.229 123.046 147.229 122.984C147.229 122.923 150.432 122.87 154.387 122.87C158.343 122.87 161.542 122.923 161.542 122.984Z" fill="#263238"/>
<path d="M130.082 142.67C130.082 142.732 123.482 142.784 115.342 142.784C107.202 142.784 100.602 142.732 100.602 142.67C100.602 142.608 107.202 142.556 115.342 142.556C123.482 142.556 130.082 142.608 130.082 142.67Z" fill="#263238"/>
<path d="M182.961 104.953H100.333C98.7512 104.953 97.4688 106.236 97.4688 107.818V112.64C97.4688 114.222 98.7512 115.504 100.333 115.504H182.961C184.543 115.504 185.825 114.222 185.825 112.64V107.818C185.825 106.236 184.543 104.953 182.961 104.953Z" fill="#E0E0E0"/>
<path d="M160.467 110.229C160.467 110.295 152.626 110.343 142.959 110.343C133.292 110.343 125.447 110.295 125.447 110.229C125.447 110.163 133.288 110.115 142.959 110.115C152.63 110.115 160.467 110.167 160.467 110.229Z" fill="#263238"/>
<path d="M182.961 40.8013H100.333C98.7512 40.8013 97.4688 42.0837 97.4688 43.6657V48.4881C97.4688 50.07 98.7512 51.3525 100.333 51.3525H182.961C184.543 51.3525 185.825 50.07 185.825 48.4881V43.6657C185.825 42.0837 184.543 40.8013 182.961 40.8013Z" fill="#E0E0E0"/>
<path d="M160.467 46.0768C160.467 46.1384 152.626 46.1912 142.959 46.1912C133.292 46.1912 125.447 46.1384 125.447 46.0768C125.447 46.0152 133.288 45.9624 142.959 45.9624C152.63 45.9624 160.467 46.0108 160.467 46.0768Z" fill="#263238"/>
<path d="M191.192 53.9044C191.192 53.9704 169.095 54.0232 141.842 54.0232C114.588 54.0232 92.4824 53.9704 92.4824 53.9044C92.4824 53.8384 114.579 53.79 141.842 53.79C169.104 53.79 191.192 53.8428 191.192 53.9044Z" fill="#EBEBEB"/>
<path d="M191.192 100.584C191.192 100.65 169.095 100.698 141.842 100.698C114.588 100.698 92.4824 100.65 92.4824 100.584C92.4824 100.518 114.579 100.47 141.842 100.47C169.104 100.47 191.192 100.522 191.192 100.584Z" fill="#EBEBEB"/>
<path d="M138.37 64.4865H102.158C100.533 64.4865 99.2148 65.8043 99.2148 67.4301V71.1965C99.2148 72.8222 100.533 74.1401 102.158 74.1401H138.37C139.996 74.1401 141.314 72.8222 141.314 71.1965V67.4301C141.314 65.8043 139.996 64.4865 138.37 64.4865Z" fill="#F5F5F5"/>
<path d="M182.301 64.4865H147.022C145.396 64.4865 144.078 65.8043 144.078 67.4301V71.1965C144.078 72.8222 145.396 74.1401 147.022 74.1401H182.301C183.927 74.1401 185.245 72.8222 185.245 71.1965V67.4301C185.245 65.8043 183.927 64.4865 182.301 64.4865Z" fill="#F5F5F5"/>
<path d="M182.882 84.2688H101.961C100.335 84.2688 99.0176 85.5867 99.0176 87.2124V90.9788C99.0176 92.6045 100.335 93.9224 101.961 93.9224H182.882C184.507 93.9224 185.825 92.6045 185.825 90.9788V87.2124C185.825 85.5867 184.507 84.2688 182.882 84.2688Z" fill="#F5F5F5"/>
<path d="M118.545 60.6012C118.545 60.6628 114.479 60.7156 109.459 60.7156C104.439 60.7156 100.373 60.6628 100.373 60.6012C100.373 60.5396 104.439 60.4868 109.459 60.4868C114.479 60.4868 118.545 60.5396 118.545 60.6012Z" fill="#263238"/>
<path d="M161.542 60.6012C161.542 60.6628 158.339 60.7156 154.387 60.7156C150.436 60.7156 147.229 60.6628 147.229 60.6012C147.229 60.5396 150.432 60.4868 154.387 60.4868C158.343 60.4868 161.542 60.5396 161.542 60.6012Z" fill="#263238"/>
<path d="M130.082 80.2868C130.082 80.3484 123.482 80.4011 115.342 80.4011C107.202 80.4011 100.602 80.3484 100.602 80.2868C100.602 80.2252 107.202 80.1724 115.342 80.1724C123.482 80.1724 130.082 80.2252 130.082 80.2868Z" fill="#263238"/>
<path d="M182.779 162.171C182.779 162.237 176.342 162.285 168.4 162.285C160.458 162.285 154.025 162.237 154.025 162.171C154.025 162.105 160.458 162.056 168.4 162.056C176.342 162.056 182.779 162.109 182.779 162.171Z" fill="#263238"/>
<path d="M134.85 70.3253C134.627 70.3986 134.399 70.4559 134.168 70.4969C132.44 70.8149 130.655 70.5599 129.086 69.7709C128.794 69.6194 128.53 69.4185 128.307 69.1769C128.062 68.9171 127.898 68.5913 127.836 68.2397C127.796 68.0522 127.795 67.8583 127.833 67.6704C127.872 67.4826 127.949 67.3048 128.06 67.1485C128.191 66.9868 128.366 66.8672 128.564 66.8046C128.762 66.742 128.974 66.7392 129.174 66.7965C129.279 66.8271 129.377 66.8793 129.461 66.9498C129.545 67.0202 129.613 67.1074 129.662 67.2057C129.759 67.405 129.789 67.6305 129.746 67.8481C129.654 68.2747 129.443 68.6667 129.138 68.9789C128.538 69.6526 127.783 70.1705 126.938 70.4881C126.029 70.8316 125.043 70.9199 124.087 70.7433C123.579 70.6567 123.1 70.4467 122.692 70.1317C122.472 69.9707 122.296 69.758 122.177 69.5125C122.059 69.2669 122.003 68.996 122.015 68.7237C122.043 68.444 122.148 68.1776 122.318 67.9537C122.485 67.7147 122.732 67.5431 123.014 67.4697C123.163 67.4403 123.317 67.4499 123.461 67.4977C123.605 67.5455 123.734 67.6299 123.836 67.7425C124.03 67.9694 124.134 68.2585 124.131 68.5565C124.136 68.8479 124.067 69.1357 123.929 69.3925C123.78 69.6455 123.576 69.8608 123.33 70.0217C122.842 70.3139 122.31 70.5263 121.755 70.6509C120.686 70.9545 119.52 71.2845 118.332 71.0161C117.736 70.8869 117.19 70.5909 116.757 70.1625C116.532 69.9443 116.355 69.6819 116.237 69.3918C116.119 69.1018 116.062 68.7904 116.07 68.4773C116.075 68.2761 116.12 68.0778 116.202 67.8942C116.285 67.7106 116.403 67.5453 116.55 67.4081C116.712 67.28 116.907 67.2005 117.113 67.1787C117.319 67.1569 117.526 67.1937 117.712 67.2849C117.903 67.3708 118.057 67.5222 118.147 67.7117C118.236 67.9013 118.255 68.1166 118.2 68.3189C118.082 68.6919 117.84 69.0132 117.514 69.2297C116.332 70.0397 114.975 70.5557 113.554 70.7345C112.862 70.8537 112.151 70.7916 111.49 70.5541C111.165 70.4224 110.878 70.2106 110.656 69.9382C110.435 69.6659 110.285 69.3419 110.223 68.9965C110.17 68.6502 110.249 68.2968 110.442 68.005C110.636 67.7131 110.931 67.5035 111.27 67.4169C111.442 67.3836 111.621 67.3971 111.786 67.4559C111.952 67.5147 112.099 67.6167 112.212 67.7513C112.419 68.012 112.535 68.3335 112.542 68.6665C112.557 68.9883 112.487 69.3085 112.339 69.5949C112.182 69.8646 111.969 70.0972 111.714 70.2769C111.222 70.5991 110.675 70.8287 110.1 70.9545C109.022 71.2405 107.9 71.4429 106.879 71.0689C106.397 70.895 105.974 70.5902 105.656 70.1889C105.348 69.8046 105.191 69.321 105.216 68.8293C105.262 68.3738 105.471 67.9504 105.805 67.6369C105.956 67.4853 106.143 67.3737 106.348 67.3122C106.553 67.2508 106.77 67.2414 106.98 67.2849H107.024V67.3289C107.038 68.1924 106.723 69.029 106.144 69.6697C105.732 70.1518 105.199 70.5149 104.6 70.7213C104.23 70.8492 103.837 70.9001 103.447 70.8709C103.183 70.8313 103.051 70.7961 103.051 70.7961C103.563 70.8798 104.089 70.8313 104.578 70.6553C105.158 70.4432 105.673 70.082 106.069 69.6081C106.613 68.9789 106.902 68.169 106.879 67.3377L106.927 67.3949C106.738 67.3601 106.544 67.3719 106.36 67.4294C106.177 67.487 106.011 67.5884 105.876 67.7249C105.571 68.0173 105.383 68.4092 105.343 68.8293C105.277 69.7093 105.986 70.5893 106.91 70.9061C107.834 71.2229 108.956 71.0601 110.025 70.7697C110.576 70.6466 111.101 70.4245 111.574 70.1141C111.803 69.951 111.995 69.741 112.137 69.4981C112.268 69.2429 112.329 68.9574 112.313 68.6709C112.307 68.3848 112.208 68.1083 112.031 67.8833C111.942 67.7755 111.826 67.6937 111.694 67.6465C111.562 67.5993 111.42 67.5883 111.283 67.6149C110.996 67.6926 110.748 67.8732 110.585 68.1224C110.423 68.3715 110.358 68.6717 110.403 68.9657C110.462 69.2731 110.597 69.5607 110.796 69.8022C110.995 70.0436 111.252 70.2311 111.543 70.3473C112.169 70.5696 112.842 70.6257 113.496 70.5101C114.879 70.3345 116.199 69.8306 117.346 69.0405C117.628 68.8546 117.84 68.5807 117.949 68.2617C117.991 68.1097 117.977 67.9478 117.909 67.8056C117.841 67.6634 117.724 67.5504 117.58 67.4873C117.434 67.4176 117.272 67.3894 117.111 67.4057C116.951 67.422 116.798 67.4822 116.669 67.5797C116.545 67.6964 116.446 67.8368 116.377 67.9924C116.308 68.1481 116.271 68.3159 116.268 68.4861C116.262 68.7668 116.314 69.0458 116.421 69.3055C116.528 69.5652 116.687 69.8001 116.889 69.9953C117.291 70.3923 117.797 70.667 118.35 70.7873C119.458 71.0425 120.598 70.7345 121.663 70.4309C122.194 70.3108 122.703 70.1089 123.172 69.8325C123.39 69.6928 123.572 69.5045 123.704 69.2825C123.823 69.0592 123.884 68.8094 123.88 68.5565C123.885 68.3108 123.8 68.0718 123.643 67.8833C123.567 67.7979 123.471 67.7338 123.362 67.6976C123.254 67.6613 123.139 67.654 123.027 67.6765C122.8 67.7541 122.6 67.8962 122.453 68.0852C122.305 68.2743 122.216 68.5022 122.195 68.7413C122.191 68.9801 122.246 69.2162 122.355 69.4287C122.464 69.6413 122.624 69.8237 122.82 69.9601C123.207 70.2564 123.66 70.4542 124.14 70.5365C125.06 70.7062 126.009 70.6225 126.886 70.2945C127.708 69.9954 128.444 69.4982 129.028 68.8469C129.312 68.5609 129.51 68.2012 129.6 67.8085C129.652 67.6333 129.635 67.4452 129.554 67.2819C129.472 67.1186 129.331 66.9923 129.16 66.9285C128.992 66.8779 128.812 66.8789 128.644 66.9315C128.477 66.984 128.328 67.0857 128.219 67.2233C128.12 67.3618 128.05 67.5192 128.015 67.6858C127.979 67.8523 127.978 68.0244 128.012 68.1913C128.083 68.5054 128.226 68.7989 128.429 69.0491C128.632 69.2994 128.89 69.4996 129.182 69.6345C130.119 70.1233 131.144 70.4223 132.196 70.5145C132.863 70.5683 133.533 70.5447 134.194 70.4441L134.709 70.3473C134.755 70.3371 134.802 70.3298 134.85 70.3253Z" fill="#DB2228"/>
<path d="M177.896 69.8017C177.721 69.9118 177.535 70.0032 177.342 70.0745C176.79 70.2996 176.203 70.4234 175.608 70.4397C174.661 70.4737 173.723 70.255 172.889 69.8061C172.353 69.5409 171.898 69.1386 171.569 68.6401C171.387 68.3565 171.304 68.021 171.331 67.6853C171.35 67.5075 171.406 67.3355 171.493 67.1797C171.581 67.0239 171.7 66.8875 171.842 66.7789C171.995 66.6597 172.184 66.5975 172.378 66.6029C172.577 66.6096 172.767 66.6895 172.911 66.8273C173.048 66.9701 173.151 67.1419 173.213 67.3301C173.275 67.5182 173.293 67.7178 173.267 67.9141C173.196 68.3112 173.002 68.676 172.713 68.9569C172.428 69.244 172.105 69.4912 171.754 69.6917C171.019 70.1245 170.196 70.3876 169.347 70.4617C168.438 70.5662 167.518 70.3961 166.707 69.9733C166.282 69.7451 165.929 69.404 165.686 68.9877C165.565 68.7697 165.486 68.5309 165.453 68.2837C165.428 67.8995 165.528 67.5176 165.736 67.1938C165.944 66.87 166.25 66.6213 166.61 66.4841C166.741 66.4433 166.878 66.4293 167.014 66.4429C167.15 66.4565 167.282 66.4975 167.402 66.5633C167.638 66.6961 167.824 66.9034 167.93 67.1529C168.034 67.3988 168.083 67.6646 168.073 67.9314C168.063 68.1983 167.995 68.4597 167.873 68.6973C167.624 69.1616 167.264 69.5575 166.826 69.8501C165.953 70.4542 164.931 70.8073 163.871 70.8709C162.811 70.9345 161.754 70.7062 160.815 70.2109C160.352 69.9757 159.932 69.6632 159.574 69.2869C159.197 68.9114 158.977 68.4064 158.958 67.8745C158.964 67.6063 159.046 67.3455 159.196 67.1231C159.346 66.9007 159.557 66.7262 159.803 66.6205C159.933 66.5695 160.073 66.5512 160.211 66.5673C160.349 66.5835 160.481 66.6334 160.595 66.7129C160.812 66.869 160.968 67.0963 161.035 67.3553C161.097 67.5997 161.103 67.855 161.052 68.1019C161.001 68.3489 160.894 68.581 160.74 68.7809C160.456 69.1584 160.113 69.4882 159.724 69.7577C159.021 70.278 158.215 70.6434 157.361 70.83C156.506 71.0166 155.621 71.02 154.765 70.8401C153.969 70.6962 153.253 70.2676 152.75 69.6345C152.517 69.3259 152.386 68.952 152.376 68.5653C152.365 68.1957 152.457 67.8304 152.64 67.5093C152.725 67.352 152.841 67.2135 152.981 67.1023C153.121 66.9912 153.282 66.9096 153.454 66.8625C153.62 66.8252 153.792 66.8251 153.958 66.8624C154.124 66.8997 154.279 66.9734 154.413 67.0781C154.652 67.2676 154.838 67.5162 154.952 67.7993C155.067 68.0824 155.105 68.3903 155.064 68.6929C154.974 69.213 154.697 69.6823 154.286 70.0129C153.952 70.2909 153.559 70.4895 153.137 70.5937C152.56 70.7234 151.966 70.7605 151.377 70.7037L150.937 70.6641C150.886 70.6705 150.834 70.6705 150.783 70.6641C150.834 70.6582 150.886 70.6582 150.937 70.6641H151.399C151.99 70.7021 152.583 70.6516 153.159 70.5145C153.564 70.4044 153.94 70.2061 154.259 69.9337C154.637 69.6007 154.88 69.1403 154.941 68.6401C154.974 68.3623 154.936 68.0807 154.83 67.822C154.723 67.5632 154.553 67.3359 154.334 67.1617C154.215 67.0723 154.079 67.0099 153.934 66.9787C153.789 66.9475 153.638 66.9484 153.494 66.9813C153.343 67.0266 153.203 67.1012 153.081 67.2009C152.96 67.3006 152.859 67.4233 152.785 67.5621C152.612 67.8601 152.53 68.2024 152.55 68.5466C152.569 68.8907 152.689 69.2216 152.895 69.4981C153.377 70.091 154.057 70.4907 154.809 70.6245C155.639 70.7991 156.496 70.7961 157.324 70.6156C158.152 70.4351 158.932 70.0812 159.614 69.5773C159.981 69.3171 160.305 69.0008 160.573 68.6401C160.708 68.4666 160.802 68.2647 160.847 68.0497C160.892 67.8347 160.887 67.6122 160.833 67.3993C160.781 67.1908 160.658 67.007 160.485 66.8801C160.4 66.8203 160.302 66.7826 160.199 66.7703C160.096 66.7581 159.992 66.7716 159.896 66.8097C159.691 66.9001 159.516 67.0472 159.392 67.2334C159.269 67.4197 159.2 67.6376 159.196 67.8613C159.218 68.3346 159.418 68.7822 159.755 69.1153C160.098 69.4725 160.498 69.77 160.938 69.9953C161.843 70.4643 162.856 70.6816 163.873 70.6245C164.89 70.5655 165.871 70.2258 166.707 69.6433C167.119 69.3813 167.461 69.0216 167.701 68.5961C167.808 68.3884 167.868 68.1601 167.878 67.9269C167.888 67.6937 167.847 67.4612 167.758 67.2453C167.683 67.038 167.533 66.8664 167.338 66.7646C167.142 66.6627 166.915 66.638 166.702 66.6953C166.392 66.8178 166.128 67.0351 165.948 67.3163C165.767 67.5975 165.681 67.9283 165.699 68.2617C165.728 68.4798 165.798 68.6903 165.906 68.8821C166.128 69.2655 166.453 69.5794 166.843 69.7885C167.612 70.1919 168.484 70.3573 169.347 70.2637C170.164 70.1899 170.954 69.936 171.661 69.5201C171.999 69.3309 172.31 69.0971 172.585 68.8249C172.849 68.5716 173.027 68.2425 173.096 67.8833C173.119 67.7139 173.105 67.5414 173.053 67.3785C173.001 67.2156 172.913 67.0663 172.796 66.9417C172.683 66.8321 172.533 66.7676 172.375 66.7604C172.217 66.7531 172.062 66.8034 171.938 66.9021C171.817 66.9987 171.715 67.1184 171.64 67.2543C171.564 67.3902 171.516 67.5396 171.498 67.6941C171.474 68.0024 171.548 68.3106 171.71 68.5741C172.026 69.0512 172.461 69.4378 172.972 69.6961C173.779 70.1447 174.69 70.3724 175.612 70.3561C176.198 70.3454 176.778 70.2384 177.328 70.0393C177.707 69.8985 177.887 69.7885 177.896 69.8017Z" fill="#DB2228"/>
<path d="M136.99 89.2364C136.937 89.2702 136.881 89.2982 136.822 89.3201L136.316 89.5489C135.876 89.7469 135.212 90.0372 134.345 90.3628C133.291 90.7699 132.196 91.0649 131.08 91.2428C130.381 91.3451 129.675 91.3878 128.968 91.3704C128.171 91.3857 127.377 91.2667 126.619 91.0184C126.194 90.874 125.81 90.6295 125.499 90.3056C125.188 89.9817 124.959 89.5879 124.832 89.1573C124.767 88.9233 124.749 88.6787 124.78 88.4378C124.81 88.1969 124.888 87.9643 125.008 87.7537C125.13 87.5296 125.304 87.3382 125.515 87.1957C125.727 87.0532 125.969 86.9639 126.223 86.9353C126.49 86.9307 126.753 87.0056 126.978 87.1505C127.203 87.2954 127.379 87.5038 127.486 87.7493C127.726 88.2369 127.765 88.7992 127.596 89.3157C127.411 89.8293 127.094 90.2849 126.676 90.6356C126.258 90.9905 125.793 91.2865 125.294 91.5156C124.266 92.05 123.078 92.1893 121.955 91.9072C121.373 91.7279 120.851 91.3956 120.442 90.945C120.034 90.4945 119.754 89.9424 119.632 89.3464C119.579 89.0392 119.579 88.7253 119.632 88.4181C119.674 88.0954 119.805 87.7908 120.01 87.5381C120.107 87.4009 120.233 87.2863 120.379 87.202C120.525 87.1177 120.687 87.0658 120.855 87.0497C121.033 87.0463 121.208 87.0994 121.354 87.2013C121.5 87.3033 121.61 87.4489 121.669 87.6173C121.753 87.934 121.767 88.2651 121.711 88.588C121.655 88.9108 121.529 89.2176 121.343 89.4873C121.018 90.0404 120.602 90.5344 120.111 90.948C119.146 91.7737 117.913 92.2187 116.644 92.1992C115.374 92.1798 114.155 91.6973 113.216 90.8424C112.765 90.4228 112.457 89.8717 112.336 89.2673C112.276 88.9624 112.296 88.6471 112.394 88.3521C112.501 88.0627 112.677 87.8043 112.908 87.5997C113.137 87.3904 113.424 87.2567 113.731 87.2169C113.888 87.1942 114.049 87.2065 114.201 87.2529C114.353 87.2993 114.493 87.3786 114.611 87.4853C114.817 87.7006 114.962 87.9671 115.031 88.2571C115.1 88.5471 115.09 88.8502 115.003 89.1353C114.831 89.6702 114.516 90.148 114.092 90.5168C113.701 90.8807 113.272 91.2009 112.812 91.4716C111.931 91.9919 110.953 92.3244 109.938 92.4484C108.99 92.5735 108.025 92.4879 107.114 92.1976C106.68 92.0523 106.283 91.8135 105.952 91.498C105.631 91.1927 105.412 90.7966 105.323 90.3628C105.227 89.9491 105.267 89.5157 105.437 89.1264C105.518 88.9388 105.646 88.7747 105.807 88.6493C105.969 88.5239 106.159 88.4413 106.361 88.4092C106.551 88.3804 106.744 88.3917 106.929 88.4425C107.114 88.4933 107.286 88.5824 107.435 88.7041C107.575 88.8208 107.68 88.9734 107.74 89.1454C107.799 89.3175 107.811 89.5026 107.774 89.6809C107.7 90.0058 107.522 90.2979 107.268 90.5125C107.043 90.7091 106.793 90.8748 106.524 91.0052C106.06 91.2351 105.575 91.4207 105.076 91.5596C104.389 91.7565 103.679 91.8615 102.964 91.872C102.716 91.8809 102.467 91.8706 102.221 91.8412H102.41C102.538 91.8412 102.722 91.8412 102.964 91.8412C103.671 91.8094 104.372 91.6911 105.05 91.4892C105.541 91.3419 106.018 91.152 106.476 90.9216C106.734 90.7933 106.974 90.6305 107.188 90.4376C107.413 90.2356 107.567 89.9675 107.628 89.6721C107.66 89.5156 107.648 89.3535 107.595 89.2032C107.541 89.0528 107.448 88.9198 107.325 88.8185C107.19 88.7125 107.035 88.6353 106.869 88.5914C106.704 88.5475 106.531 88.5379 106.361 88.5633C106.184 88.5935 106.016 88.6683 105.876 88.7806C105.735 88.893 105.625 89.0392 105.556 89.2057C105.402 89.5638 105.369 89.9619 105.459 90.3409C105.566 90.748 105.779 91.1198 106.076 91.4187C106.372 91.7176 106.742 91.9332 107.149 92.0436C108.034 92.3225 108.971 92.4006 109.89 92.2724C111.401 92.0833 112.813 91.421 113.925 90.3804C114.322 90.0374 114.618 89.5913 114.778 89.0912C114.854 88.8439 114.863 88.5809 114.804 88.329C114.746 88.077 114.621 87.8451 114.444 87.6569C114.237 87.4994 113.979 87.4248 113.72 87.4475C113.462 87.4703 113.221 87.5889 113.045 87.7801C112.847 87.96 112.696 88.1849 112.605 88.4357C112.52 88.6955 112.503 88.9727 112.556 89.2409C112.675 89.7998 112.966 90.3075 113.388 90.6928C114.288 91.5094 115.455 91.9693 116.67 91.9863C117.886 92.0033 119.065 91.5763 119.988 90.7852C120.461 90.3897 120.862 89.9147 121.172 89.3816C121.332 89.1296 121.447 88.851 121.51 88.5589C121.581 88.2789 121.572 87.9846 121.484 87.7097C121.443 87.5834 121.364 87.473 121.258 87.3941C121.151 87.3151 121.023 87.2716 120.89 87.2697C120.755 87.286 120.625 87.3305 120.508 87.4002C120.391 87.4699 120.291 87.5634 120.212 87.6745C120.047 87.9063 119.933 88.1702 119.876 88.4491C119.819 88.728 119.821 89.0157 119.882 89.2937C119.997 89.8488 120.258 90.3632 120.639 90.7833C121.02 91.2034 121.506 91.514 122.047 91.6828C123.119 91.952 124.251 91.8206 125.233 91.3132C126.192 90.8512 127.112 90.1824 127.433 89.2276C127.587 88.7609 127.552 88.2523 127.336 87.8109C127.248 87.5986 127.099 87.4174 126.908 87.2904C126.717 87.1634 126.492 87.0964 126.262 87.0981C126.039 87.1241 125.826 87.2032 125.64 87.3288C125.454 87.4543 125.301 87.6227 125.193 87.8197C125.083 88.0093 125.011 88.2191 124.983 88.4368C124.955 88.6544 124.971 88.8755 125.03 89.0869C125.148 89.4926 125.361 89.8642 125.652 90.1704C125.943 90.4767 126.303 90.7086 126.702 90.8468C127.442 91.0956 128.219 91.2176 128.999 91.2076C129.698 91.2305 130.397 91.1937 131.089 91.0976C132.198 90.9356 133.288 90.6599 134.341 90.2748C135.221 89.9624 135.872 89.6852 136.325 89.5048L136.84 89.2937L136.99 89.2364Z" fill="#DB2228"/>
<path d="M178.7 186.045C178.7 186.045 168.58 174.394 164.752 162.725C160.924 151.056 162.75 152.412 162.75 152.412C162.75 152.412 167.907 163.728 171.823 169.198C175.739 174.667 182.713 182.688 182.713 182.688L178.7 186.045Z" fill="#455A64"/>
<path d="M180.732 154.238C180.664 154.119 180.557 154.027 180.429 153.979C180.3 153.931 180.16 153.929 180.03 153.973C179.9 154.017 179.79 154.105 179.718 154.222C179.647 154.338 179.618 154.476 179.636 154.612C180.252 158.708 181.586 168.313 181.537 174.544C181.467 182.635 181.537 185.764 181.537 185.764H185.739C185.739 185.764 184.991 169.044 184.036 163.931C183.385 160.358 181.968 156.385 180.732 154.238Z" fill="#455A64"/>
<path d="M183.033 184.404C184.798 180.403 185.966 176.165 186.5 171.824C186.848 168.841 186.228 164.815 185.308 159.443C184.949 157.479 184.771 155.486 184.776 153.49C184.776 153.266 184.851 153.049 184.989 152.874C185.127 152.698 185.319 152.573 185.536 152.519C185.753 152.465 185.981 152.485 186.185 152.575C186.39 152.666 186.558 152.822 186.663 153.019C187.169 153.925 188.643 157.023 189.017 158.968C190.038 164.274 191.191 166.927 190.311 171.956C189.431 176.986 186.179 184.743 186.179 184.743L183.033 184.404Z" fill="#455A64"/>
<path d="M186.826 184.743C186.826 184.743 197.945 160.855 198.706 157.309C199.467 153.762 202.094 145.6 202.402 146.062C202.71 146.524 203.176 150.836 201.17 155.769C199.163 160.701 190.61 185.473 190.61 185.473H186.812" fill="#455A64"/>
<path d="M181.815 183.674C181.705 183.613 181.6 183.542 181.503 183.462C181.305 183.313 181.005 183.102 180.623 182.802C179.583 181.973 178.586 181.092 177.635 180.162C174.506 177.078 171.795 173.597 169.57 169.809C167.355 166.021 165.511 162.028 164.065 157.885C163.507 156.297 163.102 154.999 162.833 154.097C162.701 153.657 162.605 153.296 162.539 153.054C162.501 152.935 162.473 152.813 162.455 152.689C162.51 152.802 162.554 152.92 162.587 153.041L162.921 154.07C163.216 154.95 163.647 156.27 164.241 157.828C165.728 161.948 167.587 165.925 169.794 169.708C172.011 173.479 174.691 176.957 177.771 180.061C178.964 181.245 179.971 182.142 180.702 182.745C181.054 183.053 181.344 183.273 181.533 183.436C181.633 183.509 181.727 183.588 181.815 183.674V183.674Z" fill="#263238"/>
<path d="M183.028 172.216C182.979 171.984 182.947 171.749 182.932 171.512L182.725 169.598C182.549 167.983 182.285 165.752 181.88 163.306C181.475 160.86 181.048 158.651 180.71 157.062L180.305 155.179C180.241 154.952 180.2 154.719 180.182 154.484C180.269 154.703 180.339 154.928 180.393 155.157C180.52 155.597 180.683 156.235 180.872 157.027C181.255 158.611 181.722 160.811 182.118 163.266C182.514 165.722 182.76 167.961 182.892 169.58C182.958 170.394 183.002 171.05 183.024 171.508C183.046 171.743 183.048 171.98 183.028 172.216V172.216Z" fill="#263238"/>
<path d="M185.635 152.83C185.689 152.926 185.734 153.028 185.767 153.133C185.85 153.358 185.96 153.652 186.101 154.013C186.242 154.374 186.418 154.871 186.576 155.434C186.735 155.998 186.955 156.627 187.117 157.348L187.395 158.47C187.487 158.862 187.553 159.276 187.637 159.698C187.817 160.547 187.931 161.458 188.077 162.435C188.585 166.642 188.436 170.902 187.637 175.063C187.43 176.013 187.254 176.924 187.012 177.756C186.897 178.174 186.801 178.583 186.682 178.966C186.563 179.348 186.44 179.718 186.325 180.066C186.114 180.774 185.855 181.386 185.648 181.936C185.441 182.486 185.247 182.948 185.071 183.322L184.675 184.202C184.635 184.304 184.584 184.401 184.521 184.492C184.551 184.385 184.588 184.281 184.631 184.18C184.724 183.96 184.838 183.665 184.988 183.3C185.137 182.934 185.335 182.455 185.525 181.905C185.714 181.355 185.965 180.734 186.167 180.03C186.273 179.678 186.387 179.309 186.506 178.93C186.625 178.552 186.713 178.138 186.823 177.72C187.056 176.889 187.223 175.982 187.421 175.036C188.195 170.893 188.343 166.657 187.861 162.47C187.733 161.511 187.628 160.596 187.456 159.751C187.377 159.311 187.315 158.915 187.227 158.523C187.139 158.132 187.051 157.758 186.968 157.401C186.818 156.68 186.616 156.046 186.462 155.487C186.308 154.928 186.158 154.444 186.022 154.053L185.731 153.173C185.686 153.063 185.653 152.947 185.635 152.83V152.83Z" fill="#263238"/>
<path d="M202.289 146.542C202.291 146.577 202.291 146.612 202.289 146.648C202.289 146.731 202.258 146.832 202.236 146.96C202.188 147.228 202.126 147.633 202.016 148.148C201.805 149.178 201.444 150.656 200.89 152.447C200.335 154.238 199.57 156.35 198.69 158.66C197.81 160.97 196.749 163.5 195.764 166.175C194.778 168.85 194.004 171.455 193.265 173.84C192.525 176.224 191.861 178.341 191.205 180.101C190.694 181.494 190.106 182.859 189.445 184.188C189.217 184.659 189.005 185.011 188.878 185.258L188.724 185.53C188.707 185.562 188.686 185.592 188.662 185.618L188.702 185.517C188.741 185.442 188.785 185.346 188.838 185.231C188.957 184.985 189.146 184.624 189.362 184.144C189.802 183.198 190.409 181.808 191.042 180.044C191.676 178.279 192.362 176.15 193.049 173.774C193.735 171.398 194.532 168.78 195.535 166.091C196.538 163.403 197.572 160.886 198.483 158.58C199.394 156.275 200.168 154.18 200.74 152.398C201.312 150.616 201.695 149.147 201.937 148.126C202.06 147.62 202.135 147.22 202.201 146.951C202.227 146.828 202.254 146.727 202.271 146.643C202.272 146.609 202.278 146.575 202.289 146.542V146.542Z" fill="#263238"/>
<path d="M168.007 141.262C167.853 141.117 167.656 141.027 167.445 141.006C167.235 140.985 167.024 141.034 166.844 141.145C166.665 141.257 166.527 141.424 166.452 141.622C166.378 141.82 166.371 142.037 166.432 142.239C166.811 143.469 167.277 144.67 167.827 145.834C169.353 149.081 173.846 160.732 175.945 167.134C178.043 173.536 181.009 185.473 181.009 185.473L185.497 184.743C185.497 184.743 181.392 165.128 177.379 158.057C174.154 152.381 170.933 144.17 168.007 141.262Z" fill="#455A64"/>
<path d="M177.174 171.134C177.273 171.304 177.351 171.486 177.407 171.675C177.539 172.027 177.719 172.555 177.926 173.18C178.34 174.46 178.841 176.26 179.352 178.235C179.862 180.211 180.285 182.028 180.579 183.339C180.716 183.96 180.826 184.479 180.918 184.892C180.971 185.082 181.002 185.277 181.011 185.473C180.929 185.294 180.867 185.107 180.826 184.914C180.72 184.505 180.579 183.99 180.417 183.379C180.073 182.028 179.62 180.255 179.123 178.292C178.626 176.33 178.133 174.517 177.763 173.228L177.323 171.701C177.256 171.517 177.206 171.327 177.174 171.134V171.134Z" fill="#263238"/>
<path d="M183.263 185.108C183.249 185.07 183.24 185.03 183.237 184.989C183.237 184.897 183.211 184.778 183.189 184.633C183.14 184.325 183.101 183.863 183.004 183.278C182.841 182.098 182.564 180.4 182.062 178.328C181.49 175.902 180.789 173.508 179.963 171.156C179.044 168.516 177.887 165.625 176.58 162.655C173.94 156.715 171.3 151.448 169.571 147.55C168.691 145.609 168.018 144.03 167.569 142.916C167.34 142.366 167.177 141.935 167.063 141.64C167.014 141.504 166.975 141.394 166.939 141.306C166.922 141.268 166.91 141.228 166.904 141.187C166.927 141.222 166.947 141.259 166.961 141.297L167.107 141.623C167.239 141.926 167.424 142.349 167.652 142.881C168.128 143.977 168.827 145.548 169.72 147.484C171.48 151.356 174.151 156.609 176.795 162.558C178.115 165.537 179.259 168.414 180.17 171.085C180.985 173.447 181.67 175.851 182.221 178.288C182.597 179.931 182.891 181.592 183.101 183.264C183.18 183.854 183.211 184.316 183.241 184.628C183.241 184.775 183.25 184.894 183.268 184.985C183.272 185.026 183.271 185.067 183.263 185.108Z" fill="#263238"/>
<path d="M185.497 184.743C185.424 184.497 185.372 184.245 185.343 183.99C185.255 183.462 185.136 182.767 184.995 181.927C184.687 180.167 184.212 177.795 183.534 175.186C182.857 172.577 182.104 170.258 181.524 168.586L180.82 166.615C180.722 166.378 180.643 166.134 180.582 165.884C180.711 166.107 180.82 166.342 180.908 166.584C181.101 167.024 181.37 167.702 181.682 168.529C182.493 170.69 183.188 172.893 183.763 175.129C184.343 177.361 184.81 179.621 185.162 181.9C185.29 182.78 185.387 183.484 185.435 183.977C185.473 184.231 185.493 184.486 185.497 184.743V184.743Z" fill="#263238"/>
<path d="M194.708 184.1H177.191V205.44H194.708V184.1Z" fill="#DB2228"/>
<g opacity="0.3">
<path opacity="0.3" d="M194.708 184.1H177.191V205.44H194.708V184.1Z" fill="black"/>
</g>
<path d="M189.119 184.1H173.578V205.44H189.119V184.1Z" fill="#DB2228"/>
<path d="M46.7782 70.9544L46.281 111.047C46.1974 117.863 47.4646 127.895 58.249 127.538C67.5858 126.522 70.063 117.687 70.129 111.324C70.1642 108.306 70.1994 105.789 70.2214 105.481C70.2214 105.481 80.4382 104.645 81.3006 94.5516C81.7186 89.6764 81.7406 79.5608 81.6922 70.4088C81.6537 65.6687 79.832 61.1168 76.5894 57.659C73.3469 54.2012 68.9213 52.091 64.1934 51.7484L63.2166 51.6736C52.6654 51.524 46.6418 60.3988 46.7782 70.9544Z" fill="#FFBE9D"/>
<path d="M70.2269 105.481C70.2269 105.481 63.8337 105.389 57.3613 100.641C57.3613 100.641 60.0277 108.253 70.1741 108.077L70.2269 105.481Z" fill="#EB996E"/>
<path d="M64.4403 74.5448C64.2423 74.7516 63.0763 73.81 61.3823 73.766C59.6883 73.722 58.4299 74.5492 58.2539 74.3336C58.1659 74.2368 58.3727 73.8628 58.9271 73.4756C59.6682 72.9786 60.5478 72.729 61.4395 72.7628C62.3217 72.7852 63.1727 73.0941 63.8639 73.6428C64.3743 74.0696 64.5415 74.4568 64.4403 74.5448Z" fill="#263238"/>
<path d="M64.3931 78.0429C64.3693 78.3984 64.2082 78.7308 63.9438 78.9698C63.6794 79.2087 63.3324 79.3355 62.9763 79.3233C62.6262 79.3233 62.2904 79.1842 62.0429 78.9366C61.7953 78.6891 61.6562 78.3533 61.6562 78.0033C61.6789 77.6481 61.8391 77.3157 62.1028 77.0766C62.3665 76.8376 62.7129 76.7107 63.0687 76.7228C63.2424 76.7223 63.4145 76.756 63.5752 76.8221C63.7358 76.8881 63.8819 76.9853 64.0049 77.1079C64.1279 77.2305 64.2256 77.3763 64.2922 77.5367C64.3588 77.6971 64.3931 77.8691 64.3931 78.0429Z" fill="#263238"/>
<path d="M68.6992 86.306C68.6992 86.218 69.676 86.1212 71.2512 86.0376C71.6516 86.0376 72.0344 85.9716 72.1312 85.7076C72.1956 85.3015 72.1342 84.8854 71.9552 84.5152L70.9652 81.4C69.6452 77 68.7344 73.3656 68.9104 73.3128C69.0864 73.26 70.3008 76.802 71.612 81.2328C71.9288 82.324 72.228 83.358 72.492 84.3524C72.6108 84.8144 72.8308 85.3424 72.5844 85.9232C72.5171 86.0593 72.4194 86.1782 72.2989 86.2705C72.1783 86.3628 72.0382 86.4262 71.8892 86.4556C71.6661 86.4989 71.4384 86.5137 71.2116 86.4996C69.654 86.46 68.6992 86.3984 68.6992 86.306Z" fill="#263238"/>
<path d="M63.7242 68.2001C63.5614 68.5785 62.2062 68.2925 60.587 68.3761C58.9678 68.4597 57.6302 68.8161 57.4454 68.4597C57.3618 68.2837 57.6126 67.9405 58.1626 67.6061C58.8881 67.1923 59.7039 66.9626 60.5386 66.9373C61.3679 66.8935 62.195 67.0568 62.9454 67.4125C63.5174 67.6853 63.7946 68.0109 63.7242 68.2001Z" fill="#263238"/>
<path d="M79.7785 71.3196C79.6025 71.6276 78.2826 71.2888 76.6986 71.2404C75.1146 71.192 73.7726 71.3944 73.6186 71.0732C73.5482 70.9236 73.8122 70.6332 74.3666 70.4044C75.1185 70.1059 75.9258 69.9723 76.7338 70.0128C77.5492 70.0381 78.35 70.236 79.0834 70.5936C79.6026 70.8796 79.8577 71.1744 79.7785 71.3196Z" fill="#263238"/>
<path d="M47.0601 78.496C46.8929 78.408 40.2664 75.9352 39.9848 82.8564C39.7032 89.7776 46.6993 88.638 46.7301 88.44C46.7609 88.242 47.0601 78.496 47.0601 78.496Z" fill="#FFBE9D"/>
<path d="M44.7234 85.7297C44.6926 85.7077 44.5958 85.8089 44.389 85.8925C44.1063 86.0038 43.7918 86.0038 43.509 85.8925C42.7874 85.5933 42.2198 84.4097 42.2374 83.16C42.2448 82.5662 42.3846 81.9814 42.6466 81.4484C42.7207 81.2358 42.8456 81.0444 43.0104 80.8911C43.1753 80.7377 43.3752 80.6269 43.5926 80.5684C43.7319 80.5365 43.878 80.5548 44.0052 80.62C44.1323 80.6852 44.2324 80.7931 44.2878 80.9248C44.3758 81.1228 44.323 81.2592 44.3626 81.2724C44.4022 81.2856 44.5166 81.1624 44.4682 80.8764C44.4377 80.7053 44.3491 80.55 44.2174 80.4364C44.0325 80.2847 43.7959 80.2105 43.5574 80.2296C43.268 80.273 42.9946 80.3901 42.7634 80.5697C42.5322 80.7492 42.3511 80.9851 42.2374 81.2548C41.921 81.8423 41.7505 82.4973 41.7402 83.1644C41.7402 84.5636 42.3914 85.8969 43.377 86.2445C43.5612 86.3048 43.7564 86.3239 43.9488 86.3004C44.1412 86.2768 44.3261 86.2111 44.4902 86.1081C44.7014 85.8969 44.7454 85.7429 44.7234 85.7297Z" fill="#EB996E"/>
<path d="M67.0447 91.102C67.1195 90.926 65.7643 90.5212 64.8095 89.2452C64.4123 88.6883 64.0899 88.0818 63.8503 87.4412C63.6479 86.9352 63.4939 86.6228 63.4103 86.6448C63.3267 86.6668 63.3531 87.0056 63.4675 87.5556C63.6112 88.2859 63.9114 88.9764 64.3475 89.5796C64.7995 90.1824 65.4083 90.6496 66.1075 90.9304C66.6663 91.146 67.0227 91.1592 67.0447 91.102Z" fill="#263238"/>
<path d="M79.859 75.1828C79.6566 75.3852 78.4906 74.448 76.779 74.404C75.0674 74.36 73.8266 75.1872 73.6462 74.9716C73.5582 74.8748 73.7694 74.5008 74.3194 74.1136C75.0606 73.6166 75.9401 73.3671 76.8318 73.4009C77.7154 73.4233 78.5678 73.7321 79.2606 74.2808C79.7886 74.7076 79.9558 75.0904 79.859 75.1828Z" fill="#263238"/>
<path d="M79.5806 78.5356C79.5568 78.8912 79.3957 79.2236 79.1313 79.4625C78.8669 79.7015 78.5199 79.8282 78.1638 79.816C77.8137 79.816 77.4779 79.677 77.2304 79.4294C76.9828 79.1819 76.8438 78.8461 76.8438 78.496C76.8675 78.1405 77.0286 77.8081 77.293 77.5691C77.5574 77.3302 77.9044 77.2034 78.2606 77.2157C78.6106 77.2157 78.9464 77.3547 79.1939 77.6023C79.4415 77.8498 79.5806 78.1856 79.5806 78.5356Z" fill="#263238"/>
<path d="M88.7367 57.0064C88.0491 55.8895 86.9827 55.0571 85.7322 54.6613C84.4817 54.2654 83.1306 54.3326 81.9255 54.8504C82.2349 53.2484 82.0121 51.5892 81.2909 50.1256C80.5697 48.6621 79.3898 47.4745 77.931 46.7438C76.4721 46.0131 74.8144 45.7795 73.2104 46.0785C71.6065 46.3775 70.1443 47.1928 69.0467 48.4C68.9594 47.9719 68.781 47.5676 68.5236 47.2146C68.2663 46.8616 67.9359 46.5681 67.5551 46.354C66.7918 45.9286 65.9449 45.6748 65.0735 45.6104C63.0081 45.3813 60.9188 45.6979 59.0141 46.5287C57.1094 47.3594 55.4559 48.6752 54.2187 50.3448C52.2061 50.106 50.1656 50.3435 48.2618 51.0383C46.3579 51.733 44.644 52.8655 43.2583 54.3444C40.0067 57.948 39.3907 66.2948 42.9547 73.5064L43.7907 78.0252C44.9083 78.0252 45.9291 78.1044 46.6199 78.7204C47.5571 79.5608 47.9751 81.1448 49.5283 80.5464C50.3203 80.2384 51.0419 78.5796 51.2883 77.7744C53.0454 72.4022 53.6276 66.7152 52.9955 61.0984C54.105 59.9164 55.4315 58.9589 56.9027 58.278L56.7839 58.388C59.6043 57.4068 62.7943 56.4432 65.4695 57.7676C67.5463 58.7928 68.7695 60.9488 70.3095 62.6648C71.7424 64.252 73.4819 65.5326 75.4231 66.4294C77.3642 67.3263 79.4669 67.8208 81.6043 67.8832C81.7539 70.7256 81.5163 74.7428 81.6659 77.5632L84.0991 73.04C84.288 72.7148 84.4598 72.3799 84.6139 72.0368L84.6667 71.9312C85.1067 71.5748 85.4323 70.9236 86.1715 70.0788C86.8776 69.2486 87.3425 68.2407 87.5155 67.1646C87.6885 66.0886 87.563 64.9857 87.1527 63.976C88.2103 63.1986 88.9525 62.0663 89.2434 60.7864C89.5343 59.5064 89.3544 58.1645 88.7367 57.0064Z" fill="#263238"/>
<path d="M84.5967 57.1121C84.5967 57.1121 84.6231 57.1605 84.6495 57.2617C84.6852 57.4058 84.7059 57.5533 84.7111 57.7017C84.7336 58.2684 84.5947 58.8299 84.3107 59.3209C84.1095 59.6598 83.8469 59.9582 83.5363 60.2009C83.1673 60.4833 82.7329 60.6679 82.2735 60.7377C81.7395 60.8217 81.1928 60.7658 80.6868 60.5753C80.1809 60.3848 79.7331 60.0663 79.3871 59.6509L79.5587 59.5057C79.7255 59.6882 79.8545 59.9019 79.9383 60.1345C80.0221 60.3671 80.0591 60.6139 80.0471 60.8609C80.0419 61.191 79.9706 61.5168 79.8376 61.8191C79.7047 62.1213 79.5126 62.3939 79.2727 62.6209C78.8175 63.0255 78.243 63.271 77.6359 63.3205C76.6266 63.3941 75.6227 63.1175 74.7935 62.5373C74.2409 62.1622 73.7305 61.7285 73.2711 61.2437C73.095 61.0755 72.9331 60.893 72.7871 60.6981C72.9807 60.8457 73.1631 61.0074 73.3327 61.1821C73.8112 61.6342 74.3295 62.0422 74.8815 62.4009C75.6862 62.9388 76.6492 63.1885 77.6139 63.1093C78.1735 63.0583 78.7022 62.8302 79.1231 62.4581C79.5536 62.0417 79.8033 61.4728 79.8183 60.8741C79.8345 60.4328 79.6765 60.0029 79.3783 59.6773L79.5499 59.5277C79.8706 59.9137 80.2849 60.211 80.7533 60.3913C81.2216 60.5716 81.7284 60.6287 82.2251 60.5573C82.6262 60.4967 83.0085 60.3466 83.3437 60.1181C83.6788 59.8896 83.9582 59.5885 84.1611 59.2373C84.4418 58.7704 84.5936 58.2375 84.6011 57.6929C84.6363 57.3233 84.5791 57.1165 84.5967 57.1121Z" fill="#455A64"/>
<path d="M75.9385 49.5264C75.9385 49.5264 75.9913 49.5264 76.0881 49.5924C76.2217 49.6698 76.3496 49.7566 76.4709 49.852C76.9304 50.2064 77.2911 50.6731 77.5181 51.2072C77.686 51.6106 77.7521 52.0492 77.7107 52.4842C77.6693 52.9193 77.5215 53.3374 77.2805 53.702C76.9892 54.1475 76.5366 54.4629 76.0177 54.582C75.7414 54.6418 75.4559 54.645 75.1783 54.5913C74.9008 54.5376 74.637 54.4281 74.4029 54.2696C74.2584 54.1602 74.1295 54.0314 74.0201 53.8868L74.2181 53.7724C74.318 54.0214 74.3649 54.2886 74.3558 54.5567C74.3467 54.8249 74.2819 55.0883 74.1653 55.33C73.9626 55.7806 73.6073 56.1452 73.1621 56.3596C72.7927 56.5312 72.3903 56.6202 71.983 56.6202C71.5756 56.6202 71.1732 56.5312 70.8038 56.3596C70.3171 56.1348 69.8837 55.8094 69.5322 55.4048C69.3952 55.265 69.2809 55.1047 69.1934 54.9296C69.1934 54.9296 69.3342 55.0836 69.5938 55.3432C69.9571 55.7156 70.3888 56.0144 70.8654 56.2232C71.214 56.3727 71.5903 56.4464 71.9696 56.4396C72.3489 56.4328 72.7223 56.3455 73.0653 56.1836C73.4567 55.9802 73.767 55.6497 73.9453 55.2464C74.0461 55.0327 74.1019 54.8006 74.1095 54.5645C74.1171 54.3284 74.0762 54.0933 73.9893 53.8736L73.6197 53.0244L74.1873 53.7636C74.2803 53.8881 74.3916 53.9979 74.5173 54.0892C74.7249 54.2307 74.9591 54.3287 75.2057 54.3771C75.4522 54.4255 75.706 54.4233 75.9517 54.3708C76.4131 54.2706 76.8182 53.9964 77.0825 53.6052C77.3097 53.2691 77.4521 52.883 77.4973 52.4799C77.5425 52.0768 77.4892 51.6688 77.3421 51.2908C77.1372 50.7726 76.8114 50.311 76.3917 49.9444C76.1189 49.654 75.9253 49.544 75.9385 49.5264Z" fill="#455A64"/>
<path d="M134.7 99.9944L118.706 112.2C118.482 112.372 118.296 112.588 118.158 112.835C118.021 113.082 117.935 113.354 117.907 113.635C117.879 113.916 117.908 114.2 117.993 114.469C118.078 114.738 118.218 114.987 118.403 115.201V115.201C118.749 115.601 119.236 115.853 119.762 115.904C120.289 115.956 120.815 115.803 121.232 115.478L137.072 103.158L139.215 98.9296L134.7 99.9944Z" fill="#DB2228"/>
<path opacity="0.5" d="M137.164 99.4092L138.294 100.729L137.071 103.158C136.924 103.174 136.775 103.155 136.636 103.105C136.497 103.054 136.372 102.972 136.269 102.866C136.166 102.759 136.089 102.631 136.044 102.49C135.998 102.349 135.985 102.2 136.006 102.054C135.862 102.074 135.714 102.057 135.578 102.006C135.441 101.955 135.319 101.871 135.223 101.761C135.127 101.651 135.06 101.518 135.027 101.376C134.995 101.234 134.999 101.085 135.038 100.945C135.038 100.945 134.207 100.87 134.678 99.9944L137.164 99.4092Z" fill="white"/>
<path d="M118.705 112.187L121.327 115.39L122.207 114.708L119.695 111.434L118.705 112.187Z" fill="#263238"/>
<path d="M117.539 142.762L116.963 142.657L128.728 122.091L126.863 116.16C126.863 116.16 124.707 107.716 126.502 105.56C126.502 105.56 130.431 100.932 131.707 100.998C132.983 101.064 134 101.314 134.255 102.274C134.255 102.274 136.424 102.018 136.996 102.714C137.379 103.195 137.72 103.707 138.017 104.245C138.017 104.245 140.375 104.051 141.013 106.093C141.013 106.093 143.244 107.241 143.438 108.896C143.631 110.55 142.998 118.268 142.289 120.243C141.581 122.219 138.972 126.364 138.21 132.484C137.449 138.604 134.748 142.578 132.35 151.518L125.842 154.092L117.539 142.762Z" fill="#FFBE9D"/>
<path d="M134.145 102.142C134.193 102.208 133.384 102.744 132.772 103.734C132.16 104.724 132.015 105.675 131.932 105.662C131.94 104.929 132.149 104.214 132.537 103.593C132.925 102.972 133.477 102.47 134.132 102.142H134.145Z" fill="#EB996E"/>
<path d="M137.89 104.245C137.934 104.315 137.16 104.782 136.548 105.67C135.936 106.559 135.743 107.43 135.668 107.43C135.593 107.43 135.668 106.467 136.332 105.53C136.692 104.939 137.241 104.486 137.89 104.245V104.245Z" fill="#EB996E"/>
<path d="M140.892 106.04C140.94 106.102 140.355 106.616 139.818 107.391C139.281 108.165 138.991 108.891 138.916 108.865C138.983 108.269 139.22 107.706 139.598 107.241C139.903 106.723 140.352 106.306 140.892 106.04V106.04Z" fill="#EB996E"/>
<path d="M129.86 106.709C129.433 106.57 128.989 106.494 128.54 106.484C128.1 106.553 127.673 106.688 127.273 106.885C127.251 106.885 127.335 106.718 127.55 106.559C127.837 106.361 128.172 106.243 128.52 106.22C128.868 106.197 129.215 106.268 129.526 106.427C129.754 106.555 129.86 106.682 129.86 106.709Z" fill="#EB996E"/>
<path d="M134.533 109.644C134.267 109.212 133.939 108.82 133.561 108.482C132.896 107.963 132.175 107.932 132.184 107.853C132.192 107.774 132.364 107.778 132.659 107.813C133.046 107.873 133.412 108.028 133.723 108.266C134.034 108.503 134.281 108.815 134.441 109.173C134.555 109.45 134.564 109.635 134.533 109.644Z" fill="#EB996E"/>
<path d="M139.193 110.638C139.136 110.695 138.621 110.114 137.745 109.886C137.209 109.783 136.661 109.756 136.117 109.806C136.117 109.776 136.271 109.67 136.584 109.595C136.991 109.509 137.414 109.521 137.816 109.63C138.218 109.738 138.589 109.941 138.898 110.22C139.127 110.44 139.215 110.62 139.193 110.638Z" fill="#EB996E"/>
<path d="M20.4803 133.074C20.4803 133.074 13.2599 174.029 13.6163 177.861C13.9727 181.694 15.8823 187.783 20.2163 188.826C22.969 189.441 25.8236 189.441 28.5763 188.826L23.3799 138.521L20.4803 133.074Z" fill="#DB2228"/>
<path d="M41.5967 111.945C41.5967 111.945 32.9639 118.105 31.0367 119.887C23.0551 127.433 21.3875 130.522 20.4767 133.087C19.5659 135.652 26.0207 194.92 26.0207 194.92L27.3407 205.282L87.9155 205.436V152.508L78.8207 115.254L73.2195 113.661L72.0887 109.221C72.0887 109.221 65.1323 104.082 53.6571 103.941C50.1371 103.893 45.1299 105.283 42.3403 107.461L41.5967 111.945Z" fill="#DB2228"/>
<path d="M72.0265 115.408C72.0265 115.408 78.2525 115.13 78.8026 115.254C80.721 115.694 85.9878 120.534 92.0026 126.482C97.7226 132.158 108.995 143.972 108.995 143.972C108.995 143.972 111.019 141.931 113.329 144.659L122.222 131.723C122.222 131.723 135.58 133.36 137.657 143.44C137.657 143.44 133.565 151.254 130.212 156.838C130.212 156.838 117.809 177.426 108.01 173.694C99.0602 170.28 87.8357 161.181 86.2561 159.236L73.0561 149.833C73.0561 149.833 64.0273 132.62 68.0181 124.014L72.0265 115.408Z" fill="#DB2228"/>
<path d="M73.2004 113.661C73.0926 113.651 72.9863 113.629 72.8836 113.595L72.0036 113.357C71.2248 113.159 70.0896 112.886 68.6728 112.618C64.977 111.935 61.2435 111.475 57.4924 111.241C53.7435 110.975 49.98 110.986 46.2328 111.276C44.794 111.399 43.6412 111.58 42.8492 111.716L41.9384 111.896C41.834 111.927 41.7258 111.941 41.6172 111.94C41.7161 111.897 41.8194 111.865 41.9252 111.844L42.8272 111.615C43.9455 111.373 45.0767 111.196 46.2152 111.082C49.9708 110.738 53.7483 110.701 57.51 110.972C61.2686 111.204 65.007 111.692 68.6992 112.433C70.116 112.728 71.2468 113.027 72.0256 113.26L72.9056 113.546C73.0079 113.573 73.1069 113.611 73.2004 113.661V113.661Z" fill="#263238"/>
<path d="M49.6081 110.581C49.5333 110.581 49.3353 109.578 49.1681 108.315C49.0009 107.052 48.9085 106.027 48.9833 106.014C49.2141 106.75 49.3617 107.51 49.4233 108.28C49.5993 109.56 49.6829 110.572 49.6081 110.581Z" fill="#263238"/>
<path d="M51.87 110.387C51.2684 108.934 51.1572 107.324 51.5531 105.802C51.6323 105.802 51.5135 106.841 51.6015 108.104C51.6896 109.366 51.9448 110.365 51.87 110.387Z" fill="#263238"/>
<g opacity="0.3">
<path opacity="0.3" d="M41.793 111.896C51.2706 113.573 60.8802 111.896 70.9121 113.098C61.2322 111.091 51.1386 110.141 41.793 111.896" fill="black"/>
</g>
<g opacity="0.3">
<path opacity="0.3" d="M25.1404 188.905C19.8076 176.414 20.4412 162.298 21.1804 148.742L25.1404 188.905Z" fill="black"/>
</g>
<path d="M20.4794 142.001C20.4939 142.053 20.5027 142.106 20.5058 142.16C20.5058 142.278 20.541 142.432 20.563 142.622C20.607 143.062 20.673 143.647 20.7522 144.412C20.9062 145.983 21.1306 148.227 21.4034 151.012C21.9446 156.565 22.6838 164.243 23.5682 172.713C24.4526 181.183 25.3282 188.844 26.041 194.379C26.3886 197.146 26.6878 199.386 26.921 200.93C27.0222 201.692 27.1014 202.29 27.1542 202.712C27.1806 202.906 27.1982 203.06 27.2114 203.179C27.2162 203.232 27.2162 203.285 27.2114 203.337C27.1936 203.287 27.1818 203.236 27.1762 203.183L27.0926 202.721C27.0266 202.281 26.9298 201.705 26.811 200.961C26.569 199.417 26.239 197.182 25.865 194.418C25.1126 188.888 24.1974 181.218 23.313 172.753C22.4286 164.287 21.7202 156.6 21.2274 151.043C20.9898 148.276 20.7874 146.027 20.6598 144.443C20.6026 143.678 20.5542 143.079 20.5234 142.652C20.5234 142.459 20.5234 142.305 20.4926 142.182C20.4808 142.122 20.4764 142.062 20.4794 142.001Z" fill="#263238"/>
<path d="M61.4882 135.3C61.3601 135.32 61.2304 135.327 61.101 135.322H59.979C59.011 135.322 57.603 135.322 55.8694 135.37C52.3978 135.45 47.6062 135.705 42.3481 136.325C37.0901 136.946 32.3689 137.843 28.9765 138.6C27.2781 138.965 25.8965 139.282 24.9681 139.515L23.8769 139.77C23.7515 139.805 23.6235 139.828 23.4941 139.841C23.6134 139.789 23.7371 139.747 23.8637 139.718L24.9417 139.414C25.8789 139.15 27.2429 138.807 28.9369 138.415C37.7721 136.384 46.8 135.309 55.865 135.208C57.625 135.208 59.011 135.208 59.9834 135.243L61.101 135.287C61.2302 135.281 61.3597 135.285 61.4882 135.3V135.3Z" fill="#263238"/>
<path d="M38.2291 148.562C38.1543 148.562 38.2951 142.89 38.5371 135.898C38.7791 128.907 39.0431 123.235 39.1179 123.24C39.1927 123.244 39.0519 128.911 38.8055 135.907C38.5591 142.903 38.2995 148.566 38.2291 148.562Z" fill="#263238"/>
<path d="M69.1842 147.862C69.1019 147.748 69.027 147.629 68.9598 147.506C68.8044 147.245 68.602 146.897 68.3526 146.463L66.1174 142.622C64.9865 140.73 64.0476 138.73 63.3146 136.651C62.9084 135.409 62.6283 134.13 62.4786 132.832C62.3509 131.435 62.3509 130.03 62.4786 128.634C62.6644 125.928 63.3413 123.279 64.4762 120.815C64.9977 119.749 65.6623 118.758 66.4518 117.872C67.1463 117.107 67.9428 116.443 68.819 115.896C70.0809 115.085 71.5251 114.601 73.021 114.488C73.5653 114.443 74.1133 114.474 74.649 114.58C74.1097 114.552 73.5692 114.552 73.0298 114.58C71.5621 114.728 70.152 115.23 68.9202 116.041C68.066 116.589 67.2903 117.251 66.6146 118.008C65.8483 118.885 65.2044 119.862 64.7006 120.912C63.5896 123.352 62.9264 125.972 62.7426 128.647C62.6193 130.025 62.6193 131.41 62.7426 132.788C62.8883 134.068 63.1595 135.331 63.5522 136.558C64.2714 138.627 65.1863 140.622 66.2846 142.516L68.445 146.397L69.0126 147.466C69.0816 147.593 69.1391 147.725 69.1842 147.862Z" fill="#263238"/>
<g opacity="0.3">
<path opacity="0.3" d="M24.4754 139.792C28.3033 139.594 32.1096 139.092 35.8582 138.292C35.3956 139.948 35.1807 141.664 35.2202 143.383C36.4088 142.044 37.2744 140.449 37.7502 138.723C37.8864 139.663 38.2111 140.565 38.7049 141.375C39.1987 142.186 39.8512 142.888 40.6234 143.44C41.0005 141.738 41.0868 139.984 40.8786 138.252C46.5428 137.572 52.169 136.641 57.757 135.458C46.4467 135.184 35.1582 136.589 24.2598 139.625" fill="black"/>
</g>
<path d="M97.2993 168.023C97.2066 167.983 97.1194 167.931 97.0397 167.869L96.3137 167.385C95.6889 166.945 94.7913 166.342 93.6737 165.563C91.4737 164.014 88.4333 161.836 85.1289 159.372C81.8245 156.908 78.8721 154.62 76.7689 152.944C75.7129 152.108 74.8593 151.422 74.2741 150.942L73.6053 150.388C73.5232 150.327 73.448 150.258 73.3809 150.181C73.4708 150.23 73.5562 150.288 73.6361 150.352L74.3313 150.872L76.8701 152.816C79.0129 154.462 81.9785 156.724 85.2829 159.188C88.5873 161.652 91.5793 163.847 93.7793 165.44L96.3665 167.323L97.0661 167.838C97.1487 167.893 97.2267 167.955 97.2993 168.023V168.023Z" fill="#263238"/>
<path d="M112.08 154.524C112.04 154.524 112.08 153.855 111.987 152.794C111.788 150.015 110.951 147.318 109.541 144.914C109 143.994 108.604 143.462 108.634 143.436C108.754 143.539 108.859 143.657 108.947 143.788C109.208 144.122 109.452 144.47 109.677 144.83C111.185 147.219 112.038 149.963 112.15 152.786C112.174 153.209 112.174 153.634 112.15 154.057C112.147 154.215 112.124 154.372 112.08 154.524V154.524Z" fill="#263238"/>
<path d="M114.808 153.525C114.82 153.072 114.857 152.619 114.918 152.17C115 151.085 114.979 149.995 114.856 148.914C114.731 147.832 114.503 146.766 114.174 145.728C113.923 144.927 113.734 144.448 113.76 144.43C113.836 144.527 113.897 144.636 113.941 144.751C114.086 145.052 114.215 145.361 114.328 145.675C115.084 147.757 115.34 149.988 115.076 152.187C115.023 152.605 114.966 152.944 114.913 153.173C114.895 153.295 114.859 153.413 114.808 153.525V153.525Z" fill="#263238"/>
<path d="M135.471 147.862C135.471 147.862 135.471 147.778 135.37 147.695C135.294 147.647 135.232 147.58 135.189 147.501C135.141 147.409 135.106 147.299 135.044 147.193C134.925 146.969 134.63 146.802 134.419 146.476C134.191 146.115 134.013 145.724 133.891 145.314C133.591 144.269 133.075 143.298 132.378 142.463C131.959 141.978 131.505 141.525 131.018 141.108C130.501 140.652 129.953 140.232 129.377 139.854C128.819 139.447 128.23 139.084 127.617 138.767L125.857 137.914C125.302 137.65 124.783 137.377 124.277 137.161L122.869 136.558C122.66 136.478 122.456 136.386 122.258 136.281C122.068 136.171 121.914 136.048 121.756 135.96L121.316 135.718C121.175 135.643 121.056 135.542 120.951 135.476C120.735 135.34 120.546 135.265 120.423 135.199C120.3 135.133 120.238 135.098 120.242 135.089C120.311 135.104 120.377 135.128 120.44 135.159C120.632 135.226 120.819 135.307 120.999 135.401C121.266 135.569 121.546 135.716 121.835 135.841C122.007 135.925 122.17 136.048 122.346 136.145C122.522 136.242 122.742 136.312 122.953 136.404L124.37 136.976C124.876 137.183 125.404 137.456 125.967 137.716L127.727 138.556C128.349 138.875 128.945 139.243 129.509 139.656C130.095 140.038 130.651 140.464 131.172 140.932C131.666 141.357 132.125 141.82 132.545 142.318C133.251 143.177 133.764 144.178 134.05 145.253C134.16 145.653 134.321 146.037 134.529 146.397C134.714 146.705 135 146.885 135.123 147.14C135.189 147.264 135.216 147.378 135.255 147.462C135.291 147.536 135.342 147.602 135.405 147.655C135.515 147.77 135.475 147.871 135.471 147.862Z" fill="#263238"/>
<path d="M79.0226 204.415C78.961 204.415 78.9082 193.283 78.9082 179.551C78.9082 165.818 78.961 154.686 79.0226 154.686C79.0842 154.686 79.137 165.818 79.137 179.551C79.137 193.283 79.0886 204.415 79.0226 204.415Z" fill="#263238"/>
</svg>
