<svg width="136" height="40" viewBox="0 0 136 40" fill="none" xmlns="http://www.w3.org/2000/svg">
<g clip-path="url(#clip0_522_87247)">
<path d="M124.749 7.92969e-06H11.2566C10.8429 7.92969e-06 10.4342 7.92975e-06 10.0216 0.00200793C9.67621 0.00400793 9.33358 0.00981793 8.98488 0.0147079C8.22733 0.0226097 7.47157 0.0816842 6.72416 0.191418C5.9778 0.303541 5.25482 0.514924 4.57967 0.818418C3.90534 1.12448 3.2892 1.52218 2.75357 1.99708C2.21514 2.47064 1.76632 3.01802 1.42436 3.61817C1.08145 4.21712 0.843683 4.85895 0.719258 5.52149C0.593649 6.18319 0.526059 6.85253 0.517092 7.52349C0.506622 7.83009 0.505517 8.13771 0.5 8.44435V31.5586C0.505517 31.8691 0.506622 32.1699 0.517092 32.4805C0.526061 33.1514 0.593652 33.8207 0.719258 34.4824C0.843339 35.1453 1.08112 35.7875 1.42436 36.3867C1.76616 36.9849 2.21505 37.5301 2.75357 38.001C3.28717 38.478 3.90371 38.876 4.57967 39.1797C5.25481 39.484 5.97772 39.6967 6.72416 39.8105C7.4717 39.9194 8.22738 39.9785 8.98488 39.9873C9.33358 39.9941 9.67621 39.998 10.0216 39.998C10.4342 40 10.843 40 11.2566 40H124.749C125.155 40 125.567 40 125.972 39.998C126.316 39.998 126.669 39.9941 127.012 39.9873C127.768 39.9789 128.523 39.9198 129.269 39.8105C130.018 39.6959 130.743 39.4833 131.421 39.1797C132.097 38.8758 132.713 38.4779 133.246 38.001C133.783 37.5282 134.233 36.9835 134.579 36.3867C134.92 35.7871 135.155 35.145 135.277 34.4824C135.403 33.8206 135.473 33.1515 135.487 32.4805C135.491 32.1699 135.491 31.8691 135.491 31.5586C135.5 31.1953 135.5 30.834 135.5 30.4648V9.53614C135.5 9.16993 135.5 8.80665 135.491 8.44435C135.491 8.13771 135.491 7.83009 135.487 7.52345C135.473 6.85243 135.403 6.18324 135.277 5.52145C135.155 4.85929 134.919 4.21751 134.579 3.61813C133.883 2.4152 132.778 1.43603 131.421 0.818328C130.743 0.515575 130.018 0.304248 129.269 0.191328C128.523 0.0811107 127.769 0.0220157 127.012 0.0145679C126.669 0.00968793 126.316 0.00382793 125.972 0.00187793C125.567 -0.00012207 125.155 -0.00012207 124.749 -0.00012207V7.92969e-06Z" fill="#A6A6A6"/>
<path d="M9.93001 39.128C9.58569 39.128 9.24969 39.1241 8.90807 39.1173C8.20037 39.1091 7.49433 39.0546 6.79574 38.9542C6.14433 38.8549 5.5133 38.6702 4.92345 38.4061C4.339 38.1443 3.80594 37.801 3.34469 37.3893C2.87676 36.9825 2.48718 36.5107 2.1914 35.9925C1.89236 35.471 1.68541 34.912 1.57775 34.335C1.46149 33.715 1.39859 33.088 1.38959 32.4596C1.38243 32.2487 1.37305 31.5463 1.37305 31.5463V8.44092C1.37305 8.44092 1.38304 7.74936 1.38965 7.54619C1.39827 6.91874 1.4608 6.29278 1.57671 5.67373C1.68457 5.09513 1.89168 4.53451 2.19088 4.01128C2.48557 3.49349 2.87299 3.02131 3.3381 2.61304C3.80269 2.20089 4.33745 1.85581 4.92289 1.59036C5.51139 1.32718 6.14123 1.14378 6.79132 1.0463C7.49221 0.944847 8.2007 0.889995 8.91085 0.882208L9.93056 0.869995H126.07L127.102 0.882698C127.806 0.890099 128.508 0.944461 129.202 1.04532C129.859 1.14403 130.495 1.32871 131.09 1.59329C132.263 2.12824 133.218 2.9746 133.82 4.01372C134.114 4.53334 134.318 5.08938 134.424 5.66299C134.542 6.28712 134.607 6.918 134.621 7.55059C134.624 7.83385 134.624 8.13811 134.624 8.44092C134.633 8.816 134.633 9.173 134.633 9.53294V30.466C134.633 30.8294 134.633 31.1839 134.624 31.5414C134.624 31.8667 134.624 32.1646 134.62 32.4713C134.607 33.0926 134.542 33.7122 134.427 34.3252C134.321 34.9064 134.115 35.4697 133.816 35.9955C133.518 36.5081 133.131 36.9758 132.669 37.3815C132.207 37.7954 131.673 38.1407 131.087 38.4042C130.494 38.6703 129.858 38.8557 129.202 38.9542C128.504 39.0551 127.797 39.1097 127.09 39.1173C126.759 39.1241 126.412 39.128 126.076 39.128L124.85 39.13L9.93001 39.128Z" fill="black"/>
<path d="M33.2973 20.3006C33.3081 19.4659 33.5298 18.6475 33.9418 17.9216C34.3538 17.1956 34.9428 16.5857 35.6539 16.1485C35.2021 15.5034 34.6062 14.9724 33.9134 14.5979C33.2205 14.2233 32.4499 14.0155 31.6627 13.9908C29.9835 13.8146 28.3555 14.9957 27.4998 14.9957C26.6275 14.9957 25.31 14.0083 23.8913 14.0375C22.9736 14.0672 22.0793 14.334 21.2954 14.8121C20.5115 15.2901 19.8649 15.9631 19.4184 16.7654C17.4844 20.1138 18.927 25.0349 20.7796 27.7415C21.7065 29.0668 22.7898 30.5473 24.2072 30.4948C25.5943 30.4372 26.1123 29.6103 27.7866 29.6103C29.4454 29.6103 29.9314 30.4948 31.3776 30.4614C32.866 30.4372 33.8038 29.1302 34.6981 27.7923C35.3641 26.8479 35.8766 25.8042 36.2166 24.6997C35.3518 24.334 34.6139 23.7218 34.0948 22.9395C33.5757 22.1572 33.2983 21.2394 33.2973 20.3006V20.3006Z" fill="white"/>
<path d="M30.5649 12.2108C31.3764 11.2366 31.7763 9.98445 31.6794 8.72021C30.4396 8.85044 29.2943 9.44299 28.4719 10.3798C28.0697 10.8375 27.7617 11.3699 27.5655 11.9467C27.3692 12.5235 27.2886 13.1333 27.3281 13.7412C27.9483 13.7476 28.5618 13.6132 29.1225 13.3481C29.6831 13.083 30.1763 12.6942 30.5649 12.2108Z" fill="white"/>
<path d="M50.8301 27.1397H46.0967L44.96 30.4961H42.9551L47.4385 18.0781H49.5215L54.0049 30.4961H51.9658L50.8301 27.1397ZM46.5869 25.5908H50.3389L48.4893 20.1436H48.4375L46.5869 25.5908Z" fill="white"/>
<path d="M63.6866 25.9698C63.6866 28.7833 62.1807 30.5909 59.9082 30.5909C59.3326 30.621 58.7601 30.4884 58.2563 30.2083C57.7525 29.9281 57.3378 29.5118 57.0596 29.0069H57.0166V33.4913H55.1582V21.4425H56.9571V22.9483H56.9912C57.2822 22.4459 57.7039 22.0317 58.2116 21.7498C58.7192 21.468 59.2937 21.329 59.8741 21.3477C62.1719 21.3477 63.6866 23.1641 63.6866 25.9698ZM61.7764 25.9698C61.7764 24.1368 60.8291 22.9317 59.3838 22.9317C57.9639 22.9317 57.0088 24.1622 57.0088 25.9698C57.0088 27.794 57.9639 29.0157 59.3838 29.0157C60.8291 29.0157 61.7764 27.8194 61.7764 25.9698Z" fill="white"/>
<path d="M73.6514 25.9698C73.6514 28.7833 72.1455 30.5909 69.8731 30.5909C69.2974 30.621 68.7249 30.4884 68.2211 30.2083C67.7173 29.9281 67.3026 29.5118 67.0244 29.0069H66.9814V33.4913H65.123V21.4425H66.9219V22.9483H66.956C67.247 22.4459 67.6687 22.0317 68.1764 21.7498C68.684 21.468 69.2585 21.329 69.8389 21.3477C72.1367 21.3477 73.6514 23.1641 73.6514 25.9698ZM71.7412 25.9698C71.7412 24.1368 70.794 22.9317 69.3487 22.9317C67.9287 22.9317 66.9737 24.1622 66.9737 25.9698C66.9737 27.794 67.9287 29.0157 69.3487 29.0157C70.794 29.0157 71.7412 27.8194 71.7412 25.9698H71.7412Z" fill="white"/>
<path d="M80.2383 27.0362C80.376 28.2676 81.5723 29.0762 83.2071 29.0762C84.7735 29.0762 85.9004 28.2676 85.9004 27.1572C85.9004 26.1934 85.2207 25.6162 83.6114 25.2207L82.002 24.833C79.7217 24.2822 78.6631 23.2158 78.6631 21.4854C78.6631 19.3428 80.5303 17.8711 83.1817 17.8711C85.8057 17.8711 87.6045 19.3428 87.6651 21.4854H85.7891C85.6768 20.2461 84.6524 19.4981 83.1553 19.4981C81.6582 19.4981 80.6338 20.2549 80.6338 21.3565C80.6338 22.2344 81.2881 22.751 82.8887 23.1465L84.2568 23.4824C86.8047 24.0849 87.8633 25.1084 87.8633 26.9248C87.8633 29.248 86.0127 30.7031 83.0693 30.7031C80.3154 30.7031 78.4561 29.2822 78.3359 27.0361L80.2383 27.0362Z" fill="white"/>
<path d="M91.875 19.2998V21.4424H93.5967V22.9141H91.875V27.9053C91.875 28.6807 92.2197 29.042 92.9766 29.042C93.1809 29.0384 93.385 29.0241 93.5879 28.999V30.4619C93.2476 30.5255 92.9018 30.5543 92.5557 30.5478C90.7227 30.5478 90.0078 29.8593 90.0078 28.1035V22.9141H88.6914V21.4424H90.0078V19.2998H91.875Z" fill="white"/>
<path d="M94.5938 25.9697C94.5938 23.1211 96.2715 21.3311 98.8877 21.3311C101.513 21.3311 103.183 23.1211 103.183 25.9697C103.183 28.8262 101.521 30.6084 98.8877 30.6084C96.2548 30.6084 94.5938 28.8262 94.5938 25.9697ZM101.289 25.9697C101.289 24.0156 100.394 22.8623 98.8877 22.8623C97.3818 22.8623 96.4873 24.0244 96.4873 25.9697C96.4873 27.9316 97.3818 29.0762 98.8877 29.0762C100.394 29.0762 101.289 27.9316 101.289 25.9697H101.289Z" fill="white"/>
<path d="M104.713 21.4424H106.485V22.9834H106.528C106.648 22.5021 106.93 22.0768 107.327 21.7789C107.723 21.481 108.21 21.3287 108.706 21.3476C108.92 21.3469 109.134 21.3702 109.343 21.417V23.1553C109.072 23.0726 108.79 23.0347 108.508 23.043C108.238 23.032 107.969 23.0796 107.719 23.1825C107.469 23.2854 107.244 23.4411 107.06 23.639C106.876 23.8369 106.737 24.0723 106.653 24.3289C106.569 24.5856 106.541 24.8575 106.571 25.126V30.4961H104.713L104.713 21.4424Z" fill="white"/>
<path d="M117.913 27.8369C117.663 29.4805 116.062 30.6084 114.015 30.6084C111.381 30.6084 109.746 28.8437 109.746 26.0127C109.746 23.1729 111.39 21.3311 113.937 21.3311C116.441 21.3311 118.017 23.0518 118.017 25.7969V26.4336H111.622V26.5459C111.593 26.8791 111.634 27.2148 111.744 27.5306C111.855 27.8464 112.031 28.1352 112.261 28.3778C112.491 28.6203 112.771 28.8111 113.081 28.9374C113.39 29.0637 113.723 29.1226 114.058 29.1103C114.497 29.1515 114.937 29.0498 115.314 28.8203C115.691 28.5909 115.984 28.246 116.148 27.8369L117.913 27.8369ZM111.631 25.1348H116.157C116.174 24.8352 116.128 24.5354 116.024 24.2541C115.919 23.9729 115.757 23.7164 115.549 23.5006C115.34 23.2849 115.09 23.1145 114.812 23.0003C114.535 22.8861 114.237 22.8305 113.937 22.8369C113.634 22.8351 113.334 22.8933 113.054 23.008C112.774 23.1227 112.519 23.2918 112.305 23.5054C112.091 23.7191 111.921 23.973 111.805 24.2527C111.689 24.5323 111.63 24.8321 111.631 25.1348V25.1348Z" fill="white"/>
<path d="M46.3545 8.73101C46.7441 8.70305 47.1351 8.76191 47.4992 8.90335C47.8633 9.04478 48.1915 9.26526 48.4601 9.54889C48.7286 9.83251 48.9309 10.1722 49.0523 10.5435C49.1737 10.9148 49.2112 11.3083 49.1621 11.6959C49.1621 13.6021 48.1318 14.6979 46.3545 14.6979H44.1992V8.73101H46.3545ZM45.126 13.854H46.251C46.5294 13.8707 46.808 13.825 47.0665 13.7204C47.3251 13.6158 47.557 13.4548 47.7455 13.2493C47.934 13.0437 48.0743 12.7987 48.1562 12.5321C48.238 12.2655 48.2594 11.9839 48.2187 11.708C48.2564 11.4332 48.2329 11.1534 48.1498 10.8887C48.0667 10.6241 47.926 10.3811 47.738 10.1771C47.5499 9.97322 47.3191 9.81341 47.062 9.70917C46.8049 9.60494 46.528 9.55885 46.251 9.57422H45.126V13.854Z" fill="white"/>
<path d="M50.2093 12.4444C50.181 12.1485 50.2148 11.8499 50.3086 11.5679C50.4025 11.2858 50.5542 11.0264 50.7542 10.8065C50.9541 10.5865 51.1978 10.4107 51.4697 10.2904C51.7415 10.1702 52.0355 10.108 52.3328 10.108C52.6301 10.108 52.9241 10.1702 53.1959 10.2904C53.4678 10.4107 53.7115 10.5865 53.9114 10.8065C54.1114 11.0264 54.2631 11.2858 54.357 11.5679C54.4508 11.8499 54.4846 12.1485 54.4563 12.4444C54.4852 12.7406 54.4517 13.0396 54.3581 13.3221C54.2645 13.6047 54.1129 13.8645 53.9129 14.0849C53.7129 14.3053 53.469 14.4814 53.1969 14.602C52.9248 14.7225 52.6304 14.7848 52.3328 14.7848C52.0352 14.7848 51.7408 14.7225 51.4687 14.602C51.1966 14.4814 50.9527 14.3053 50.7527 14.0849C50.5527 13.8645 50.4011 13.6047 50.3075 13.3221C50.2139 13.0396 50.1804 12.7406 50.2093 12.4444ZM53.5423 12.4444C53.5423 11.4683 53.1038 10.8975 52.3343 10.8975C51.5618 10.8975 51.1273 11.4683 51.1273 12.4444C51.1273 13.4283 51.5618 13.9947 52.3343 13.9947C53.1038 13.9947 53.5423 13.4244 53.5423 12.4444H53.5423Z" fill="white"/>
<path d="M60.1016 14.6978H59.1797L58.249 11.3813H58.1787L57.252 14.6978H56.3389L55.0977 10.1948H55.999L56.8057 13.6308H56.8721L57.7979 10.1948H58.6504L59.5762 13.6308H59.6465L60.4492 10.1948H61.3379L60.1016 14.6978Z" fill="white"/>
<path d="M62.3809 10.1949H63.2363V10.9102H63.3027C63.4154 10.6533 63.6054 10.4379 63.8463 10.2941C64.0871 10.1503 64.3669 10.0852 64.6465 10.1079C64.8656 10.0915 65.0856 10.1245 65.2902 10.2046C65.4948 10.2847 65.6787 10.4098 65.8284 10.5707C65.9781 10.7315 66.0897 10.924 66.1549 11.1338C66.2201 11.3436 66.2372 11.5654 66.2051 11.7827V14.6977H65.3164V12.0059C65.3164 11.2823 65.002 10.9224 64.3447 10.9224C64.196 10.9155 64.0475 10.9408 63.9094 10.9966C63.7714 11.0525 63.647 11.1375 63.5449 11.2459C63.4428 11.3543 63.3653 11.4834 63.3177 11.6246C63.2702 11.7657 63.2538 11.9154 63.2695 12.0635V14.6978H62.3809L62.3809 10.1949Z" fill="white"/>
<path d="M67.6211 8.43701H68.5098V14.6978H67.6211V8.43701Z" fill="white"/>
<path d="M69.7463 12.4444C69.7181 12.1484 69.7519 11.8499 69.8458 11.5678C69.9397 11.2857 70.0914 11.0263 70.2914 10.8064C70.4914 10.5864 70.7351 10.4106 71.007 10.2903C71.2788 10.17 71.5728 10.1079 71.8701 10.1079C72.1674 10.1079 72.4614 10.17 72.7333 10.2903C73.0052 10.4106 73.2489 10.5864 73.4489 10.8064C73.6488 11.0263 73.8006 11.2857 73.8945 11.5678C73.9883 11.8499 74.0222 12.1484 73.9939 12.4444C74.0227 12.7406 73.9892 13.0396 73.8956 13.3221C73.802 13.6046 73.6503 13.8645 73.4503 14.0849C73.2503 14.3053 73.0064 14.4814 72.7342 14.6019C72.4621 14.7225 72.1678 14.7847 71.8701 14.7847C71.5725 14.7847 71.2782 14.7225 71.006 14.6019C70.7339 14.4814 70.49 14.3053 70.29 14.0849C70.09 13.8645 69.9383 13.6046 69.8446 13.3221C69.751 13.0396 69.7175 12.7406 69.7463 12.4444ZM73.0793 12.4444C73.0793 11.4683 72.6409 10.8975 71.8713 10.8975C71.0989 10.8975 70.6644 11.4683 70.6644 12.4444C70.6644 13.4283 71.0989 13.9947 71.8713 13.9947C72.6409 13.9947 73.0794 13.4244 73.0794 12.4444H73.0793Z" fill="white"/>
<path d="M74.9297 13.4243C74.9297 12.6138 75.5332 12.1465 76.6045 12.0801L77.8242 12.0098V11.6211C77.8242 11.1455 77.5098 10.877 76.9023 10.877C76.4063 10.877 76.0625 11.0591 75.9639 11.3774H75.1035C75.1943 10.604 75.9219 10.1079 76.9434 10.1079C78.0723 10.1079 78.709 10.6699 78.709 11.6211V14.6978H77.8535V14.0649H77.7832C77.6405 14.2919 77.4401 14.477 77.2025 14.6012C76.9648 14.7254 76.6985 14.7843 76.4307 14.7719C76.2416 14.7916 76.0506 14.7714 75.8698 14.7127C75.6891 14.654 75.5226 14.5581 75.3812 14.4311C75.2398 14.3042 75.1265 14.149 75.0488 13.9756C74.971 13.8021 74.9304 13.6144 74.9297 13.4243ZM77.8242 13.0395V12.6631L76.7246 12.7334C76.1045 12.7749 75.8232 12.9858 75.8232 13.3828C75.8232 13.7881 76.1748 14.0239 76.6582 14.0239C76.7999 14.0382 76.943 14.0239 77.079 13.9819C77.215 13.9398 77.3411 13.8707 77.4499 13.7789C77.5587 13.6871 77.6479 13.5743 77.7122 13.4473C77.7765 13.3202 77.8146 13.1816 77.8242 13.0395Z" fill="white"/>
<path d="M79.877 12.4444C79.877 11.0215 80.6084 10.1201 81.7461 10.1201C82.0275 10.1072 82.3068 10.1746 82.5513 10.3145C82.7959 10.4544 82.9955 10.661 83.127 10.9101H83.1934V8.43701H84.082V14.6978H83.2305V13.9863H83.1602C83.0186 14.2338 82.8119 14.4378 82.5627 14.5763C82.3134 14.7148 82.031 14.7825 81.7461 14.772C80.6006 14.772 79.877 13.8706 79.877 12.4444ZM80.795 12.4444C80.795 13.3994 81.2452 13.9741 81.9981 13.9741C82.7471 13.9741 83.21 13.3911 83.21 12.4483C83.21 11.5098 82.7422 10.9185 81.9981 10.9185C81.25 10.9185 80.7949 11.4971 80.7949 12.4444H80.795Z" fill="white"/>
<path d="M87.7581 12.4444C87.7298 12.1485 87.7636 11.8499 87.8575 11.5679C87.9513 11.2858 88.1031 11.0264 88.303 10.8065C88.503 10.5865 88.7467 10.4107 89.0185 10.2904C89.2904 10.1702 89.5844 10.108 89.8816 10.108C90.1789 10.108 90.4729 10.1702 90.7447 10.2904C91.0166 10.4107 91.2603 10.5865 91.4602 10.8065C91.6602 11.0264 91.8119 11.2858 91.9058 11.5679C91.9996 11.8499 92.0335 12.1485 92.0052 12.4444C92.034 12.7406 92.0006 13.0396 91.907 13.3221C91.8134 13.6047 91.6617 13.8645 91.4617 14.0849C91.2617 14.3053 91.0178 14.4814 90.7457 14.602C90.4736 14.7225 90.1793 14.7848 89.8816 14.7848C89.584 14.7848 89.2897 14.7225 89.0175 14.602C88.7454 14.4814 88.5015 14.3053 88.3015 14.0849C88.1015 13.8645 87.9499 13.6047 87.8563 13.3221C87.7627 13.0396 87.7292 12.7406 87.7581 12.4444ZM91.0911 12.4444C91.0911 11.4683 90.6526 10.8975 89.8831 10.8975C89.1106 10.8975 88.6761 11.4683 88.6761 12.4444C88.6761 13.4283 89.1107 13.9947 89.8831 13.9947C90.6526 13.9947 91.0911 13.4244 91.0911 12.4444Z" fill="white"/>
<path d="M93.1973 10.1949H94.0527V10.9102H94.1191C94.2318 10.6533 94.4218 10.4379 94.6627 10.2941C94.9035 10.1503 95.1833 10.0852 95.4629 10.1079C95.682 10.0915 95.902 10.1245 96.1066 10.2046C96.3112 10.2847 96.4951 10.4098 96.6448 10.5707C96.7945 10.7315 96.9061 10.924 96.9713 11.1338C97.0365 11.3436 97.0536 11.5654 97.0215 11.7827V14.6977H96.1328V12.0059C96.1328 11.2823 95.8184 10.9224 95.1611 10.9224C95.0124 10.9155 94.8639 10.9408 94.7258 10.9966C94.5878 11.0525 94.4634 11.1375 94.3613 11.2459C94.2592 11.3543 94.1817 11.4834 94.1342 11.6246C94.0866 11.7657 94.0702 11.9154 94.0859 12.0635V14.6978H93.1973V10.1949Z" fill="white"/>
<path d="M102.044 9.07373V10.2153H103.02V10.9639H102.044V13.2793C102.044 13.751 102.238 13.9575 102.681 13.9575C102.794 13.9572 102.907 13.9503 103.02 13.937V14.6772C102.86 14.7058 102.698 14.721 102.536 14.7226C101.548 14.7226 101.154 14.375 101.154 13.5068V10.9638H100.439V10.2153H101.154V9.07373H102.044Z" fill="white"/>
<path d="M104.232 8.43701H105.113V10.9185H105.184C105.302 10.6591 105.497 10.4425 105.743 10.2982C105.988 10.1539 106.273 10.0888 106.557 10.1118C106.775 10.1 106.992 10.1364 107.195 10.2184C107.397 10.3004 107.579 10.4261 107.727 10.5864C107.875 10.7468 107.986 10.9378 108.052 11.146C108.117 11.3541 108.136 11.5742 108.107 11.7905V14.6978H107.218V12.0098C107.218 11.2905 106.883 10.9263 106.255 10.9263C106.102 10.9137 105.949 10.9347 105.805 10.9878C105.661 11.0408 105.531 11.1247 105.423 11.2334C105.315 11.3421 105.232 11.4732 105.18 11.6173C105.128 11.7614 105.108 11.9152 105.121 12.0679V14.6977H104.232L104.232 8.43701Z" fill="white"/>
<path d="M113.289 13.4819C113.168 13.8934 112.906 14.2494 112.55 14.4876C112.193 14.7257 111.764 14.8309 111.338 14.7846C111.041 14.7924 110.746 14.7356 110.474 14.6181C110.201 14.5006 109.957 14.3251 109.76 14.104C109.562 13.8829 109.414 13.6213 109.327 13.3375C109.241 13.0537 109.217 12.7544 109.257 12.4604C109.218 12.1655 109.242 11.8656 109.329 11.5809C109.415 11.2962 109.562 11.0335 109.759 10.8104C109.956 10.5873 110.198 10.4092 110.47 10.2879C110.742 10.1667 111.036 10.1053 111.334 10.1079C112.587 10.1079 113.342 10.9639 113.342 12.3779V12.688H110.163V12.7378C110.149 12.903 110.17 13.0693 110.224 13.2261C110.278 13.3828 110.364 13.5265 110.477 13.648C110.59 13.7694 110.727 13.866 110.879 13.9314C111.032 13.9968 111.196 14.0296 111.362 14.0278C111.575 14.0533 111.79 14.015 111.981 13.9178C112.171 13.8206 112.329 13.6688 112.433 13.4819L113.289 13.4819ZM110.163 12.0307H112.437C112.448 11.8796 112.428 11.7278 112.377 11.5851C112.326 11.4423 112.246 11.3119 112.141 11.202C112.037 11.0922 111.911 11.0053 111.771 10.9472C111.631 10.889 111.48 10.8607 111.329 10.8642C111.175 10.8623 111.023 10.8911 110.88 10.9491C110.738 11.007 110.608 11.0929 110.5 11.2016C110.391 11.3103 110.305 11.4397 110.247 11.5821C110.19 11.7245 110.161 11.877 110.163 12.0307H110.163Z" fill="white"/>
</g>
<defs>
<clipPath id="clip0_522_87247">
<rect width="135" height="40" fill="white" transform="translate(0.5)"/>
</clipPath>
</defs>
</svg>
