<svg width="136" height="40" viewBox="0 0 136 40" fill="none" xmlns="http://www.w3.org/2000/svg">
<g clip-path="url(#clip0_522_87226)">
<path d="M130.5 0H5.5C2.73858 0 0.5 2.23858 0.5 5V35C0.5 37.7614 2.73858 40 5.5 40H130.5C133.261 40 135.5 37.7614 135.5 35V5C135.5 2.23858 133.261 0 130.5 0Z" fill="black"/>
<path d="M130.5 0.800044C131.614 0.801331 132.681 1.24427 133.468 2.03169C134.256 2.81911 134.699 3.8867 134.7 5.00024V35.0002C134.699 36.1138 134.256 37.1814 133.468 37.9688C132.681 38.7562 131.614 39.1991 130.5 39.2004H5.5C4.38645 39.1992 3.31888 38.7562 2.5315 37.9688C1.74412 37.1814 1.30123 36.1138 1.3 35.0002V5.00024C1.30121 3.88669 1.74409 2.81909 2.53148 2.03166C3.31886 1.24424 4.38644 0.801309 5.5 0.800044H130.5ZM130.5 0.000244141H5.5C4.17511 0.00412224 2.90559 0.532152 1.96875 1.46899C1.03191 2.40584 0.503878 3.67535 0.5 5.00024L0.5 35.0002C0.503878 36.3251 1.03191 37.5947 1.96875 38.5315C2.90559 39.4683 4.17511 39.9964 5.5 40.0002H130.5C131.825 39.9964 133.094 39.4683 134.031 38.5315C134.968 37.5947 135.496 36.3251 135.5 35.0002V5.00024C135.496 3.67535 134.968 2.40584 134.031 1.46899C133.094 0.532152 131.825 0.00412224 130.5 0.000244141Z" fill="#A6A6A6"/>
<path d="M47.9183 10.2433C47.9365 10.6103 47.8798 10.9771 47.7516 11.3214C47.6235 11.6658 47.4267 11.9804 47.1731 12.2462C46.8889 12.541 46.5456 12.7724 46.1658 12.9254C45.786 13.0784 45.3782 13.1494 44.969 13.1339C44.5572 13.1376 44.1488 13.059 43.7679 12.9026C43.3869 12.7462 43.0411 12.5152 42.7507 12.2233C42.4603 11.9313 42.2312 11.5842 42.0768 11.2024C41.9225 10.8207 41.846 10.4119 41.8519 10.0001C41.846 9.58837 41.9225 9.17959 42.0769 8.79781C42.2313 8.41603 42.4604 8.06895 42.7508 7.77695C43.0412 7.48496 43.387 7.25395 43.7679 7.09748C44.1488 6.94102 44.5572 6.86226 44.969 6.86584C45.3924 6.86456 45.8115 6.95016 46.2005 7.11734C46.5617 7.26378 46.8833 7.49348 47.139 7.78774L46.6116 8.31554C46.4106 8.07899 46.158 7.89178 45.8732 7.76834C45.5884 7.64491 45.279 7.58856 44.969 7.60364C44.6569 7.60202 44.3477 7.66341 44.0599 7.78412C43.7721 7.90483 43.5116 8.08239 43.2941 8.30615C43.0765 8.52991 42.9064 8.79527 42.7938 9.08635C42.6812 9.37743 42.6286 9.68823 42.639 10.0001C42.6315 10.4673 42.763 10.9262 43.0167 11.3186C43.2704 11.711 43.6349 12.0192 44.064 12.2041C44.4931 12.3891 44.9674 12.4425 45.4269 12.3575C45.8864 12.2725 46.3102 12.0529 46.6448 11.7267C46.9527 11.395 47.1311 10.9637 47.1477 10.5113H44.969V9.79064H47.8763C47.9038 9.93998 47.9178 10.0915 47.9183 10.2433Z" fill="white" stroke="white" stroke-width="0.2" stroke-miterlimit="10"/>
<path d="M52.5283 7.73742H49.7959V9.63972H52.2598V10.3605H49.7959V12.2628H52.5283V13.0001H49.0254V7.00012H52.5283V7.73742Z" fill="white" stroke="white" stroke-width="0.2" stroke-miterlimit="10"/>
<path d="M55.7793 13.0001H55.0078V7.73742H53.332V7.00012H57.4551V7.73742H55.7793V13.0001Z" fill="white" stroke="white" stroke-width="0.2" stroke-miterlimit="10"/>
<path d="M60.4375 13.0001V7.00012H61.208V13.0001H60.4375Z" fill="white" stroke="white" stroke-width="0.2" stroke-miterlimit="10"/>
<path d="M64.6288 13.0001H63.8573V7.73742H62.1816V7.00012H66.3046V7.73742H64.6288V13.0001Z" fill="white" stroke="white" stroke-width="0.2" stroke-miterlimit="10"/>
<path d="M74.1102 12.2247C73.5262 12.807 72.7351 13.1339 71.9105 13.1339C71.0858 13.1339 70.2948 12.807 69.7108 12.2247C69.4218 11.9321 69.1947 11.5844 69.0429 11.2022C68.8911 10.8201 68.8176 10.4113 68.827 10.0001C68.8176 9.58903 68.8911 9.18024 69.0429 8.79807C69.1947 8.41591 69.4218 8.06817 69.7108 7.77554C69.9994 7.48681 70.3422 7.25784 70.7194 7.10174C71.0967 6.94565 71.501 6.86548 71.9093 6.86585C72.3176 6.86621 72.7218 6.94709 73.0988 7.10386C73.4758 7.26062 73.8181 7.4902 74.1063 7.77944C74.3954 8.0713 74.6229 8.41826 74.7754 8.79973C74.9279 9.1812 75.0022 9.58941 74.994 10.0001C75.003 10.4112 74.9295 10.8199 74.7777 11.2021C74.6259 11.5842 74.3989 11.932 74.1102 12.2247ZM70.2801 11.7223C70.7126 12.1541 71.2988 12.3967 71.91 12.3967C72.5211 12.3967 73.1073 12.1541 73.5399 11.7223C73.7617 11.4953 73.9351 11.2256 74.0498 10.9296C74.1644 10.6336 74.2178 10.3174 74.2069 10.0001C74.2178 9.6829 74.1644 9.36673 74.0498 9.07072C73.9351 8.77472 73.7617 8.50503 73.5399 8.27794C73.1073 7.84615 72.5211 7.60363 71.91 7.60363C71.2988 7.60363 70.7126 7.84615 70.2801 8.27794C70.0586 8.50521 69.8854 8.77495 69.7709 9.07093C69.6565 9.36691 69.6031 9.68299 69.6141 10.0001C69.6031 10.3173 69.6565 10.6334 69.7709 10.9294C69.8854 11.2253 70.0586 11.4951 70.2801 11.7223Z" fill="white" stroke="white" stroke-width="0.2" stroke-miterlimit="10"/>
<path d="M76.0742 13.0001V7.00012H77.0127L79.9287 11.6676H79.9619L79.9287 10.5113V7.00012H80.7002V13.0001H79.8955L76.8447 8.10652H76.8115L76.8447 9.26282V13.0001H76.0742Z" fill="white" stroke="white" stroke-width="0.2" stroke-miterlimit="10"/>
<path d="M68.6354 21.7517C67.7949 21.7549 66.9741 22.007 66.2768 22.4763C65.5795 22.9456 65.0369 23.611 64.7175 24.3884C64.398 25.1659 64.3161 26.0205 64.482 26.8445C64.648 27.6685 65.0543 28.4248 65.6498 29.018C66.2452 29.6112 67.0031 30.0147 67.8277 30.1775C68.6523 30.3403 69.5066 30.2551 70.2829 29.9327C71.0591 29.6103 71.7224 29.0652 72.189 28.3661C72.6557 27.667 72.9047 26.8453 72.9047 26.0048C72.9129 25.4426 72.808 24.8845 72.5962 24.3637C72.3844 23.8429 72.0699 23.37 71.6716 22.9732C71.2733 22.5764 70.7992 22.2638 70.2776 22.0539C69.756 21.8441 69.1975 21.7413 68.6354 21.7517ZM68.6354 28.5825C68.1178 28.6194 67.601 28.4996 67.1524 28.2387C66.7038 27.9778 66.3442 27.5879 66.1203 27.1198C65.8964 26.6516 65.8186 26.1269 65.8971 25.6139C65.9756 25.101 66.2068 24.6235 66.5604 24.2438C66.9141 23.864 67.3739 23.5995 67.8799 23.4847C68.386 23.3699 68.9149 23.4101 69.3978 23.6001C69.8807 23.7902 70.2952 24.1212 70.5874 24.5501C70.8795 24.979 71.0358 25.4859 71.0358 26.0048C71.0515 26.3326 71.0015 26.6603 70.8886 26.9685C70.7758 27.2767 70.6024 27.5593 70.3787 27.7994C70.1551 28.0396 69.8856 28.2327 69.5862 28.3671C69.2868 28.5016 68.9635 28.5749 68.6354 28.5825ZM59.322 21.7517C58.4815 21.7549 57.6607 22.007 56.9634 22.4763C56.2661 22.9455 55.7234 23.6109 55.404 24.3884C55.0845 25.1658 55.0026 26.0205 55.1685 26.8444C55.3344 27.6684 55.7408 28.4248 56.3362 29.018C56.9317 29.6112 57.6896 30.0147 58.5142 30.1775C59.3388 30.3403 60.1931 30.2551 60.9694 29.9327C61.7456 29.6103 62.4089 29.0652 62.8755 28.3661C63.3422 27.667 63.5912 26.8453 63.5912 26.0048C63.5994 25.4426 63.4945 24.8845 63.2827 24.3637C63.0709 23.8429 62.7565 23.3701 62.3582 22.9733C61.9598 22.5765 61.4858 22.2638 60.9642 22.054C60.4426 21.8441 59.8841 21.7413 59.322 21.7517ZM59.322 28.5825C58.8044 28.6194 58.2876 28.4996 57.839 28.2387C57.3904 27.9778 57.0308 27.5879 56.8069 27.1198C56.583 26.6516 56.5052 26.1269 56.5837 25.6139C56.6622 25.101 56.8934 24.6235 57.247 24.2438C57.6007 23.864 58.0605 23.5995 58.5665 23.4847C59.0726 23.3699 59.6015 23.4101 60.0844 23.6001C60.5673 23.7902 60.9818 24.1212 61.274 24.5501C61.5661 24.979 61.7224 25.4859 61.7224 26.0048C61.7381 26.3326 61.6881 26.6603 61.5752 26.9685C61.4624 27.2767 61.289 27.5593 61.0654 27.7995C60.8417 28.0397 60.5722 28.2327 60.2728 28.3672C59.9734 28.5016 59.6501 28.5749 59.322 28.5825ZM48.2432 23.0567V24.861H52.5609C52.4986 25.7073 52.1523 26.5078 51.5781 27.1326C51.1454 27.5736 50.6251 27.9191 50.0507 28.1466C49.4762 28.3741 48.8605 28.4787 48.2432 28.4536C46.9812 28.4365 45.7766 27.9232 44.8902 27.0247C44.0038 26.1262 43.5068 24.9148 43.5068 23.6527C43.5068 22.3906 44.0038 21.1792 44.8902 20.2807C45.7766 19.3822 46.9812 18.8689 48.2432 18.8518C49.4554 18.836 50.6249 19.2991 51.4976 20.1406L52.7703 18.8679C52.1748 18.2784 51.4677 17.8137 50.6903 17.5011C49.9129 17.1885 49.081 17.0343 48.2432 17.0474C47.3677 17.0347 46.4984 17.1961 45.6858 17.5223C44.8732 17.8485 44.1336 18.3331 43.51 18.9477C42.8864 19.5623 42.3911 20.2948 42.0531 21.1025C41.7151 21.9102 41.541 22.7771 41.541 23.6527C41.541 24.5283 41.7151 25.3952 42.0531 26.2029C42.3911 27.0106 42.8864 27.7431 43.51 28.3577C44.1336 28.9724 44.8732 29.4569 45.6858 29.7831C46.4984 30.1093 47.3677 30.2708 48.2432 30.258C49.0986 30.2935 49.9519 30.1466 50.7462 29.8272C51.5406 29.5078 52.258 29.0231 52.8508 28.4053C53.9032 27.2566 54.4641 25.7415 54.4136 24.1844C54.4177 23.8063 54.3853 23.4286 54.3168 23.0567H48.2432ZM93.5515 24.4582C93.2959 23.6878 92.8093 23.0148 92.1579 22.5306C91.5065 22.0464 90.7218 21.7744 89.9105 21.7517C89.364 21.7551 88.8239 21.8693 88.3228 22.0873C87.8217 22.3053 87.3701 22.6227 86.9951 23.0203C86.6201 23.4178 86.3297 23.8873 86.1413 24.4002C85.9529 24.9132 85.8705 25.4591 85.8991 26.0048C85.8868 26.564 85.9873 27.1199 86.1946 27.6394C86.402 28.1588 86.7119 28.6312 87.1059 29.0282C87.4999 29.4252 87.9698 29.7387 88.4877 29.95C89.0056 30.1613 89.5607 30.2661 90.12 30.258C90.8206 30.2619 91.5113 30.0917 92.1299 29.7627C92.7485 29.4337 93.2757 28.9562 93.6642 28.3731L92.2143 27.4065C91.9971 27.7672 91.6898 28.0653 91.3227 28.2715C90.9555 28.4776 90.5411 28.5848 90.12 28.5825C89.6867 28.5991 89.2584 28.4851 88.8907 28.2553C88.523 28.0254 88.2328 27.6904 88.0578 27.2937L93.7449 24.9416L93.5515 24.4582ZM87.7518 25.876C87.7317 25.5664 87.7737 25.256 87.8751 24.9628C87.9765 24.6697 88.1353 24.3997 88.3423 24.1687C88.5493 23.9376 88.8003 23.7502 89.0807 23.6174C89.361 23.4845 89.665 23.4089 89.9749 23.395C90.2976 23.3738 90.6194 23.448 90.9001 23.6084C91.1809 23.7689 91.4082 24.0084 91.5538 24.2972L87.7518 25.876ZM83.128 30.0002H84.9968V17.4986H83.128V30.0002ZM80.067 22.7022H80.0026C79.7185 22.3935 79.3717 22.149 78.9855 21.9851C78.5993 21.8212 78.1826 21.7416 77.7632 21.7517C76.6665 21.7984 75.6302 22.2669 74.8707 23.0594C74.1112 23.8519 73.6872 24.9072 73.6872 26.0049C73.6872 27.1025 74.1112 28.1578 74.8707 28.9503C75.6302 29.7428 76.6665 30.2113 77.7632 30.258C78.1843 30.2692 78.6027 30.1885 78.9895 30.0216C79.3762 29.8547 79.7219 29.6055 80.0026 29.2914H80.067V29.9036C80.067 31.5308 79.1971 32.4007 77.7954 32.4007C77.3282 32.3895 76.875 32.2395 76.4934 31.9698C76.1119 31.7001 75.8192 31.3229 75.6528 30.8863L74.0256 31.563C74.3323 32.3097 74.8549 32.9478 75.5265 33.3955C76.1982 33.8433 76.9882 34.0803 77.7954 34.0762C79.9865 34.0762 81.8392 32.7874 81.8392 29.6458V22.0094H80.067V22.7022ZM77.9244 28.5825C77.2784 28.5277 76.6766 28.2324 76.238 27.7551C75.7994 27.2777 75.556 26.6531 75.556 26.0049C75.556 25.3566 75.7994 24.732 76.238 24.2546C76.6766 23.7773 77.2784 23.482 77.9244 23.4272C78.2457 23.4429 78.5606 23.5231 78.8503 23.6631C79.14 23.8031 79.3986 24 79.6105 24.242C79.8225 24.4841 79.9836 24.7663 80.0841 25.0719C80.1847 25.3776 80.2227 25.7003 80.1959 26.0209C80.221 26.3395 80.1816 26.66 80.08 26.963C79.9785 27.2661 79.8168 27.5455 79.6048 27.7847C79.3927 28.0238 79.1346 28.2177 78.8459 28.3548C78.5571 28.4919 78.2437 28.5693 77.9244 28.5825ZM102.305 17.4988H97.8342V30.0002H99.6999V25.2638H102.305C102.833 25.2927 103.361 25.2138 103.857 25.0317C104.354 24.8497 104.808 24.5684 105.191 24.205C105.575 23.8417 105.881 23.4038 106.09 22.9184C106.299 22.4329 106.407 21.9099 106.407 21.3813C106.407 20.8528 106.299 20.3298 106.09 19.8443C105.881 19.3588 105.575 18.921 105.191 18.5576C104.808 18.1942 104.354 17.9129 103.857 17.7309C103.361 17.5488 102.833 17.4699 102.305 17.4988ZM102.354 23.524H99.6999V19.2387H102.354C102.639 19.2328 102.922 19.2839 103.187 19.3889C103.452 19.4939 103.694 19.6508 103.898 19.8503C104.101 20.0499 104.263 20.2881 104.374 20.551C104.484 20.8139 104.541 21.0962 104.541 21.3814C104.541 21.6665 104.484 21.9488 104.374 22.2117C104.263 22.4746 104.101 22.7128 103.898 22.9124C103.694 23.1119 103.452 23.2688 103.187 23.3738C102.922 23.4789 102.639 23.5299 102.354 23.524ZM113.885 21.7287C113.204 21.6889 112.526 21.8489 111.935 22.1889C111.344 22.5288 110.864 23.0341 110.556 23.6426L112.213 24.3342C112.377 24.0322 112.626 23.7846 112.928 23.6218C113.231 23.4589 113.575 23.3879 113.917 23.4174C114.391 23.3712 114.863 23.5145 115.231 23.816C115.599 24.1175 115.832 24.5525 115.88 25.0257V25.1544C115.28 24.8361 114.612 24.6704 113.933 24.6719C112.148 24.6719 110.331 25.653 110.331 27.4865C110.348 27.8729 110.443 28.2519 110.61 28.601C110.776 28.9501 111.011 29.2621 111.301 29.5186C111.59 29.7751 111.928 29.9709 112.295 30.0942C112.662 30.2176 113.049 30.266 113.435 30.2367C113.905 30.2644 114.373 30.1656 114.792 29.9506C115.211 29.7356 115.564 29.4123 115.815 29.0144H115.88V29.9794H117.681V25.1866C117.681 22.9671 116.024 21.7287 113.885 21.7287ZM113.66 28.5801C113.049 28.5801 112.196 28.2746 112.196 27.5186C112.196 26.5537 113.258 26.1837 114.175 26.1837C114.77 26.1678 115.359 26.3123 115.88 26.6019C115.811 27.1441 115.549 27.6432 115.14 28.0069C114.732 28.3705 114.207 28.5742 113.66 28.5801ZM124.243 22.0021L122.104 27.4221H122.039L119.82 22.0021H117.81L121.139 29.5773L119.241 33.7911H121.187L126.318 22.0021H124.243ZM107.436 30.0002H109.301V17.4988H107.436V30.0002Z" fill="white"/>
<path d="M10.9352 7.53805C10.6073 7.93013 10.4417 8.43275 10.4724 8.94295V31.0591C10.4416 31.5693 10.6072 32.0719 10.9352 32.464L11.0092 32.5361L23.3982 20.1472V19.8549L11.0092 7.46545L10.9352 7.53805Z" fill="url(#paint0_linear_522_87226)"/>
<path d="M27.5278 24.2786L23.3984 20.1472V19.8549L27.5288 15.7245L27.6219 15.7776L32.5147 18.5577C33.9123 19.3517 33.9123 20.6509 32.5147 21.4454L27.6219 24.2255L27.5278 24.2786Z" fill="url(#paint1_linear_522_87226)"/>
<path d="M27.622 24.225L23.3985 20.0011L10.9355 32.464C11.2203 32.7152 11.584 32.8588 11.9635 32.87C12.343 32.8812 12.7145 32.7593 13.0136 32.5254L27.622 24.225Z" fill="url(#paint2_linear_522_87226)"/>
<path d="M27.622 15.7771L13.0136 7.47666C12.7145 7.24275 12.343 7.12084 11.9635 7.13206C11.584 7.14327 11.2203 7.2869 10.9355 7.53806L23.3985 20.0011L27.622 15.7771Z" fill="url(#paint3_linear_522_87226)"/>
<path opacity="0.2" d="M27.5289 24.132L13.0136 32.3793C12.7261 32.5982 12.3751 32.7176 12.0136 32.7196C11.6522 32.7215 11.3 32.6058 11.01 32.39L10.9355 32.4645L11.0095 32.5366L11.01 32.5361C11.2999 32.752 11.6522 32.8678 12.0136 32.8659C12.3751 32.8639 12.7261 32.7444 13.0136 32.5254L27.622 24.225L27.5289 24.132Z" fill="black"/>
<path opacity="0.12" d="M10.9352 32.3184C10.6073 31.9263 10.4417 31.4237 10.4724 30.9135V31.0596C10.4417 31.5698 10.6073 32.0724 10.9352 32.4645L11.0097 32.39L10.9352 32.3184Z" fill="black"/>
<path opacity="0.12" d="M32.5152 21.2988L27.5293 24.132L27.6224 24.225L32.5152 21.4449C32.803 21.32 33.0521 21.1202 33.2364 20.8663C33.4208 20.6125 33.5338 20.3138 33.5635 20.0015C33.5016 20.2843 33.3747 20.5488 33.1927 20.774C33.0107 20.9992 32.7788 21.1789 32.5152 21.2988Z" fill="black"/>
<path opacity="0.25" d="M13.0136 7.62334L32.5148 18.7033C32.7784 18.8232 33.0105 19.0029 33.1925 19.2282C33.3744 19.4535 33.5013 19.7182 33.5631 20.0011C33.5335 19.6887 33.4207 19.3899 33.2363 19.1359C33.0519 18.8819 32.8027 18.6821 32.5148 18.5572L13.0136 7.47724C11.616 6.68314 10.4727 7.34274 10.4727 8.94354V9.08964C10.4727 7.48894 11.616 6.82934 13.0136 7.62334Z" fill="white"/>
</g>
<defs>
<linearGradient id="paint0_linear_522_87226" x1="22.2995" y1="8.70976" x2="5.51711" y2="25.4922" gradientUnits="userSpaceOnUse">
<stop stop-color="#00A0FF"/>
<stop offset="0.00657" stop-color="#00A1FF"/>
<stop offset="0.2601" stop-color="#00BEFF"/>
<stop offset="0.5122" stop-color="#00D2FF"/>
<stop offset="0.7604" stop-color="#00DFFF"/>
<stop offset="1" stop-color="#00E3FF"/>
</linearGradient>
<linearGradient id="paint1_linear_522_87226" x1="34.3344" y1="20.0015" x2="10.1375" y2="20.0015" gradientUnits="userSpaceOnUse">
<stop stop-color="#FFE000"/>
<stop offset="0.4087" stop-color="#FFBD00"/>
<stop offset="0.7754" stop-color="#FFA500"/>
<stop offset="1" stop-color="#FF9C00"/>
</linearGradient>
<linearGradient id="paint2_linear_522_87226" x1="25.3271" y1="22.2962" x2="2.56882" y2="45.0545" gradientUnits="userSpaceOnUse">
<stop stop-color="#FF3A44"/>
<stop offset="1" stop-color="#C31162"/>
</linearGradient>
<linearGradient id="paint3_linear_522_87226" x1="7.79748" y1="0.176237" x2="17.96" y2="10.3388" gradientUnits="userSpaceOnUse">
<stop stop-color="#32A071"/>
<stop offset="0.0685" stop-color="#2DA771"/>
<stop offset="0.4762" stop-color="#15CF74"/>
<stop offset="0.8009" stop-color="#06E775"/>
<stop offset="1" stop-color="#00F076"/>
</linearGradient>
<clipPath id="clip0_522_87226">
<rect width="135" height="40.0002" fill="white" transform="translate(0.5)"/>
</clipPath>
</defs>
</svg>
