<svg width="401" height="400" viewBox="0 0 401 400" fill="none" xmlns="http://www.w3.org/2000/svg">
<path d="M200.499 388.312C296.535 388.312 374.387 342.133 374.387 285.168C374.387 228.203 296.535 182.024 200.499 182.024C104.464 182.024 26.6113 228.203 26.6113 285.168C26.6113 342.133 104.464 388.312 200.499 388.312Z" fill="#F0F0F0"/>
<path d="M215.739 17.136L157.707 50.648C157.446 50.8182 157.229 51.0474 157.073 51.3171C156.918 51.5867 156.828 51.8891 156.811 52.2V76.336C156.827 76.6448 156.917 76.9453 157.073 77.2124C157.228 77.4796 157.446 77.7057 157.707 77.872L160.907 79.672C161.186 79.812 161.494 79.885 161.807 79.885C162.119 79.885 162.427 79.812 162.707 79.672L220.739 46.16C220.999 45.9897 221.216 45.7605 221.372 45.4909C221.527 45.2213 221.617 44.9188 221.635 44.608V20.464C221.617 20.1546 221.525 19.8539 221.368 19.5868C221.211 19.3197 220.992 19.0939 220.731 18.928L217.531 17.128C217.252 16.9892 216.945 16.9177 216.634 16.9191C216.322 16.9205 216.016 16.9948 215.739 17.136V17.136Z" fill="#DB2228"/>
<path d="M161.818 79.144V55.016C161.835 54.7051 161.925 54.4027 162.081 54.1331C162.237 53.8634 162.454 53.6342 162.714 53.464L220.746 19.952C221.242 19.664 221.642 19.896 221.642 20.464V44.6C221.625 44.9108 221.535 45.2133 221.38 45.4829C221.224 45.7525 221.007 45.9817 220.746 46.152L162.714 79.664C162.218 79.952 161.818 79.72 161.818 79.144Z" fill="#DB2228"/>
<path opacity="0.2" d="M162.714 79.664C162.434 79.8022 162.127 79.8741 161.814 79.8741C161.502 79.8741 161.194 79.8022 160.914 79.664L157.714 77.864C157.453 77.6982 157.235 77.4722 157.08 77.2049C156.924 76.9377 156.834 76.637 156.818 76.328V52.2C156.832 51.877 156.928 51.563 157.098 51.288L162.098 54.136C161.933 54.4001 161.841 54.7042 161.834 55.016V79.144C161.818 79.672 162.186 80 162.714 79.664Z" fill="black"/>
<path opacity="0.4" d="M221.628 20.304C221.564 19.856 221.196 19.696 220.748 19.952L162.716 53.464C162.451 53.6304 162.234 53.8617 162.084 54.136L157.092 51.288C157.239 51.0255 157.451 50.8051 157.708 50.648L215.74 17.136C216.019 16.9959 216.327 16.923 216.64 16.923C216.952 16.923 217.26 16.9959 217.54 17.136L220.74 18.928C220.979 19.0793 221.182 19.2808 221.335 19.5183C221.488 19.7559 221.588 20.024 221.628 20.304V20.304Z" fill="white"/>
<path d="M154.355 71.016C153.795 70.68 149.555 68.312 149.451 68.232C149.34 68.173 149.244 68.0885 149.171 67.9854C149.099 67.8823 149.051 67.7636 149.034 67.6388C149.016 67.514 149.027 67.3867 149.068 67.2674C149.109 67.148 149.177 67.04 149.267 66.952L156.891 59.048L161.819 61.856L154.203 69.76C154.124 69.8497 154.065 69.955 154.03 70.0691C153.994 70.1832 153.984 70.3034 153.998 70.422C154.012 70.5406 154.051 70.6548 154.113 70.7572C154.175 70.8595 154.257 70.9477 154.355 71.016V71.016Z" fill="#DB2228"/>
<path opacity="0.4" d="M154.355 71.016C153.795 70.68 149.555 68.312 149.451 68.232C149.34 68.173 149.244 68.0885 149.171 67.9854C149.099 67.8823 149.051 67.7636 149.034 67.6388C149.016 67.514 149.027 67.3867 149.068 67.2674C149.109 67.148 149.177 67.04 149.267 66.952L156.891 59.048L161.819 61.856L154.203 69.76C154.124 69.8497 154.065 69.955 154.03 70.0691C153.994 70.1832 153.984 70.3034 153.998 70.422C154.012 70.5406 154.051 70.6548 154.113 70.7572C154.175 70.8595 154.257 70.9477 154.355 71.016V71.016Z" fill="white"/>
<path d="M161.819 61.856L154.203 69.76C154.09 69.868 154.012 70.0066 153.977 70.1587C153.942 70.3108 153.953 70.4698 154.007 70.616C154.062 70.7623 154.158 70.8894 154.283 70.9818C154.409 71.0742 154.559 71.1278 154.715 71.136H161.819V61.856Z" fill="#DB2228"/>
<path d="M171.698 54.456C171.73 54.43 171.769 54.4158 171.81 54.4158C171.851 54.4158 171.891 54.43 171.922 54.456C171.957 54.4952 171.983 54.5409 171.999 54.5903C172.016 54.6398 172.022 54.692 172.018 54.744V56.032C172.015 56.1775 171.985 56.3213 171.93 56.456L171.754 56.856L170.034 60.648C170.338 60.5223 170.666 60.4676 170.994 60.488C171.256 60.5136 171.503 60.623 171.698 60.8C171.922 61.0215 172.085 61.2971 172.17 61.6C172.291 62.0292 172.348 62.4741 172.338 62.92C172.341 63.5334 172.26 64.1443 172.098 64.736C171.938 65.294 171.712 65.831 171.426 66.336C171.145 66.8322 170.804 67.2917 170.41 67.704C170.045 68.1325 169.616 68.5022 169.138 68.8C168.705 69.0775 168.216 69.2576 167.706 69.328C167.357 69.3777 167 69.3131 166.69 69.144C166.412 68.981 166.196 68.7307 166.074 68.432C165.929 68.1033 165.845 67.7509 165.826 67.392C165.816 67.2529 165.846 67.1138 165.914 66.992C165.963 66.8826 166.04 66.7886 166.138 66.72L167.074 66.184C167.101 66.1604 167.135 66.1473 167.17 66.1473C167.206 66.1473 167.24 66.1604 167.266 66.184C167.334 66.2537 167.388 66.335 167.426 66.424C167.471 66.5363 167.536 66.6393 167.618 66.728C167.701 66.8153 167.811 66.8718 167.93 66.888C168.09 66.9293 168.258 66.9293 168.418 66.888C168.67 66.8114 168.912 66.7039 169.138 66.568C169.609 66.2966 170.007 65.915 170.298 65.456C170.588 65.0022 170.741 64.4744 170.738 63.936C170.738 63.392 170.594 63.088 170.298 63.024C169.886 62.9838 169.474 63.0946 169.138 63.336L168.154 63.904C168.123 63.93 168.083 63.9442 168.042 63.9442C168.001 63.9442 167.962 63.93 167.93 63.904C167.897 63.863 167.872 63.8157 167.857 63.7648C167.841 63.714 167.837 63.6607 167.842 63.608V62.328C167.841 62.182 167.871 62.0375 167.93 61.904C167.979 61.7677 168.035 61.6342 168.098 61.504L169.746 57.88L166.498 59.76C166.467 59.7876 166.428 59.8028 166.386 59.8028C166.345 59.8028 166.305 59.7876 166.274 59.76C166.239 59.7216 166.212 59.676 166.195 59.6264C166.179 59.5767 166.173 59.5241 166.178 59.472V58.112C166.18 57.9731 166.212 57.8364 166.274 57.712C166.318 57.5996 166.396 57.5042 166.498 57.44L171.698 54.456Z" fill="#FAFAFA"/>
<path d="M174.619 53.24C174.621 53.1021 174.651 52.9661 174.707 52.84C174.753 52.7292 174.831 52.6346 174.931 52.568L179.363 50.008C179.394 49.9804 179.434 49.9652 179.475 49.9652C179.516 49.9652 179.556 49.9804 179.587 50.008C179.621 50.0472 179.647 50.0929 179.664 50.1423C179.68 50.1918 179.687 50.244 179.683 50.296V51.6C179.682 51.7389 179.649 51.8756 179.587 52C179.544 52.1124 179.465 52.2078 179.363 52.272L176.051 54.184L175.923 56.584C176.107 56.3573 176.319 56.1556 176.555 55.984C176.72 55.8655 176.89 55.756 177.067 55.656C177.44 55.425 177.857 55.275 178.291 55.216C178.635 55.1754 178.981 55.2607 179.267 55.456C179.576 55.697 179.805 56.0262 179.923 56.4C180.092 56.9379 180.171 57.5003 180.155 58.064C180.161 58.7778 180.081 59.4897 179.915 60.184C179.77 60.7915 179.546 61.3777 179.251 61.928C178.752 62.8803 177.995 63.6731 177.067 64.216C176.643 64.487 176.165 64.6643 175.667 64.736C175.33 64.7757 174.989 64.6934 174.707 64.504C174.438 64.3007 174.235 64.0224 174.123 63.704C173.988 63.3097 173.915 62.8968 173.907 62.48C173.901 62.3413 173.931 62.2034 173.995 62.08C174.041 61.967 174.123 61.8718 174.227 61.808L175.179 61.256C175.21 61.232 175.248 61.219 175.287 61.219C175.326 61.219 175.364 61.232 175.395 61.256C175.431 61.2852 175.462 61.3215 175.484 61.3628C175.506 61.4041 175.519 61.4494 175.523 61.496C175.549 61.6961 175.626 61.8861 175.747 62.048C175.838 62.1549 175.962 62.2282 176.099 62.256C176.25 62.2867 176.406 62.2699 176.547 62.208C176.728 62.1449 176.902 62.0646 177.067 61.968C177.532 61.6889 177.91 61.2841 178.155 60.8C178.431 60.2464 178.571 59.6347 178.563 59.016C178.587 58.8104 178.563 58.6021 178.492 58.4076C178.421 58.2132 178.306 58.038 178.155 57.896C177.988 57.7972 177.795 57.7506 177.601 57.762C177.407 57.7734 177.221 57.8423 177.067 57.96C176.863 58.0704 176.675 58.2076 176.507 58.368C176.382 58.4837 176.269 58.6124 176.171 58.752L175.939 59.08C175.862 59.1717 175.77 59.2501 175.667 59.312L174.579 59.944C174.547 59.97 174.508 59.9842 174.467 59.9842C174.426 59.9842 174.387 59.97 174.355 59.944C174.32 59.9036 174.293 59.8565 174.277 59.8057C174.261 59.7549 174.254 59.7012 174.259 59.648L174.619 53.24Z" fill="#FAFAFA"/>
<path d="M183.316 57.672C183.347 57.6444 183.387 57.6292 183.428 57.6292C183.469 57.6292 183.509 57.6444 183.54 57.672C183.573 57.7118 183.598 57.7578 183.613 57.8072C183.628 57.8566 183.633 57.9086 183.628 57.96V59.736C183.63 59.8744 183.6 60.0114 183.54 60.136C183.494 60.249 183.416 60.3462 183.316 60.416L182.22 61.048C182.188 61.074 182.149 61.0882 182.108 61.0882C182.067 61.0882 182.027 61.074 181.996 61.048C181.961 61.0076 181.934 60.9606 181.918 60.9097C181.901 60.8589 181.895 60.8053 181.9 60.752V58.976C181.902 58.8372 181.935 58.7007 181.996 58.576C182.042 58.465 182.12 58.3702 182.22 58.304L183.316 57.672Z" fill="#FAFAFA"/>
<path d="M186.979 55.552C187.01 55.5259 187.05 55.5117 187.091 55.5117C187.131 55.5117 187.171 55.5259 187.203 55.552C187.237 55.5924 187.264 55.6394 187.28 55.6902C187.297 55.7411 187.303 55.7947 187.299 55.848V57.624C187.297 57.7628 187.264 57.8996 187.203 58.024C187.157 58.135 187.079 58.2298 186.979 58.296L185.883 58.928C185.852 58.9555 185.812 58.9707 185.771 58.9707C185.729 58.9707 185.689 58.9555 185.659 58.928C185.623 58.8896 185.596 58.844 185.579 58.7943C185.563 58.7447 185.557 58.692 185.563 58.64V56.864C185.563 56.725 185.596 56.5879 185.659 56.464C185.705 56.351 185.782 56.2537 185.883 56.184L186.979 55.552Z" fill="#FAFAFA"/>
<path d="M190.644 53.44C190.675 53.4125 190.715 53.3972 190.756 53.3972C190.797 53.3972 190.837 53.4125 190.868 53.44C190.903 53.4787 190.93 53.5243 190.946 53.5739C190.963 53.6235 190.969 53.676 190.964 53.728V55.52C190.964 55.659 190.931 55.796 190.868 55.92C190.822 56.033 190.744 56.1303 190.644 56.2L189.548 56.832C189.517 56.858 189.477 56.8722 189.436 56.8722C189.395 56.8722 189.356 56.858 189.324 56.832C189.289 56.7916 189.263 56.7446 189.246 56.6937C189.23 56.6429 189.223 56.5893 189.228 56.536V54.744C189.23 54.6052 189.263 54.4687 189.324 54.344C189.37 54.233 189.448 54.1382 189.548 54.072L190.644 53.44Z" fill="#FAFAFA"/>
<path d="M198.499 38.96C198.53 38.9324 198.57 38.9172 198.611 38.9172C198.652 38.9172 198.692 38.9324 198.723 38.96C198.759 38.9984 198.786 39.0439 198.802 39.0936C198.819 39.1433 198.824 39.1959 198.819 39.248V40.536C198.819 40.6818 198.789 40.8261 198.731 40.96C198.675 41.112 198.619 41.24 198.563 41.36L196.843 45.144C197.147 45.0205 197.476 44.9685 197.803 44.992C198.079 45.0132 198.339 45.1291 198.539 45.32C198.762 45.5423 198.924 45.8176 199.011 46.12C199.129 46.5496 199.183 46.9945 199.171 47.44C199.173 48.0533 199.092 48.6641 198.931 49.256C198.774 49.8151 198.548 50.3525 198.259 50.856C197.978 51.3501 197.64 51.8093 197.251 52.224C196.874 52.6133 196.446 52.9497 195.979 53.224C195.546 53.5026 195.057 53.6828 194.547 53.752C194.2 53.7976 193.848 53.7333 193.539 53.568C193.264 53.399 193.046 53.1508 192.915 52.856C192.774 52.526 192.69 52.1742 192.667 51.816C192.66 51.6746 192.69 51.5338 192.755 51.408C192.806 51.3 192.887 51.2086 192.987 51.144L193.915 50.608C193.943 50.5852 193.979 50.5729 194.015 50.5729C194.051 50.5729 194.087 50.5852 194.115 50.608C194.178 50.6838 194.232 50.7671 194.275 50.856C194.312 50.9678 194.375 51.0692 194.459 51.152C194.546 51.2355 194.654 51.2936 194.771 51.32C194.932 51.3575 195.099 51.3575 195.259 51.32C195.512 51.2461 195.755 51.1385 195.979 51C196.454 50.7303 196.853 50.3451 197.139 49.88C197.432 49.4302 197.588 48.9048 197.587 48.368C197.587 47.824 197.435 47.52 197.139 47.448C196.727 47.4122 196.315 47.5258 195.979 47.768L195.003 48.328C194.973 48.3573 194.933 48.3737 194.891 48.3737C194.849 48.3737 194.809 48.3573 194.779 48.328C194.743 48.2895 194.717 48.244 194.7 48.1943C194.683 48.1447 194.678 48.092 194.683 48.04V46.768C194.688 46.6226 194.717 46.4791 194.771 46.344C194.835 46.2 194.891 46.064 194.947 45.952L196.595 42.328L193.339 44.208C193.308 44.234 193.268 44.2482 193.227 44.2482C193.186 44.2482 193.147 44.234 193.115 44.208C193.081 44.1687 193.055 44.1231 193.038 44.0736C193.022 44.0242 193.015 43.9719 193.019 43.92V42.616C193.019 42.4769 193.052 42.3399 193.115 42.216C193.161 42.103 193.239 42.0057 193.339 41.936L198.499 38.96Z" fill="#FAFAFA"/>
<path d="M200.812 46.024C200.815 45.3762 200.898 44.7313 201.06 44.104C201.22 43.528 201.396 42.96 201.604 42.392L203.844 36.24L203.964 35.928C204.017 35.819 204.1 35.7275 204.204 35.664L205.268 35.056C205.297 35.0267 205.338 35.0103 205.38 35.0103C205.421 35.0103 205.462 35.0267 205.492 35.056C205.527 35.0944 205.554 35.14 205.571 35.1896C205.587 35.2393 205.593 35.2919 205.588 35.344C205.593 35.3945 205.593 35.4455 205.588 35.496C205.588 35.544 205.588 35.576 205.54 35.616L204.084 39.688C204.47 39.4518 204.911 39.317 205.364 39.296C205.726 39.2776 206.082 39.3945 206.364 39.624C206.674 39.8956 206.899 40.2513 207.012 40.648C207.177 41.184 207.255 41.7431 207.244 42.304C207.245 42.9647 207.164 43.6231 207.004 44.264C206.853 44.8866 206.633 45.4903 206.348 46.064C206.063 46.6124 205.711 47.1231 205.3 47.584C204.928 48.0086 204.49 48.3705 204.004 48.656C203.614 48.9032 203.168 49.0489 202.708 49.08C202.339 49.0971 201.977 48.9774 201.692 48.744C201.377 48.4713 201.149 48.1126 201.036 47.712C200.868 47.1656 200.792 46.5952 200.812 46.024V46.024ZM205.612 43.248C205.636 43.0124 205.612 42.7743 205.54 42.5486C205.469 42.3228 205.351 42.1143 205.196 41.936C204.916 41.68 204.524 41.704 204.012 42C203.491 42.3012 203.077 42.7569 202.828 43.304C202.554 43.8619 202.412 44.4748 202.412 45.096C202.387 45.334 202.411 45.5745 202.483 45.8029C202.554 46.0312 202.672 46.2425 202.828 46.424C203.108 46.696 203.5 46.68 204.012 46.384C204.534 46.0786 204.949 45.617 205.196 45.064C205.471 44.498 205.616 43.8774 205.62 43.248H205.612Z" fill="#FAFAFA"/>
<path d="M210.275 42.104C210.305 42.0764 210.345 42.0612 210.387 42.0612C210.428 42.0612 210.468 42.0764 210.499 42.104C210.533 42.1432 210.559 42.1889 210.576 42.2383C210.592 42.2878 210.599 42.34 210.595 42.392V44.176C210.593 44.3123 210.56 44.4464 210.499 44.568C210.455 44.6822 210.376 44.7801 210.275 44.848L209.179 45.48C209.147 45.506 209.107 45.5202 209.067 45.5202C209.026 45.5202 208.986 45.506 208.955 45.48C208.92 45.4408 208.894 45.3951 208.878 45.3457C208.861 45.2962 208.855 45.244 208.859 45.192V43.408C208.861 43.2692 208.894 43.1327 208.955 43.008C209 42.897 209.078 42.8022 209.179 42.736L210.275 42.104Z" fill="#FAFAFA"/>
<path d="M213.939 40C213.97 39.9724 214.01 39.9572 214.051 39.9572C214.093 39.9572 214.133 39.9724 214.163 40C214.199 40.0384 214.226 40.084 214.243 40.1336C214.259 40.1833 214.265 40.2359 214.259 40.288V42.064C214.258 42.2029 214.225 42.3396 214.163 42.464C214.12 42.5764 214.041 42.6718 213.939 42.736L212.843 43.368C212.814 43.3973 212.773 43.4137 212.731 43.4137C212.69 43.4137 212.649 43.3973 212.619 43.368C212.584 43.3296 212.557 43.284 212.54 43.2344C212.524 43.1847 212.518 43.1321 212.523 43.08V41.296C212.525 41.1571 212.558 41.0204 212.619 40.896C212.663 40.7836 212.741 40.6882 212.843 40.624L213.939 40Z" fill="#FAFAFA"/>
<path d="M217.603 37.872C217.633 37.8445 217.673 37.8292 217.715 37.8292C217.756 37.8292 217.796 37.8445 217.827 37.872C217.861 37.9112 217.887 37.9569 217.904 38.0063C217.92 38.0558 217.927 38.108 217.923 38.16V39.936C217.922 40.075 217.889 40.212 217.827 40.336C217.781 40.449 217.703 40.5463 217.603 40.616L216.507 41.248C216.475 41.274 216.435 41.2882 216.395 41.2882C216.354 41.2882 216.314 41.274 216.283 41.248C216.218 41.1636 216.186 41.0581 216.195 40.952V39.2C216.198 39.0622 216.228 38.9264 216.283 38.8C216.331 38.6906 216.409 38.5965 216.507 38.528L217.603 37.872Z" fill="#FAFAFA"/>
<path d="M126.9 85.224C134.028 85.56 138.628 86.824 142.356 91.208C146.084 95.592 164.852 122.28 164.852 122.28C164.852 122.28 161.556 131.528 154.34 130.736L140.196 113.6L126.9 85.224Z" fill="#FFBE9D"/>
<path d="M127.492 85.072C127.492 85.072 135.084 85.192 138.54 87.616C141.996 90.04 142.596 90.552 147.7 97.6C152.804 104.648 157.38 111.016 157.38 111.016C154.561 115.551 150.174 118.89 145.052 120.4L130.044 102.312L127.492 85.072Z" fill="#37474F"/>
<path d="M90.8613 297.816H102.693L102.453 279.696L90.8613 281.512V297.816Z" fill="#FFBE9D"/>
<path d="M130.901 285.672L142.117 286.056L141.677 266.768L129.277 266.04L130.901 285.672Z" fill="#FFBE9D"/>
<path d="M115.117 316.856C115.461 317.176 115.357 319.368 114.981 319.96C114.605 320.552 110.661 322.576 106.469 322.872C102.469 323.16 98.8766 322.624 96.5246 321.128C94.1726 319.632 93.0366 317.984 92.8126 315.704C92.5886 313.424 92.8126 311.216 91.7566 309.456C90.7486 307.856 89.1486 306.008 88.8046 305.128C88.0446 303.216 88.8046 300.48 88.8046 300.48L115.117 316.856Z" fill="#263238"/>
<path d="M104.148 296.92C104.179 297.786 104.335 298.643 104.612 299.464C105.227 301.231 106.052 302.918 107.068 304.488C107.571 305.312 108.129 306.101 108.74 306.848C109.948 308.288 111.46 309.472 112.74 310.848C114.107 312.154 114.981 313.892 115.212 315.768C115.388 318.912 110.412 319.976 107.748 320.448C104.906 320.942 101.99 320.794 99.2122 320.016C97.752 319.637 96.4324 318.844 95.412 317.733C94.3916 316.622 93.7138 315.239 93.4602 313.752C93.3162 312.88 93.3722 311.992 93.2682 311.112C92.9189 309.101 92.078 307.208 90.8202 305.6C90.0888 304.674 89.4611 303.671 88.9482 302.608C88.1482 300.664 88.7882 298.472 89.3082 296.536C89.7642 294.864 90.2762 292.968 90.8602 293.128C90.8602 293.992 90.8602 294.08 91.4842 294.672C92.2842 295.416 92.2842 296.536 93.1322 297.192C92.8685 296.468 92.673 295.721 92.5482 294.96C92.4976 294.651 92.5632 294.335 92.7322 294.072C93.005 293.823 93.3346 293.644 93.6922 293.552C94.9318 293.134 96.2103 292.842 97.5082 292.68C99.2784 292.476 101.066 292.476 102.836 292.68C103.202 292.747 103.533 292.939 103.772 293.224C103.991 293.539 104.109 293.913 104.108 294.296C104.164 294.792 104.124 296.088 104.148 296.92Z" fill="#455A64"/>
<path d="M107.492 305.144C106.324 304.272 102.1 304.256 100.66 304.408C99.2034 304.535 97.8029 305.028 96.5876 305.84C96.4088 305.969 96.1899 306.031 95.9699 306.013C95.75 305.995 95.5436 305.9 95.3876 305.744V305.744C95.2952 305.656 95.2232 305.549 95.1768 305.43C95.1304 305.311 95.1107 305.183 95.1191 305.055C95.1275 304.928 95.1638 304.804 95.2254 304.692C95.287 304.58 95.3724 304.483 95.4756 304.408C96.8147 303.425 98.403 302.837 100.06 302.712C102.122 302.556 104.196 302.674 106.228 303.064C106.228 303.064 107.836 304.104 107.492 305.144Z" fill="#F5F5F5"/>
<path d="M110.181 308.368C108.709 307.496 104.229 307.624 102.789 307.776C101.346 307.913 99.9649 308.432 98.7888 309.28C98.6103 309.409 98.3922 309.47 98.1728 309.454C97.9533 309.438 97.7466 309.345 97.5888 309.192V309.192C97.4963 309.104 97.4244 308.997 97.378 308.878C97.3316 308.759 97.3119 308.631 97.3202 308.503C97.3286 308.376 97.3649 308.252 97.4265 308.14C97.4881 308.028 97.5736 307.931 97.6768 307.856C98.5488 307.208 101.837 306.168 103.965 306.016C107.493 305.768 108.413 306.488 108.413 306.488C108.832 306.644 109.21 306.895 109.517 307.221C109.824 307.547 110.051 307.94 110.181 308.368V308.368Z" fill="#F5F5F5"/>
<path d="M98.6607 299.336C100.677 299.099 102.72 299.223 104.693 299.704C105.317 300.056 105.725 301.04 105.325 301.304C104.525 300.864 101.525 300.688 99.7887 300.76C98.4675 300.896 97.1779 301.25 95.9727 301.808C95.6767 301.944 95.3167 302.136 95.0047 302.304C94.907 302.365 94.7972 302.405 94.6828 302.42C94.5684 302.435 94.4521 302.425 94.3419 302.391C94.2317 302.357 94.1303 302.299 94.0444 302.222C93.9586 302.145 93.8905 302.05 93.8447 301.944C93.7648 301.768 93.7516 301.568 93.8075 301.383C93.8634 301.198 93.9846 301.039 94.1487 300.936C95.5198 300.084 97.059 299.538 98.6607 299.336V299.336Z" fill="#F5F5F5"/>
<path d="M164.132 298.72C164.437 299.64 164.379 300.641 163.972 301.52C163.588 302.32 159.308 304.72 153.572 304.36C149.295 304.059 145.177 302.62 141.644 300.192C139.444 298.736 137.156 298.464 134.3 298.296C131.444 298.128 127.692 296.696 127.1 295.376C126.508 294.056 127.196 291.744 127.196 291.744L164.132 298.72Z" fill="#263238"/>
<path d="M140.86 280.72L141.316 280.624C141.567 280.572 141.826 280.572 142.076 280.624C142.355 280.713 142.602 280.879 142.788 281.104C143.35 281.827 143.843 282.601 144.26 283.416C145.468 285.392 148.004 287.024 150.78 288.512C152.66 289.528 154.508 290.312 156.452 291.184C158.396 292.056 161.068 292.624 162.628 293.672C164.884 295.2 165.18 299.032 162.628 300.544C160.404 301.848 154.548 303.264 148.412 301.528C145.068 300.576 141.356 297.008 136.964 296.664C134.172 296.44 128.892 295.656 127.1 293.536C126.436 292.6 127.316 289.616 128.044 287.048C128.844 284.24 129.596 279.848 130.532 280.104C130.523 280.304 130.562 280.504 130.646 280.686C130.729 280.868 130.855 281.028 131.012 281.152C131.391 281.474 131.786 281.775 132.196 282.056C132.842 282.697 133.365 283.451 133.74 284.28C133.894 284.653 134.178 284.958 134.54 285.136C135.012 285.312 135.34 285.016 135.78 284.824C136.303 284.586 136.893 284.544 137.444 284.704C137.389 284.148 137.29 283.597 137.148 283.056C137.087 282.887 137.073 282.704 137.108 282.528C137.178 282.357 137.306 282.216 137.468 282.128C138.487 281.425 139.643 280.946 140.86 280.72Z" fill="#455A64"/>
<path d="M148.173 286.96C147.969 286.578 147.672 286.254 147.31 286.016C146.948 285.779 146.532 285.636 146.101 285.6C144.829 285.36 142.589 286.296 141.197 287.448C141.064 287.555 140.96 287.693 140.893 287.851C140.827 288.008 140.8 288.179 140.815 288.349C140.83 288.518 140.886 288.682 140.979 288.825C141.073 288.968 141.199 289.086 141.349 289.168V289.168C141.535 289.273 141.749 289.317 141.961 289.294C142.174 289.271 142.374 289.182 142.533 289.04C144.068 287.635 146.093 286.888 148.173 286.96V286.96Z" fill="#F5F5F5"/>
<path d="M152.108 289.16C151.835 288.777 151.476 288.463 151.059 288.245C150.642 288.027 150.179 287.91 149.708 287.904C149.708 287.904 146.388 288 144.332 289.912C144.206 290.017 144.107 290.151 144.044 290.302C143.98 290.454 143.954 290.618 143.969 290.782C143.983 290.945 144.036 291.103 144.125 291.241C144.213 291.38 144.334 291.495 144.476 291.576V291.576C144.657 291.675 144.865 291.716 145.07 291.691C145.275 291.667 145.468 291.579 145.62 291.44C146.464 290.602 147.484 289.962 148.607 289.567C149.729 289.173 150.925 289.034 152.108 289.16V289.16Z" fill="#F5F5F5"/>
<path d="M156.452 291.144C156.136 290.783 155.745 290.495 155.308 290.299C154.87 290.103 154.395 290.004 153.916 290.008C152.03 290.126 150.229 290.837 148.772 292.04C148.645 292.145 148.546 292.279 148.483 292.43C148.42 292.582 148.394 292.746 148.408 292.91C148.422 293.073 148.476 293.231 148.564 293.369C148.653 293.508 148.773 293.622 148.916 293.704C149.097 293.818 149.312 293.87 149.525 293.851C149.739 293.832 149.941 293.744 150.1 293.6C150.896 292.727 151.884 292.05 152.987 291.624C154.089 291.198 155.275 291.034 156.452 291.144Z" fill="#F5F5F5"/>
<path d="M92.6604 153.168C91.9324 175.184 91.8604 220.216 91.8604 220.216C91.6284 222.96 91.3964 227.832 91.1884 237.696C90.9004 252 90.9004 288.752 90.9004 288.752C95.0387 289.75 99.3836 289.454 103.348 287.904C103.348 287.904 112.076 238.256 113.86 224.088C115.42 211.736 118.068 178.16 118.068 178.16L123.468 218.504C122.912 224.816 122.789 231.159 123.1 237.488C123.564 244.04 130.228 277.72 130.228 277.72C130.228 277.72 135.188 280.024 142.012 277.72C142.012 277.72 142.108 224.512 142.228 218.52C142.356 211.664 141.604 141.384 141.604 141.384L92.6604 153.168Z" fill="#DB2228"/>
<path opacity="0.3" d="M92.6604 153.168C91.9324 175.184 91.8604 220.216 91.8604 220.216C91.6284 222.96 91.3964 227.832 91.1884 237.696C90.9004 252 90.9004 288.752 90.9004 288.752C95.0387 289.75 99.3836 289.454 103.348 287.904C103.348 287.904 112.076 238.256 113.86 224.088C115.42 211.736 118.068 178.16 118.068 178.16L123.468 218.504C122.912 224.816 122.789 231.159 123.1 237.488C123.564 244.04 130.228 277.72 130.228 277.72C130.228 277.72 135.188 280.024 142.012 277.72C142.012 277.72 142.108 224.512 142.228 218.52C142.356 211.664 141.604 141.384 141.604 141.384L92.6604 153.168Z" fill="black"/>
<path opacity="0.2" d="M118.029 178.16C118.029 178.16 126.029 175.912 131.909 170.2C131.909 170.2 129.229 175.216 121.261 179.88L122.965 215.08L118.029 178.16Z" fill="black"/>
<path d="M112.213 84.288C107.749 84.72 101.509 84.776 97.0769 85.224C94.0049 86.488 88.1009 91.624 88.5409 95.304C90.1409 109.024 93.0449 131.68 93.0449 131.68L92.1729 155.336C98.3089 161.456 127.285 163.84 142.077 154.04C142.077 154.04 141.597 111.232 140.581 104.016C138.757 91.04 137.157 86.224 130.461 85.072C123.765 83.92 112.213 84.288 112.213 84.288Z" fill="#455A64"/>
<path d="M137.839 57.1279C140.586 50.0045 137.038 42.0028 129.915 39.2555C122.792 36.5083 114.79 40.0558 112.043 47.1792C109.295 54.3026 112.843 62.3043 119.966 65.0516C127.09 67.7988 135.091 64.2513 137.839 57.1279Z" fill="#263238"/>
<path d="M100.941 61.76C100.941 61.76 103.093 72.312 103.973 74.048C104.567 75.1156 105.546 75.9167 106.709 76.288L106.621 68.888L100.941 61.76Z" fill="#263238"/>
<path d="M103.884 46.704C103.102 46.6066 102.308 46.6885 101.562 46.9436C100.816 47.1986 100.139 47.6201 99.5799 48.176C97.7159 50.048 98.6919 55.96 100.94 61.776L105.156 62.296L103.884 46.704Z" fill="#263238"/>
<path d="M106.421 62.296C105.573 62.8 104.381 61.16 103.349 60.056C102.317 58.952 98.9174 57.432 97.1894 61C95.4614 64.568 98.6134 69.488 101.285 70.352C105.901 71.84 106.621 68.888 106.621 68.888L106.805 86.072C112.493 93.488 128.445 93.008 121.869 85.272V80.192C121.869 80.192 126.053 80.864 128.093 80.568C131.501 80.072 133.693 77.368 134.725 73.736C136.437 67.84 137.125 63.072 135.797 51.44C134.405 38.672 119.589 38.4 111.541 43.376C103.493 48.352 106.421 62.296 106.421 62.296Z" fill="#FFBE9D"/>
<path d="M106.413 63.72C105.989 63.72 104.389 61.024 103.349 60.056C101.901 58.72 103.885 46.704 103.885 46.704C103.39 45.6422 103.227 44.4558 103.417 43.2998C103.607 42.1437 104.141 41.0718 104.949 40.224C106.965 38.04 109.749 35.376 118.845 36.528C125.309 37.328 132.325 39.432 138.045 36.688C138.557 38.5461 138.501 40.5146 137.885 42.3407C137.269 44.1668 136.121 45.7671 134.589 46.936C134.589 46.936 132.517 48.248 127.093 48.856C121.669 49.464 113.245 48.608 112.093 48.44C110.493 48.216 110.181 49.736 109.293 53.88C108.501 57.528 107.845 63.704 106.413 63.72Z" fill="#263238"/>
<path d="M103.885 47.64L98.7969 44.848C98.9628 44.505 99.1966 44.1992 99.4841 43.9491C99.7716 43.6991 100.107 43.51 100.47 43.3933C100.832 43.2766 101.215 43.2348 101.594 43.2703C101.974 43.3058 102.342 43.418 102.677 43.6C103.36 43.9879 103.867 44.6246 104.092 45.3774C104.317 46.1301 104.243 46.9407 103.885 47.64V47.64Z" fill="#263238"/>
<path d="M121.901 80.176C121.901 80.176 114.325 78.576 111.685 77.152C110.132 76.3222 108.864 75.0459 108.045 73.488C108.436 75.043 109.135 76.5037 110.101 77.784C112.021 80.28 121.893 82.2 121.893 82.2L121.901 80.176Z" fill="#EB996E"/>
<path d="M123.229 61.776C123.214 62.0734 123.111 62.3596 122.934 62.5991C122.757 62.8387 122.514 63.0209 122.234 63.1233C121.954 63.2256 121.651 63.2436 121.361 63.1749C121.071 63.1062 120.808 62.954 120.604 62.737C120.4 62.52 120.264 62.2478 120.214 61.9544C120.163 61.6609 120.2 61.359 120.319 61.0862C120.439 60.8134 120.635 60.5817 120.885 60.4199C121.135 60.2581 121.428 60.1732 121.725 60.176C121.929 60.1822 122.13 60.2285 122.316 60.3123C122.502 60.3961 122.669 60.5157 122.809 60.6643C122.949 60.8129 123.058 60.9875 123.13 61.1783C123.202 61.369 123.236 61.5721 123.229 61.776Z" fill="#263238"/>
<path d="M122.308 54.704L119.108 56.632C118.861 56.1958 118.79 55.6815 118.911 55.1949C119.032 54.7084 119.334 54.2865 119.756 54.016C119.967 53.8863 120.202 53.801 120.447 53.7654C120.692 53.7299 120.941 53.7447 121.18 53.8092C121.419 53.8736 121.643 53.9862 121.837 54.1401C122.031 54.294 122.191 54.4859 122.308 54.704V54.704Z" fill="#263238"/>
<path d="M135.372 58.352L132.5 55.952C132.648 55.7576 132.835 55.5953 133.047 55.4749C133.26 55.3545 133.495 55.2786 133.738 55.2517C133.981 55.2247 134.227 55.2474 134.461 55.3183C134.696 55.3891 134.913 55.5068 135.1 55.664C135.48 55.9927 135.72 56.4542 135.77 56.9539C135.821 57.4537 135.678 57.9539 135.372 58.352V58.352Z" fill="#263238"/>
<path d="M134.141 61.776C134.144 61.9711 134.109 62.1648 134.037 62.3461C133.965 62.5274 133.858 62.6927 133.722 62.8324C133.586 62.9722 133.423 63.0837 133.244 63.1605C133.065 63.2373 132.872 63.2779 132.677 63.28C132.282 63.2675 131.907 63.0988 131.636 62.811C131.365 62.5231 131.218 62.1395 131.229 61.744C131.229 61.5528 131.267 61.3635 131.34 61.1868C131.413 61.0102 131.52 60.8497 131.656 60.7145C131.791 60.5793 131.951 60.472 132.128 60.3989C132.305 60.3257 132.494 60.288 132.685 60.288C132.876 60.288 133.066 60.3257 133.242 60.3989C133.419 60.472 133.579 60.5793 133.715 60.7145C133.85 60.8497 133.957 61.0102 134.03 61.1868C134.103 61.3635 134.141 61.5528 134.141 61.744V61.776Z" fill="#263238"/>
<path d="M127.173 59.808L126.605 68.952L131.541 67.888L127.173 59.808Z" fill="#EB996E"/>
<path d="M123.766 72.968C123.766 73.256 123.68 73.5375 123.52 73.7769C123.36 74.0163 123.133 74.203 122.867 74.3132C122.601 74.4234 122.308 74.4522 122.025 74.396C121.743 74.3398 121.484 74.2012 121.28 73.9975C121.076 73.7939 120.938 73.5345 120.881 73.252C120.825 72.9696 120.854 72.6768 120.964 72.4108C121.075 72.1448 121.261 71.9174 121.501 71.7574C121.74 71.5974 122.022 71.512 122.31 71.512C122.501 71.5109 122.691 71.5479 122.868 71.6207C123.045 71.6935 123.206 71.8007 123.341 71.9361C123.477 72.0715 123.584 72.2324 123.657 72.4095C123.73 72.5867 123.767 72.7765 123.766 72.968Z" fill="#EB996E"/>
<path d="M79.2123 68.152C82.6123 64.496 84.9643 61.752 88.0123 58.6C89.7643 56.832 90.8923 55.552 92.5883 53.728C93.7563 52.472 94.4763 51.384 95.6523 51.08C96.9625 50.6977 98.1762 50.0404 99.2123 49.152C99.8429 48.5774 100.439 47.9657 100.996 47.32C102.959 45.2045 105.217 43.3831 107.7 41.912C110.292 40.36 113.092 39.272 115.7 37.816C117.3 36.944 119.028 35.416 117.412 33.624C116.893 33.0911 116.246 32.7 115.532 32.488C111.26 31.096 107.276 32.24 102.86 32.864C101.046 33.1183 99.2559 33.5223 97.5083 34.072C96.6141 34.3199 95.762 34.7001 94.9803 35.2C93.8543 36.1095 92.8959 37.2087 92.1483 38.448C89.8923 41.6 86.1003 44.544 83.0043 46.856C79.4283 49.576 75.9163 52.496 72.2523 55.064C68.5081 57.6414 64.9055 60.4188 61.4603 63.384C58.6283 65.864 58.9163 67.504 59.2043 68.28C60.8043 72.752 62.9643 74.528 65.4523 77.456C70.6363 83.56 93.1483 106.56 93.1483 106.56L96.6443 100.104C98.4224 96.8304 99.03 93.0481 98.3667 89.3823C97.7034 85.7165 95.8088 82.3869 92.9963 79.944C88.2843 75.848 83.1883 71.408 79.2123 68.152Z" fill="#FFBE9D"/>
<path d="M99.6995 84.8C93.2995 79.808 81.9875 70.176 81.9875 70.176C81.9875 70.176 81.5395 81.496 73.3555 87.032C73.3555 87.032 88.3235 103.032 92.2515 106.88C95.8995 106.08 99.0275 103.136 100.075 97.488C101.843 87.904 99.6995 84.8 99.6995 84.8Z" fill="#37474F"/>
<path d="M79.2131 68.152C76.9689 70.384 74.1312 71.925 71.0371 72.592C71.0371 72.592 74.7411 73.696 80.7091 69.392L79.2131 68.152Z" fill="#EB996E"/>
<path d="M175.116 308.488C173.516 307.584 172.156 307.408 171.116 307.984C169.996 308.632 169.348 310.248 169.348 312.408V328.048C169.348 332.688 167.708 336.216 164.732 338.008L182.396 327.824V321.792C182.436 316.872 179.084 310.776 175.116 308.488Z" fill="#F0F0F0"/>
<path d="M202.731 339.44C201.595 338.784 200.587 338.64 199.891 339.04C199.195 339.44 198.635 340.688 198.635 342.304V352.568C198.635 355.36 197.595 357.56 195.779 358.608L208.435 351.312V349.808C208.435 345.976 205.827 341.224 202.731 339.44Z" fill="#F0F0F0"/>
<path opacity="0.15" d="M175.116 308.488C173.516 307.584 172.156 307.408 171.116 307.984C169.996 308.632 169.348 310.248 169.348 312.408V328.048C169.348 332.688 167.708 336.216 164.732 338.008L182.396 327.824V321.792C182.436 316.872 179.084 310.776 175.116 308.488Z" fill="black"/>
<path opacity="0.15" d="M202.731 339.44C201.595 338.784 200.587 338.64 199.891 339.04C199.195 339.44 198.635 340.688 198.635 342.304V352.568C198.635 355.36 197.595 357.56 195.779 358.608L208.435 351.312V349.808C208.435 345.976 205.827 341.224 202.731 339.44Z" fill="black"/>
<path d="M265.299 337.12L254.667 343.256L253.283 344.056L224.651 360.568V368.072C224.651 370.616 223.731 372.584 222.051 373.608L264.195 349.304C265.939 348.296 266.899 346.304 266.899 343.704V336.2L265.299 337.12Z" fill="#F0F0F0"/>
<path d="M265.283 336.2L254.243 342.568L252.859 343.368L223.035 360.568H224.635L253.267 344.056L254.651 343.256L265.283 337.12L266.883 336.2H265.283Z" fill="#FAFAFA"/>
<path d="M128.795 152.32V168.8C128.795 172.112 126.611 173.536 123.915 172C122.497 171.074 121.318 169.828 120.471 168.362C119.625 166.895 119.136 165.251 119.043 163.56V157.96L128.795 152.32Z" fill="#F0F0F0"/>
<path d="M132.868 137.752C132.626 137.563 132.341 137.437 132.038 137.384C131.735 137.331 131.424 137.353 131.132 137.448C130.853 137.717 130.641 138.047 130.513 138.412C130.386 138.778 130.345 139.168 130.396 139.552V168.8C130.396 170.976 129.596 172.72 128.164 173.6L136.964 168.536V145.184C136.94 142.4 135.076 139.024 132.868 137.752Z" fill="#E6E6E6"/>
<path d="M128.795 151.4V152.32L119.043 157.944H117.443L128.795 151.4Z" fill="#FAFAFA"/>
<path d="M252.284 335.704V325.44C252.284 321.024 249.372 315.76 245.78 313.688C244.108 312.72 242.58 312.616 241.428 313.24L241.18 313.384L226.356 321.936L224.86 322.792L199.26 337.56C200.404 336.992 201.892 337.112 203.524 338.056C207.116 340.128 210.028 345.392 210.028 349.808V360.072C210.028 364.496 212.94 369.752 216.524 371.832C220.108 373.912 223.028 372.224 223.028 368.072V360.568L252.852 343.368L254.236 342.568C253.024 340.478 252.353 338.119 252.284 335.704V335.704Z" fill="#FAFAFA"/>
<path d="M226.284 320.696V297.424C226.284 291.896 222.652 285.32 218.164 282.728C216.076 281.528 214.164 281.4 212.732 282.16L212.364 282.376L184.084 298.68L182.724 299.48L170.572 306.488C172.004 305.776 173.868 305.928 175.916 307.104C180.404 309.696 184.036 316.272 184.036 321.8V345.072C184.036 349.496 186.948 354.752 190.54 356.824C194.132 358.896 197.036 357 197.036 352.576V342.304C197.036 339.96 197.836 338.304 199.164 337.616L199.268 337.56L224.868 322.792L226.364 321.936C226.314 321.525 226.287 321.11 226.284 320.696V320.696Z" fill="#F5F5F5"/>
<path d="M180.787 286.4V120.8C180.787 117.488 178.603 113.536 175.915 112C175.446 111.667 174.899 111.461 174.327 111.402C173.755 111.343 173.178 111.433 172.651 111.664L172.459 111.776L130.459 136C130.981 135.789 131.547 135.712 132.106 135.777C132.665 135.841 133.199 136.044 133.659 136.368C136.347 137.92 138.531 141.872 138.531 145.168V310.768C138.531 319.608 144.739 330.352 152.387 334.768L153.923 335.656C161.579 340.072 167.779 336.648 167.779 328.016V312.408C167.779 309.592 168.723 307.608 170.251 306.656L170.563 306.48L182.715 299.472L184.075 298.672C182.035 294.894 180.909 290.691 180.787 286.4Z" fill="#FAFAFA"/>
<path d="M224.636 360.568V368.072C224.636 370.616 223.716 372.584 222.036 373.608L221.844 373.72C221.107 374.119 220.281 374.325 219.444 374.32C218.134 374.282 216.856 373.901 215.74 373.216C211.652 370.816 208.444 365.08 208.444 360.072V349.808C208.444 345.976 205.836 341.224 202.74 339.408C201.604 338.752 200.596 338.608 199.9 339.008C199.204 339.408 198.644 340.656 198.644 342.272V352.536C198.644 355.328 197.604 357.528 195.788 358.576C193.972 359.624 191.916 359.424 189.748 358.168C185.652 355.808 182.444 350.04 182.444 345.032V321.792C182.444 316.872 179.092 310.776 175.124 308.488C173.524 307.584 172.164 307.408 171.124 307.984C170.004 308.632 169.356 310.248 169.356 312.408V328.048C169.356 332.688 167.716 336.216 164.74 338.008L164.492 338.152C161.372 339.888 157.332 339.504 153.116 337.064L151.58 336.176C143.5 331.512 136.924 320.12 136.924 310.792V145.192C136.924 142.44 135.06 139.032 132.852 137.76C132.609 137.571 132.324 137.445 132.021 137.392C131.719 137.339 131.408 137.361 131.116 137.456C130.837 137.725 130.625 138.055 130.497 138.42C130.369 138.786 130.329 139.176 130.38 139.56V168.8C130.38 170.976 129.58 172.72 128.148 173.6L127.908 173.736C127.144 174.095 126.299 174.249 125.458 174.184C124.616 174.118 123.806 173.834 123.108 173.36C121.447 172.292 120.066 170.842 119.08 169.132C118.093 167.421 117.529 165.5 117.436 163.528V157.928H119.036V163.528C119.124 165.225 119.612 166.877 120.46 168.349C121.308 169.821 122.492 171.072 123.916 172C126.612 173.552 128.796 172.128 128.796 168.8V139.52C128.796 137.816 129.372 136.616 130.3 136.056L130.46 135.968C130.981 135.757 131.547 135.68 132.106 135.745C132.665 135.809 133.199 136.012 133.66 136.336C136.348 137.888 138.532 141.84 138.532 145.136V310.736C138.532 319.576 144.74 330.32 152.388 334.736L153.924 335.624C161.58 340.04 167.78 336.616 167.78 327.984V312.408C167.78 309.592 168.724 307.608 170.252 306.656L170.564 306.48C171.996 305.768 173.86 305.92 175.908 307.096C180.396 309.688 184.028 316.264 184.028 321.792V345.064C184.028 349.488 186.94 354.744 190.532 356.816C194.124 358.888 197.028 356.992 197.028 352.568V342.304C197.028 339.96 197.828 338.304 199.156 337.616L199.26 337.56C200.404 336.992 201.892 337.112 203.524 338.056C207.116 340.128 210.028 345.392 210.028 349.808V360.072C210.028 364.496 212.94 369.752 216.524 371.832C220.108 373.912 223.028 372.224 223.028 368.072V360.568H224.636Z" fill="#455A64"/>
<path opacity="0.07" d="M182.436 327.824V321.792C182.436 316.872 179.084 310.776 175.116 308.488C173.516 307.584 172.156 307.408 171.116 307.984C169.996 308.632 169.348 310.248 169.348 312.408V313.664C169.348 309.376 176.772 309.528 176.772 321.504V331.104L182.436 327.824Z" fill="black"/>
<path opacity="0.07" d="M208.435 351.312V349.808C208.435 345.976 205.827 341.224 202.731 339.408C201.595 338.752 200.587 338.608 199.891 339.008C199.195 339.408 198.635 340.656 198.635 342.272V347.408C198.635 342.272 204.235 345.072 204.235 348.896V353.696L208.435 351.312Z" fill="black"/>
<path opacity="0.08" d="M136.94 168.576V145.184C136.94 142.432 135.076 139.024 132.868 137.752C132.626 137.563 132.341 137.437 132.038 137.384C131.735 137.331 131.424 137.353 131.132 137.448C130.853 137.717 130.641 138.047 130.514 138.412C130.386 138.778 130.346 139.168 130.396 139.552V144.8C130.396 141.24 134.284 142.512 134.284 149.136V170.104L136.94 168.576Z" fill="black"/>
<path d="M248.444 325.864C248.122 326.077 247.854 326.363 247.661 326.697C247.468 327.032 247.356 327.407 247.332 327.792C247.332 328.504 247.836 328.792 248.444 328.44C248.768 328.228 249.038 327.944 249.233 327.609C249.427 327.274 249.541 326.899 249.564 326.512C249.564 325.8 249.06 325.512 248.444 325.864Z" fill="#DB2228"/>
<path d="M248.444 338.648C248.121 338.86 247.852 339.145 247.659 339.48C247.466 339.815 247.354 340.19 247.332 340.576C247.332 341.288 247.836 341.576 248.444 341.216C248.77 341.006 249.041 340.722 249.235 340.386C249.43 340.051 249.543 339.675 249.564 339.288C249.564 338.584 249.06 338.296 248.444 338.648Z" fill="#DB2228"/>
<path d="M241.3 316.448C241.61 316.679 241.969 316.834 242.35 316.901C242.731 316.967 243.122 316.944 243.492 316.832C243.631 316.809 243.76 316.744 243.86 316.645C243.96 316.546 244.028 316.418 244.052 316.279C244.077 316.141 244.058 315.998 243.997 315.87C243.937 315.743 243.839 315.637 243.716 315.568C243.406 315.336 243.047 315.179 242.666 315.111C242.286 315.043 241.894 315.065 241.524 315.176C241.382 315.197 241.251 315.261 241.148 315.361C241.045 315.461 240.977 315.59 240.952 315.731C240.927 315.872 240.947 316.017 241.01 316.146C241.072 316.275 241.174 316.38 241.3 316.448V316.448Z" fill="#DB2228"/>
<g opacity="0.3">
<path opacity="0.3" d="M206.788 336.584C206.717 336.583 206.647 336.565 206.586 336.53C206.524 336.495 206.473 336.445 206.436 336.384C206.386 336.29 206.373 336.18 206.402 336.078C206.43 335.975 206.497 335.887 206.588 335.832L237.94 317.736C237.985 317.703 238.037 317.68 238.091 317.668C238.146 317.657 238.203 317.657 238.257 317.668C238.312 317.68 238.364 317.703 238.409 317.735C238.455 317.768 238.493 317.81 238.521 317.858C238.549 317.907 238.567 317.961 238.573 318.016C238.579 318.072 238.573 318.128 238.556 318.181C238.539 318.235 238.511 318.284 238.474 318.326C238.436 318.367 238.391 318.401 238.34 318.424L206.988 336.528C206.926 336.561 206.858 336.58 206.788 336.584Z" fill="#455A64"/>
<path opacity="0.3" d="M211.06 341.024C210.973 341.023 210.888 340.994 210.819 340.94C210.75 340.887 210.7 340.812 210.678 340.728C210.655 340.644 210.661 340.554 210.694 340.473C210.726 340.392 210.785 340.325 210.86 340.28L242.22 322.176C242.311 322.124 242.42 322.109 242.522 322.136C242.623 322.163 242.71 322.229 242.764 322.32C242.816 322.411 242.831 322.52 242.804 322.622C242.777 322.724 242.711 322.811 242.62 322.864L211.26 340.968C211.2 341.006 211.131 341.025 211.06 341.024V341.024Z" fill="#455A64"/>
<path opacity="0.3" d="M213.22 347.144C213.133 347.143 213.048 347.114 212.979 347.06C212.91 347.007 212.861 346.932 212.838 346.848C212.815 346.764 212.821 346.674 212.854 346.593C212.887 346.512 212.945 346.445 213.02 346.4L244.38 328.296C244.472 328.243 244.582 328.229 244.685 328.256C244.788 328.284 244.875 328.352 244.928 328.444C244.981 328.536 244.995 328.646 244.968 328.749C244.94 328.851 244.872 328.939 244.78 328.992L213.42 347.096C213.359 347.129 213.29 347.145 213.22 347.144Z" fill="#455A64"/>
<path opacity="0.3" d="M213.3 353.464C213.213 353.463 213.128 353.434 213.059 353.38C212.99 353.327 212.941 353.252 212.918 353.168C212.895 353.084 212.901 352.994 212.934 352.913C212.967 352.832 213.025 352.765 213.1 352.72L244.452 334.616C244.498 334.59 244.548 334.573 244.601 334.566C244.653 334.559 244.706 334.563 244.757 334.577C244.808 334.59 244.855 334.614 244.897 334.646C244.939 334.678 244.974 334.718 245 334.764C245.027 334.81 245.044 334.86 245.05 334.912C245.057 334.965 245.053 335.018 245.04 335.069C245.026 335.12 245.002 335.167 244.97 335.209C244.938 335.251 244.898 335.286 244.852 335.312L213.5 353.416C213.438 353.448 213.37 353.464 213.3 353.464V353.464Z" fill="#455A64"/>
<path opacity="0.3" d="M213.355 359.784C213.268 359.783 213.183 359.754 213.114 359.7C213.045 359.647 212.995 359.572 212.973 359.488C212.95 359.404 212.956 359.314 212.988 359.233C213.021 359.152 213.08 359.085 213.155 359.04L244.499 340.936C244.591 340.883 244.701 340.869 244.804 340.897C244.906 340.924 244.994 340.992 245.047 341.084C245.1 341.176 245.114 341.286 245.086 341.389C245.059 341.491 244.991 341.579 244.899 341.632L213.547 359.736C213.487 359.767 213.422 359.783 213.355 359.784Z" fill="#455A64"/>
<path opacity="0.3" d="M223.035 360.712V361.6L215.699 365.856C215.639 365.893 215.57 365.913 215.499 365.912C215.412 365.911 215.328 365.882 215.259 365.828C215.19 365.775 215.14 365.7 215.117 365.616C215.095 365.532 215.1 365.442 215.133 365.361C215.166 365.28 215.224 365.213 215.299 365.168L223.035 360.712Z" fill="#455A64"/>
<path opacity="0.3" d="M223.036 367.616V368.072C223.036 368.232 223.036 368.392 223.036 368.544L219.996 370.296C219.937 370.334 219.867 370.353 219.796 370.352C219.709 370.351 219.624 370.322 219.555 370.268C219.486 370.215 219.437 370.14 219.414 370.056C219.391 369.972 219.397 369.882 219.43 369.801C219.463 369.72 219.521 369.653 219.596 369.608L223.036 367.616Z" fill="#455A64"/>
</g>
<path d="M222.419 294.68C222.094 294.891 221.824 295.175 221.631 295.51C221.438 295.845 221.326 296.222 221.307 296.608C221.307 297.312 221.803 297.6 222.419 297.248C222.743 297.037 223.013 296.753 223.206 296.418C223.4 296.083 223.511 295.706 223.531 295.32C223.531 294.608 223.035 294.32 222.419 294.68Z" fill="#DB2228"/>
<path d="M222.419 308.632C222.093 308.842 221.821 309.126 221.627 309.461C221.432 309.796 221.32 310.173 221.299 310.56C221.299 311.264 221.795 311.552 222.411 311.2C222.735 310.989 223.005 310.705 223.199 310.37C223.392 310.035 223.503 309.658 223.523 309.272C223.531 308.56 223.035 308.272 222.419 308.632Z" fill="#DB2228"/>
<path d="M223.531 323.2C223.53 323.322 223.514 323.443 223.483 323.56L221.347 324.8C221.32 324.701 221.307 324.599 221.307 324.496C221.326 324.11 221.438 323.733 221.631 323.398C221.824 323.063 222.094 322.779 222.419 322.568C223.035 322.224 223.531 322.512 223.531 323.2Z" fill="#DB2228"/>
<path d="M213.796 284.984C214.105 285.216 214.465 285.373 214.845 285.441C215.226 285.509 215.618 285.487 215.988 285.376C216.127 285.353 216.256 285.288 216.356 285.189C216.457 285.09 216.524 284.962 216.549 284.823C216.573 284.685 216.554 284.542 216.494 284.414C216.433 284.287 216.335 284.181 216.212 284.112C215.903 283.88 215.543 283.723 215.163 283.655C214.782 283.587 214.391 283.609 214.02 283.72C213.881 283.743 213.752 283.808 213.652 283.907C213.551 284.006 213.484 284.134 213.46 284.273C213.435 284.411 213.454 284.554 213.515 284.682C213.575 284.809 213.673 284.915 213.796 284.984V284.984Z" fill="#DB2228"/>
<g opacity="0.4">
<path opacity="0.4" d="M179.163 305.528C179.076 305.527 178.992 305.498 178.923 305.444C178.854 305.391 178.804 305.316 178.781 305.232C178.759 305.148 178.764 305.058 178.797 304.977C178.83 304.896 178.888 304.829 178.963 304.784L210.763 286.448C210.808 286.421 210.858 286.403 210.91 286.396C210.962 286.388 211.015 286.391 211.066 286.405C211.117 286.418 211.164 286.442 211.206 286.474C211.247 286.506 211.282 286.546 211.308 286.592C211.36 286.685 211.375 286.794 211.348 286.897C211.321 287 211.255 287.089 211.163 287.144L179.363 305.48C179.302 305.512 179.233 305.528 179.163 305.528V305.528Z" fill="#455A64"/>
<path opacity="0.4" d="M183.876 310.104C183.789 310.103 183.704 310.074 183.635 310.02C183.566 309.967 183.517 309.892 183.494 309.808C183.472 309.724 183.477 309.634 183.51 309.553C183.543 309.472 183.601 309.405 183.676 309.36L215.476 291.024C215.569 290.971 215.678 290.957 215.781 290.985C215.884 291.012 215.971 291.08 216.024 291.172C216.077 291.264 216.092 291.374 216.064 291.477C216.036 291.579 215.969 291.667 215.876 291.72L184.076 310.056C184.015 310.088 183.946 310.104 183.876 310.104V310.104Z" fill="#455A64"/>
<path opacity="0.4" d="M186.803 316.536C186.732 316.536 186.662 316.518 186.6 316.483C186.538 316.448 186.487 316.397 186.451 316.336C186.401 316.243 186.389 316.135 186.417 316.033C186.446 315.932 186.512 315.846 186.603 315.792L218.403 297.456C218.448 297.429 218.498 297.411 218.55 297.404C218.602 297.396 218.654 297.399 218.705 297.413C218.756 297.426 218.803 297.45 218.845 297.482C218.886 297.514 218.921 297.554 218.947 297.6C219 297.693 219.014 297.802 218.987 297.905C218.96 298.009 218.894 298.097 218.803 298.152L187.003 316.488C186.941 316.519 186.872 316.535 186.803 316.536V316.536Z" fill="#455A64"/>
<path opacity="0.4" d="M187.283 323.28C187.195 323.279 187.111 323.25 187.042 323.196C186.973 323.143 186.923 323.068 186.9 322.984C186.878 322.9 186.883 322.81 186.916 322.729C186.949 322.648 187.008 322.581 187.083 322.536L218.899 304.2C218.944 304.167 218.996 304.144 219.05 304.132C219.105 304.121 219.162 304.121 219.216 304.132C219.271 304.144 219.323 304.167 219.368 304.199C219.414 304.232 219.452 304.274 219.48 304.322C219.508 304.371 219.525 304.425 219.532 304.48C219.538 304.536 219.532 304.592 219.515 304.645C219.498 304.699 219.47 304.748 219.432 304.79C219.395 304.831 219.35 304.865 219.299 304.888L187.483 323.2C187.426 323.246 187.356 323.274 187.283 323.28Z" fill="#455A64"/>
<path opacity="0.4" d="M187.284 330.12C187.215 330.12 187.146 330.101 187.086 330.066C187.025 330.031 186.975 329.981 186.94 329.92C186.888 329.827 186.873 329.718 186.9 329.615C186.927 329.512 186.993 329.423 187.084 329.368L218.9 311.032C218.993 310.979 219.102 310.965 219.205 310.993C219.308 311.02 219.395 311.088 219.448 311.18C219.501 311.272 219.516 311.382 219.488 311.485C219.46 311.587 219.393 311.675 219.3 311.728L187.5 330.064C187.434 330.101 187.36 330.12 187.284 330.12V330.12Z" fill="#455A64"/>
<path opacity="0.4" d="M187.283 336.952C187.195 336.951 187.111 336.922 187.042 336.868C186.973 336.815 186.923 336.74 186.9 336.656C186.878 336.572 186.883 336.482 186.916 336.401C186.949 336.32 187.008 336.253 187.083 336.208L218.899 317.872C218.944 317.839 218.996 317.816 219.05 317.804C219.105 317.793 219.162 317.793 219.216 317.804C219.271 317.816 219.323 317.839 219.368 317.871C219.414 317.904 219.452 317.946 219.48 317.994C219.508 318.043 219.525 318.097 219.532 318.152C219.538 318.208 219.532 318.264 219.515 318.317C219.498 318.371 219.47 318.42 219.432 318.462C219.395 318.503 219.35 318.537 219.299 318.56L187.499 336.896C187.434 336.937 187.359 336.957 187.283 336.952Z" fill="#455A64"/>
<path opacity="0.4" d="M187.291 343.776C187.22 343.777 187.15 343.759 187.088 343.724C187.026 343.689 186.975 343.638 186.939 343.576C186.912 343.531 186.895 343.48 186.888 343.428C186.881 343.376 186.885 343.323 186.899 343.272C186.913 343.221 186.938 343.174 186.971 343.132C187.004 343.091 187.045 343.057 187.091 343.032L218.899 324.696C218.992 324.643 219.101 324.629 219.204 324.655C219.307 324.682 219.396 324.749 219.451 324.84C219.503 324.932 219.516 325.041 219.487 325.143C219.459 325.245 219.391 325.332 219.299 325.384L187.507 343.72C187.442 343.76 187.367 343.78 187.291 343.776V343.776Z" fill="#455A64"/>
<path opacity="0.4" d="M197.035 345.04V345.968L189.459 350.336C189.398 350.37 189.329 350.39 189.259 350.392C189.189 350.392 189.121 350.373 189.06 350.338C189 350.303 188.95 350.252 188.915 350.192C188.862 350.099 188.848 349.99 188.875 349.887C188.901 349.783 188.968 349.695 189.059 349.64L197.035 345.04Z" fill="#455A64"/>
<path opacity="0.4" d="M197.035 352.512V352.568C197.035 352.867 197.019 353.166 196.987 353.464L193.987 355.2C193.926 355.237 193.857 355.256 193.787 355.256C193.699 355.255 193.615 355.226 193.546 355.172C193.477 355.119 193.427 355.044 193.404 354.96C193.382 354.876 193.387 354.786 193.42 354.705C193.453 354.624 193.511 354.557 193.587 354.512L197.035 352.512Z" fill="#455A64"/>
</g>
<path d="M177.923 126.624C177.599 126.836 177.33 127.121 177.137 127.456C176.944 127.791 176.832 128.166 176.811 128.552C176.811 129.264 177.307 129.552 177.923 129.2C178.246 128.988 178.515 128.703 178.708 128.368C178.901 128.033 179.013 127.658 179.035 127.272C179.035 126.56 178.539 126.272 177.923 126.624Z" fill="#DB2228"/>
<path d="M173.083 115.2C173.392 115.433 173.752 115.59 174.133 115.656C174.514 115.723 174.906 115.698 175.275 115.584C175.414 115.561 175.543 115.496 175.643 115.397C175.744 115.298 175.811 115.17 175.836 115.031C175.86 114.893 175.841 114.75 175.781 114.622C175.721 114.495 175.622 114.389 175.499 114.32C175.19 114.087 174.83 113.931 174.449 113.865C174.068 113.798 173.677 113.822 173.307 113.936C173.168 113.959 173.039 114.024 172.939 114.123C172.839 114.222 172.771 114.35 172.747 114.489C172.722 114.627 172.741 114.77 172.802 114.898C172.862 115.025 172.96 115.131 173.083 115.2Z" fill="#DB2228"/>
<path d="M177.923 146.48C177.598 146.691 177.328 146.975 177.135 147.31C176.941 147.645 176.83 148.022 176.811 148.408C176.811 149.12 177.307 149.4 177.923 149.048C178.247 148.837 178.517 148.553 178.71 148.218C178.904 147.883 179.015 147.506 179.035 147.12C179.035 146.4 178.539 146.128 177.923 146.48Z" fill="#DB2228"/>
<path d="M177.923 159.712C177.599 159.924 177.33 160.208 177.136 160.543C176.943 160.878 176.832 161.254 176.811 161.64C176.811 162.352 177.307 162.64 177.923 162.28C178.247 162.069 178.517 161.785 178.71 161.45C178.904 161.115 179.015 160.738 179.035 160.352C179.035 159.648 178.539 159.36 177.923 159.712Z" fill="#DB2228"/>
<path d="M177.923 172.944C177.599 173.156 177.33 173.441 177.137 173.776C176.944 174.111 176.832 174.486 176.811 174.872C176.811 175.584 177.307 175.872 177.923 175.52C178.246 175.308 178.515 175.023 178.708 174.688C178.901 174.353 179.013 173.978 179.035 173.592C179.035 172.88 178.539 172.592 177.923 172.944Z" fill="#DB2228"/>
<path d="M177.923 186.184C177.598 186.395 177.328 186.679 177.135 187.014C176.941 187.349 176.83 187.726 176.811 188.112C176.811 188.816 177.307 189.104 177.923 188.752C178.247 188.541 178.517 188.257 178.71 187.922C178.904 187.587 179.015 187.21 179.035 186.824C179.035 186.112 178.539 185.824 177.923 186.184Z" fill="#DB2228"/>
<path d="M177.923 199.416C177.598 199.627 177.328 199.911 177.135 200.246C176.941 200.581 176.83 200.958 176.811 201.344C176.811 202.056 177.307 202.344 177.923 201.984C178.247 201.773 178.517 201.489 178.71 201.154C178.904 200.819 179.015 200.442 179.035 200.056C179.035 199.352 178.539 199.064 177.923 199.416Z" fill="#DB2228"/>
<path d="M177.923 212.648C177.599 212.86 177.33 213.144 177.136 213.479C176.943 213.814 176.832 214.19 176.811 214.576C176.811 215.288 177.307 215.576 177.923 215.216C178.246 215.006 178.515 214.723 178.709 214.389C178.902 214.056 179.013 213.681 179.035 213.296C179.035 212.584 178.539 212.296 177.923 212.648Z" fill="#DB2228"/>
<path d="M177.923 225.888C177.599 226.098 177.33 226.381 177.137 226.715C176.943 227.048 176.832 227.423 176.811 227.808C176.811 228.52 177.307 228.808 177.923 228.456C178.246 228.244 178.515 227.96 178.709 227.625C178.902 227.29 179.013 226.914 179.035 226.528C179.035 225.816 178.539 225.528 177.923 225.888Z" fill="#DB2228"/>
<path d="M177.923 239.12C177.598 239.331 177.328 239.615 177.135 239.95C176.941 240.285 176.83 240.662 176.811 241.048C176.811 241.752 177.307 242.04 177.923 241.688C178.247 241.477 178.517 241.193 178.71 240.858C178.904 240.523 179.015 240.146 179.035 239.76C179.035 239.048 178.539 238.76 177.923 239.12Z" fill="#DB2228"/>
<path d="M177.923 252.352C177.598 252.563 177.328 252.847 177.135 253.182C176.941 253.517 176.83 253.894 176.811 254.28C176.811 254.992 177.307 255.28 177.923 254.92C178.247 254.709 178.517 254.425 178.71 254.09C178.904 253.755 179.015 253.378 179.035 252.992C179.035 252.288 178.539 252 177.923 252.352Z" fill="#DB2228"/>
<path d="M177.923 265.6C177.599 265.812 177.33 266.097 177.137 266.432C176.944 266.767 176.832 267.142 176.811 267.528C176.811 268.24 177.307 268.528 177.923 268.176C178.246 267.964 178.515 267.679 178.708 267.344C178.901 267.009 179.013 266.634 179.035 266.248C179.035 265.52 178.539 265.232 177.923 265.6Z" fill="#DB2228"/>
<path d="M177.923 278.824C177.598 279.035 177.328 279.319 177.135 279.654C176.941 279.989 176.83 280.366 176.811 280.752C176.811 281.456 177.307 281.744 177.923 281.392C178.247 281.181 178.517 280.897 178.71 280.562C178.904 280.227 179.015 279.85 179.035 279.464C179.035 278.752 178.539 278.464 177.923 278.824Z" fill="#DB2228"/>
<path d="M177.923 292.056C177.598 292.267 177.328 292.551 177.135 292.886C176.941 293.221 176.83 293.598 176.811 293.984C176.811 294.696 177.307 294.976 177.923 294.624C178.247 294.413 178.517 294.129 178.71 293.794C178.904 293.459 179.015 293.082 179.035 292.696C179.035 292 178.539 291.704 177.923 292.056Z" fill="#DB2228"/>
<g opacity="0.5">
<path opacity="0.5" d="M138.603 135.792C138.516 135.791 138.431 135.762 138.362 135.708C138.293 135.655 138.243 135.58 138.221 135.496C138.198 135.412 138.204 135.322 138.237 135.241C138.269 135.16 138.328 135.093 138.403 135.048L170.835 116.32C170.881 116.294 170.931 116.277 170.983 116.27C171.036 116.263 171.089 116.267 171.14 116.28C171.19 116.294 171.238 116.318 171.28 116.35C171.322 116.382 171.357 116.422 171.383 116.468C171.409 116.514 171.426 116.564 171.433 116.616C171.44 116.669 171.436 116.722 171.422 116.773C171.409 116.824 171.385 116.871 171.353 116.913C171.321 116.955 171.281 116.99 171.235 117.016L138.803 135.736C138.743 135.774 138.674 135.793 138.603 135.792V135.792Z" fill="#455A64"/>
<path opacity="0.5" d="M141.572 141.504C141.484 141.503 141.4 141.474 141.331 141.42C141.262 141.367 141.212 141.292 141.189 141.208C141.167 141.124 141.172 141.034 141.205 140.953C141.238 140.872 141.297 140.804 141.372 140.76L173.804 122.032C173.898 121.982 174.007 121.97 174.11 121.998C174.213 122.026 174.301 122.093 174.356 122.184C174.405 122.277 174.417 122.385 174.389 122.487C174.361 122.588 174.294 122.674 174.204 122.728L141.772 141.456C141.71 141.488 141.641 141.504 141.572 141.504Z" fill="#455A64"/>
<path opacity="0.5" d="M142.371 148.056C142.283 148.055 142.199 148.026 142.13 147.972C142.061 147.919 142.011 147.844 141.988 147.76C141.966 147.676 141.971 147.586 142.004 147.505C142.037 147.424 142.095 147.357 142.171 147.312L174.603 128.584C174.695 128.531 174.804 128.517 174.907 128.545C175.01 128.572 175.097 128.64 175.151 128.732C175.204 128.824 175.218 128.934 175.19 129.037C175.162 129.139 175.095 129.227 175.003 129.28L142.571 148C142.509 148.034 142.441 148.053 142.371 148.056Z" fill="#455A64"/>
<path opacity="0.5" d="M142.371 154.696C142.283 154.695 142.199 154.666 142.13 154.612C142.061 154.559 142.011 154.484 141.988 154.4C141.966 154.316 141.971 154.226 142.004 154.145C142.037 154.064 142.095 153.997 142.171 153.952L174.603 135.2C174.695 135.15 174.804 135.138 174.905 135.167C175.006 135.195 175.093 135.261 175.147 135.352C175.174 135.397 175.191 135.447 175.199 135.499C175.206 135.551 175.203 135.604 175.19 135.654C175.176 135.705 175.153 135.753 175.121 135.794C175.088 135.836 175.048 135.87 175.003 135.896L142.571 154.616C142.513 154.662 142.444 154.689 142.371 154.696V154.696Z" fill="#455A64"/>
<path opacity="0.5" d="M142.371 161.336C142.283 161.335 142.199 161.306 142.13 161.252C142.061 161.199 142.011 161.124 141.988 161.04C141.966 160.956 141.971 160.866 142.004 160.785C142.037 160.704 142.095 160.637 142.171 160.592L174.603 141.864C174.648 141.838 174.699 141.821 174.751 141.814C174.803 141.807 174.856 141.811 174.907 141.824C174.958 141.838 175.006 141.862 175.048 141.894C175.089 141.926 175.124 141.966 175.151 142.012C175.177 142.058 175.194 142.108 175.201 142.16C175.207 142.213 175.204 142.266 175.19 142.317C175.176 142.368 175.153 142.415 175.12 142.457C175.088 142.499 175.048 142.534 175.003 142.56L142.571 161.28C142.51 161.317 142.441 161.336 142.371 161.336V161.336Z" fill="#455A64"/>
<path opacity="0.5" d="M142.371 168C142.283 167.999 142.199 167.97 142.13 167.916C142.061 167.863 142.011 167.788 141.988 167.704C141.966 167.62 141.971 167.53 142.004 167.449C142.037 167.368 142.095 167.301 142.171 167.256L174.603 148.528C174.648 148.502 174.699 148.485 174.751 148.478C174.803 148.471 174.856 148.475 174.907 148.488C174.958 148.502 175.006 148.526 175.048 148.558C175.089 148.59 175.124 148.63 175.151 148.676C175.177 148.722 175.194 148.772 175.201 148.824C175.207 148.877 175.204 148.93 175.19 148.981C175.176 149.032 175.153 149.079 175.12 149.121C175.088 149.163 175.048 149.198 175.003 149.224L142.571 167.944C142.51 167.981 142.441 168 142.371 168V168Z" fill="#455A64"/>
<path opacity="0.5" d="M142.371 174.616C142.3 174.617 142.23 174.599 142.168 174.564C142.106 174.529 142.055 174.478 142.019 174.416C141.992 174.371 141.975 174.32 141.968 174.268C141.961 174.216 141.965 174.162 141.979 174.112C141.993 174.061 142.018 174.013 142.051 173.972C142.084 173.931 142.125 173.897 142.171 173.872L174.603 155.144C174.648 155.117 174.698 155.099 174.75 155.092C174.802 155.084 174.855 155.087 174.905 155.101C174.956 155.114 175.004 155.138 175.045 155.17C175.087 155.202 175.121 155.242 175.147 155.288C175.2 155.381 175.214 155.49 175.188 155.593C175.161 155.696 175.094 155.785 175.003 155.84L142.571 174.56C142.511 174.597 142.442 174.616 142.371 174.616V174.616Z" fill="#455A64"/>
<path opacity="0.5" d="M142.371 181.256C142.3 181.257 142.23 181.239 142.168 181.204C142.106 181.169 142.055 181.118 142.019 181.056C141.992 181.011 141.975 180.96 141.968 180.908C141.961 180.856 141.965 180.802 141.979 180.752C141.993 180.701 142.018 180.653 142.051 180.612C142.084 180.571 142.125 180.537 142.171 180.512L174.603 161.784C174.648 161.757 174.698 161.739 174.75 161.732C174.802 161.724 174.855 161.727 174.905 161.741C174.956 161.754 175.004 161.778 175.045 161.81C175.087 161.842 175.121 161.882 175.147 161.928C175.2 162.021 175.214 162.13 175.188 162.233C175.161 162.337 175.094 162.425 175.003 162.48L142.571 181.2C142.511 181.237 142.442 181.256 142.371 181.256V181.256Z" fill="#455A64"/>
<path opacity="0.5" d="M142.371 187.896C142.3 187.897 142.23 187.879 142.168 187.844C142.106 187.809 142.055 187.758 142.019 187.696C141.992 187.651 141.975 187.6 141.968 187.548C141.961 187.496 141.965 187.442 141.979 187.392C141.993 187.341 142.018 187.293 142.051 187.252C142.084 187.211 142.125 187.177 142.171 187.152L174.603 168.424C174.648 168.391 174.7 168.368 174.755 168.356C174.809 168.345 174.866 168.345 174.921 168.356C174.975 168.368 175.027 168.391 175.073 168.423C175.118 168.456 175.156 168.498 175.184 168.546C175.212 168.595 175.23 168.649 175.236 168.704C175.242 168.76 175.236 168.816 175.219 168.869C175.202 168.923 175.174 168.972 175.137 169.014C175.1 169.055 175.054 169.089 175.003 169.112L142.571 187.84C142.511 187.877 142.442 187.896 142.371 187.896V187.896Z" fill="#455A64"/>
<path opacity="0.5" d="M142.371 194.536C142.299 194.537 142.229 194.519 142.167 194.484C142.105 194.449 142.054 194.398 142.019 194.336C141.966 194.242 141.953 194.132 141.981 194.029C142.01 193.926 142.078 193.838 142.171 193.784L174.603 175.064C174.693 175.023 174.795 175.017 174.889 175.047C174.984 175.078 175.063 175.142 175.113 175.227C175.163 175.313 175.179 175.414 175.159 175.511C175.138 175.608 175.083 175.694 175.003 175.752L142.571 194.48C142.51 194.517 142.441 194.536 142.371 194.536V194.536Z" fill="#455A64"/>
<path opacity="0.5" d="M142.371 201.176C142.299 201.177 142.229 201.159 142.167 201.124C142.105 201.089 142.054 201.038 142.019 200.976C141.966 200.882 141.953 200.772 141.981 200.669C142.01 200.566 142.078 200.478 142.171 200.424L174.603 181.704C174.648 181.671 174.699 181.648 174.754 181.636C174.809 181.625 174.865 181.625 174.92 181.636C174.975 181.648 175.027 181.671 175.072 181.703C175.117 181.736 175.155 181.778 175.184 181.826C175.212 181.875 175.229 181.929 175.235 181.984C175.241 182.04 175.236 182.096 175.219 182.149C175.202 182.203 175.174 182.252 175.136 182.294C175.099 182.335 175.054 182.369 175.003 182.392L142.571 201.12C142.509 201.153 142.441 201.172 142.371 201.176V201.176Z" fill="#455A64"/>
<path opacity="0.5" d="M142.371 207.816C142.299 207.817 142.229 207.799 142.167 207.764C142.105 207.729 142.054 207.678 142.019 207.616C141.966 207.522 141.953 207.412 141.981 207.309C142.01 207.206 142.078 207.118 142.171 207.064L174.603 188.344C174.648 188.311 174.699 188.288 174.754 188.276C174.809 188.265 174.865 188.265 174.92 188.276C174.975 188.288 175.027 188.311 175.072 188.343C175.117 188.376 175.155 188.418 175.184 188.466C175.212 188.515 175.229 188.569 175.235 188.624C175.241 188.68 175.236 188.736 175.219 188.789C175.202 188.843 175.174 188.892 175.136 188.934C175.099 188.975 175.054 189.009 175.003 189.032L142.571 207.76C142.509 207.793 142.441 207.812 142.371 207.816V207.816Z" fill="#455A64"/>
<path opacity="0.5" d="M142.371 214.448C142.283 214.447 142.199 214.418 142.13 214.364C142.061 214.311 142.011 214.236 141.988 214.152C141.966 214.068 141.971 213.978 142.004 213.897C142.037 213.816 142.095 213.749 142.171 213.704L174.603 194.984C174.648 194.951 174.699 194.928 174.754 194.916C174.809 194.905 174.865 194.905 174.92 194.916C174.975 194.928 175.027 194.951 175.072 194.983C175.117 195.016 175.155 195.058 175.184 195.106C175.212 195.155 175.229 195.209 175.235 195.264C175.241 195.32 175.236 195.376 175.219 195.429C175.202 195.483 175.174 195.532 175.136 195.574C175.099 195.615 175.054 195.649 175.003 195.672L142.571 214.4C142.508 214.431 142.44 214.447 142.371 214.448V214.448Z" fill="#455A64"/>
<path opacity="0.5" d="M142.371 221.088C142.283 221.087 142.199 221.058 142.13 221.004C142.061 220.951 142.011 220.876 141.988 220.792C141.966 220.708 141.971 220.618 142.004 220.537C142.037 220.456 142.095 220.389 142.171 220.344L174.603 201.6C174.648 201.567 174.699 201.544 174.754 201.532C174.809 201.521 174.865 201.521 174.92 201.532C174.975 201.544 175.027 201.567 175.072 201.599C175.117 201.632 175.155 201.674 175.184 201.722C175.212 201.771 175.229 201.825 175.235 201.88C175.241 201.936 175.236 201.992 175.219 202.045C175.202 202.099 175.174 202.148 175.136 202.19C175.099 202.231 175.054 202.265 175.003 202.288L142.571 221.04C142.508 221.071 142.44 221.087 142.371 221.088V221.088Z" fill="#455A64"/>
<path opacity="0.5" d="M142.371 227.728C142.283 227.727 142.199 227.698 142.13 227.644C142.061 227.591 142.011 227.516 141.988 227.432C141.966 227.348 141.971 227.258 142.004 227.177C142.037 227.096 142.095 227.029 142.171 226.984L174.603 208.256C174.695 208.203 174.804 208.189 174.907 208.216C175.01 208.244 175.097 208.312 175.151 208.404C175.204 208.496 175.218 208.606 175.19 208.709C175.162 208.811 175.095 208.899 175.003 208.952L142.571 227.672C142.51 227.709 142.441 227.728 142.371 227.728V227.728Z" fill="#455A64"/>
<path opacity="0.5" d="M142.371 234.4C142.283 234.399 142.199 234.37 142.13 234.316C142.061 234.263 142.011 234.188 141.988 234.104C141.966 234.02 141.971 233.93 142.004 233.849C142.037 233.768 142.095 233.701 142.171 233.656L174.603 214.928C174.695 214.875 174.804 214.861 174.907 214.888C175.01 214.916 175.097 214.984 175.151 215.076C175.204 215.168 175.218 215.278 175.19 215.381C175.162 215.483 175.095 215.571 175.003 215.624L142.571 234.344C142.51 234.381 142.441 234.4 142.371 234.4V234.4Z" fill="#455A64"/>
<path opacity="0.5" d="M142.371 241.008C142.283 241.007 142.199 240.978 142.13 240.924C142.061 240.871 142.011 240.796 141.988 240.712C141.966 240.628 141.971 240.538 142.004 240.457C142.037 240.376 142.095 240.309 142.171 240.264L174.603 221.536C174.648 221.509 174.698 221.492 174.751 221.485C174.803 221.478 174.856 221.482 174.907 221.496C174.958 221.51 175.005 221.535 175.046 221.568C175.087 221.601 175.122 221.642 175.147 221.688C175.199 221.779 175.213 221.888 175.186 221.99C175.159 222.091 175.093 222.179 175.003 222.232L142.571 240.952C142.51 240.989 142.441 241.008 142.371 241.008V241.008Z" fill="#455A64"/>
<path opacity="0.5" d="M142.371 247.648C142.3 247.649 142.23 247.631 142.168 247.596C142.106 247.561 142.055 247.51 142.019 247.448C141.992 247.403 141.975 247.352 141.968 247.3C141.961 247.248 141.965 247.194 141.979 247.144C141.993 247.093 142.018 247.045 142.051 247.004C142.084 246.963 142.125 246.929 142.171 246.904L174.603 228.176C174.648 228.149 174.698 228.131 174.75 228.124C174.802 228.116 174.855 228.119 174.905 228.133C174.956 228.146 175.004 228.17 175.045 228.202C175.087 228.234 175.121 228.274 175.147 228.32C175.2 228.413 175.214 228.522 175.188 228.625C175.161 228.728 175.094 228.817 175.003 228.872L142.571 247.592C142.511 247.629 142.442 247.648 142.371 247.648V247.648Z" fill="#455A64"/>
<path opacity="0.5" d="M142.371 254.288C142.3 254.289 142.23 254.271 142.168 254.236C142.106 254.201 142.055 254.15 142.019 254.088C141.992 254.043 141.975 253.992 141.968 253.94C141.961 253.888 141.965 253.834 141.979 253.784C141.993 253.733 142.018 253.685 142.051 253.644C142.084 253.603 142.125 253.569 142.171 253.544L174.603 234.816C174.648 234.789 174.698 234.771 174.75 234.764C174.802 234.756 174.855 234.759 174.905 234.773C174.956 234.786 175.004 234.81 175.045 234.842C175.087 234.874 175.121 234.914 175.147 234.96C175.2 235.053 175.214 235.162 175.188 235.265C175.161 235.369 175.094 235.457 175.003 235.512L142.571 254.232C142.511 254.269 142.442 254.288 142.371 254.288V254.288Z" fill="#455A64"/>
<path opacity="0.5" d="M142.371 260.928C142.3 260.929 142.23 260.911 142.168 260.876C142.106 260.841 142.055 260.79 142.019 260.728C141.992 260.683 141.975 260.632 141.968 260.58C141.961 260.528 141.965 260.474 141.979 260.424C141.993 260.373 142.018 260.325 142.051 260.284C142.084 260.243 142.125 260.209 142.171 260.184L174.603 241.456C174.648 241.429 174.698 241.411 174.75 241.404C174.802 241.396 174.855 241.399 174.905 241.413C174.956 241.426 175.004 241.45 175.045 241.482C175.087 241.514 175.121 241.554 175.147 241.6C175.2 241.693 175.214 241.802 175.188 241.905C175.161 242.009 175.094 242.097 175.003 242.152L142.571 260.872C142.511 260.909 142.442 260.928 142.371 260.928V260.928Z" fill="#455A64"/>
<path opacity="0.5" d="M142.371 267.568C142.299 267.569 142.229 267.551 142.167 267.516C142.105 267.481 142.054 267.43 142.019 267.368C141.966 267.274 141.953 267.164 141.981 267.061C142.01 266.958 142.078 266.87 142.171 266.816L174.603 248.096C174.648 248.063 174.699 248.04 174.754 248.028C174.809 248.017 174.865 248.017 174.92 248.028C174.975 248.04 175.027 248.063 175.072 248.095C175.117 248.128 175.155 248.17 175.184 248.218C175.212 248.267 175.229 248.321 175.235 248.376C175.241 248.432 175.236 248.488 175.219 248.541C175.202 248.595 175.174 248.644 175.136 248.686C175.099 248.727 175.054 248.761 175.003 248.784L142.571 267.512C142.51 267.549 142.441 267.568 142.371 267.568V267.568Z" fill="#455A64"/>
<path opacity="0.5" d="M142.371 274.208C142.299 274.209 142.229 274.191 142.167 274.156C142.105 274.121 142.054 274.07 142.019 274.008C141.966 273.914 141.953 273.804 141.981 273.701C142.01 273.598 142.078 273.51 142.171 273.456L174.603 254.736C174.648 254.703 174.699 254.68 174.754 254.668C174.809 254.657 174.865 254.657 174.92 254.668C174.975 254.68 175.027 254.703 175.072 254.735C175.117 254.768 175.155 254.81 175.184 254.858C175.212 254.907 175.229 254.961 175.235 255.016C175.241 255.072 175.236 255.128 175.219 255.181C175.202 255.235 175.174 255.284 175.136 255.326C175.099 255.367 175.054 255.401 175.003 255.424L142.571 274.152C142.509 274.185 142.441 274.204 142.371 274.208V274.208Z" fill="#455A64"/>
<path opacity="0.5" d="M142.371 280.848C142.299 280.849 142.229 280.831 142.167 280.796C142.105 280.761 142.054 280.71 142.019 280.648C141.966 280.554 141.953 280.444 141.981 280.341C142.01 280.238 142.078 280.15 142.171 280.096L174.603 261.376C174.693 261.335 174.795 261.329 174.889 261.36C174.984 261.39 175.063 261.454 175.113 261.539C175.163 261.625 175.179 261.726 175.159 261.823C175.138 261.92 175.083 262.006 175.003 262.064L142.571 280.8C142.508 280.83 142.44 280.847 142.371 280.848V280.848Z" fill="#455A64"/>
<path opacity="0.5" d="M142.371 287.48C142.283 287.479 142.199 287.45 142.13 287.396C142.061 287.343 142.011 287.268 141.988 287.184C141.966 287.1 141.971 287.01 142.004 286.929C142.037 286.848 142.095 286.781 142.171 286.736L174.603 268C174.648 267.967 174.699 267.944 174.754 267.932C174.809 267.921 174.865 267.921 174.92 267.932C174.975 267.944 175.027 267.967 175.072 267.999C175.117 268.032 175.155 268.074 175.184 268.122C175.212 268.171 175.229 268.225 175.235 268.28C175.241 268.336 175.236 268.392 175.219 268.445C175.202 268.499 175.174 268.548 175.136 268.59C175.099 268.631 175.054 268.665 175.003 268.688L142.571 287.416C142.51 287.453 142.441 287.475 142.371 287.48Z" fill="#455A64"/>
<path opacity="0.5" d="M142.371 294.12C142.283 294.119 142.199 294.09 142.13 294.036C142.061 293.983 142.011 293.908 141.988 293.824C141.966 293.74 141.971 293.65 142.004 293.569C142.037 293.488 142.095 293.421 142.171 293.376L174.603 274.656C174.648 274.623 174.699 274.6 174.754 274.588C174.809 274.577 174.865 274.577 174.92 274.588C174.975 274.6 175.027 274.623 175.072 274.655C175.117 274.688 175.155 274.73 175.184 274.778C175.212 274.827 175.229 274.881 175.235 274.936C175.241 274.992 175.236 275.048 175.219 275.101C175.202 275.155 175.174 275.204 175.136 275.246C175.099 275.287 175.054 275.321 175.003 275.344L142.571 294.072C142.508 294.103 142.44 294.119 142.371 294.12Z" fill="#455A64"/>
<path opacity="0.5" d="M142.371 300.8C142.283 300.799 142.199 300.77 142.13 300.716C142.061 300.663 142.011 300.588 141.988 300.504C141.966 300.42 141.971 300.33 142.004 300.249C142.037 300.168 142.095 300.101 142.171 300.056L174.603 281.328C174.695 281.275 174.804 281.261 174.907 281.288C175.01 281.316 175.097 281.384 175.151 281.476C175.204 281.568 175.218 281.678 175.19 281.781C175.162 281.883 175.095 281.971 175.003 282.024L142.571 300.752C142.508 300.783 142.44 300.799 142.371 300.8V300.8Z" fill="#455A64"/>
<path opacity="0.5" d="M142.371 307.4C142.283 307.399 142.199 307.37 142.13 307.316C142.061 307.263 142.011 307.188 141.988 307.104C141.966 307.019 141.971 306.93 142.004 306.849C142.037 306.768 142.095 306.7 142.171 306.656L174.603 287.928C174.695 287.875 174.804 287.861 174.907 287.888C175.01 287.916 175.097 287.984 175.151 288.076C175.204 288.168 175.218 288.278 175.19 288.381C175.162 288.483 175.095 288.571 175.003 288.624L142.571 307.344C142.51 307.381 142.441 307.4 142.371 307.4V307.4Z" fill="#455A64"/>
<path opacity="0.5" d="M142.587 313.848C142.517 313.848 142.449 313.829 142.389 313.794C142.328 313.759 142.278 313.708 142.243 313.648C142.19 313.555 142.176 313.446 142.203 313.343C142.23 313.24 142.296 313.151 142.387 313.096L174.819 294.4C174.909 294.359 175.012 294.353 175.106 294.384C175.2 294.414 175.28 294.478 175.33 294.563C175.379 294.649 175.396 294.75 175.375 294.847C175.355 294.944 175.299 295.03 175.219 295.088L142.787 313.816C142.725 313.846 142.656 313.857 142.587 313.848V313.848Z" fill="#455A64"/>
<path opacity="0.5" d="M144.339 320.232C144.252 320.231 144.167 320.202 144.098 320.148C144.029 320.095 143.98 320.02 143.957 319.936C143.934 319.852 143.94 319.762 143.973 319.681C144.006 319.6 144.064 319.532 144.139 319.488L176.571 300.8C176.617 300.767 176.668 300.744 176.723 300.732C176.778 300.721 176.834 300.721 176.889 300.732C176.944 300.744 176.996 300.767 177.041 300.799C177.086 300.832 177.124 300.874 177.152 300.922C177.18 300.971 177.198 301.025 177.204 301.08C177.21 301.136 177.205 301.192 177.187 301.245C177.17 301.299 177.142 301.348 177.105 301.39C177.068 301.431 177.022 301.465 176.971 301.488L144.539 320.216C144.475 320.236 144.406 320.242 144.339 320.232Z" fill="#455A64"/>
<path opacity="0.5" d="M147.355 325.6L167.787 313.808V314.728L147.787 326.296C147.725 326.327 147.657 326.343 147.587 326.344C147.5 326.343 147.415 326.314 147.346 326.26C147.277 326.207 147.228 326.132 147.205 326.048C147.182 325.964 147.188 325.874 147.221 325.793C147.254 325.712 147.312 325.645 147.387 325.6H147.355Z" fill="#455A64"/>
<path opacity="0.5" d="M152.651 330.208L167.787 321.504V322.4L153.051 330.872C152.991 330.91 152.922 330.929 152.851 330.928C152.764 330.927 152.679 330.898 152.61 330.844C152.541 330.791 152.491 330.716 152.469 330.632C152.446 330.548 152.452 330.458 152.485 330.377C152.517 330.296 152.576 330.229 152.651 330.184V330.208Z" fill="#455A64"/>
<path opacity="0.5" d="M159.172 333.184L167.788 328.256C167.788 328.576 167.788 328.888 167.788 329.192L159.604 333.872C159.544 333.91 159.474 333.929 159.404 333.928C159.316 333.927 159.232 333.898 159.163 333.844C159.094 333.791 159.044 333.716 159.022 333.632C158.999 333.548 159.004 333.458 159.037 333.377C159.07 333.296 159.129 333.229 159.204 333.184H159.172Z" fill="#455A64"/>
</g>
<g opacity="0.5">
<path opacity="0.5" d="M128.795 157.176V158.096L122.035 162C121.976 162.038 121.906 162.057 121.835 162.056C121.748 162.055 121.663 162.026 121.594 161.972C121.525 161.919 121.476 161.844 121.453 161.76C121.431 161.676 121.436 161.586 121.469 161.505C121.502 161.424 121.56 161.357 121.635 161.312L128.795 157.176Z" fill="#455A64"/>
<path opacity="0.5" d="M128.795 164.584V165.504L123.787 168.392C123.728 168.43 123.658 168.449 123.587 168.448C123.5 168.447 123.415 168.418 123.346 168.364C123.277 168.311 123.228 168.236 123.205 168.152C123.182 168.068 123.188 167.978 123.221 167.897C123.254 167.816 123.312 167.749 123.387 167.704L128.795 164.584Z" fill="#455A64"/>
</g>
<path d="M180.789 123.728C180.789 123.728 180.237 128.752 180.117 129.944C179.997 131.136 176.181 133.944 173.573 135.16C170.965 136.376 168.117 137.824 170.093 141.432C171.917 144.76 176.573 144.768 178.853 144.264C181.133 143.76 183.893 141 184.509 137.24C185.309 132.44 183.581 127.768 183.749 125.016C183.917 122.264 181.885 121.912 180.789 123.728Z" fill="#FFBE9D"/>
</svg>
