<svg width="401" height="400" viewBox="0 0 401 400" fill="none" xmlns="http://www.w3.org/2000/svg">
<g clip-path="url(#clip0_522_87515)">
<path d="M273.135 292.391C273.611 291.155 273.943 289.854 274.115 288.51C274.14 288.496 294.305 277.552 301.692 263.929C301.635 264.085 301.604 264.165 301.604 264.165C301.604 264.165 301.724 263.914 301.923 263.493C302.247 262.87 302.543 262.242 302.809 261.61C302.868 261.47 302.926 261.331 302.984 261.195C303.755 259.486 304.655 257.405 305.128 255.992L323.522 245.294C324.663 244.625 325.345 243.786 325.565 242.914C325.566 242.914 325.566 242.914 325.567 242.914C325.568 242.913 325.57 242.912 325.572 242.911V242.91V242.911C325.616 242.882 325.66 242.854 325.702 242.825C325.831 242.737 325.953 242.646 326.068 242.553C326.972 241.822 327.424 240.97 327.424 240.072V227.954C327.424 228.67 327.116 229.36 326.519 229.992C328.01 228.37 327.582 226.297 325.202 224.93L259.906 187.212C257.2 176.535 252.861 166.99 245.955 161.926C242.599 159.465 239.64 157.726 236.924 156.498C235.827 154.628 236.098 151.878 236.724 150.242C247.559 146.115 255.18 138.606 259.52 129.245C260.721 128.107 261.455 126.439 261.398 124.603C261.396 124.564 261.395 124.525 261.393 124.486C261.734 123.446 262.039 122.39 262.308 121.318C263.847 115.182 264.2 108.53 263.358 101.688C261.896 89.808 253.505 82.288 245.576 77.7624C237.84 73.3472 230.544 71.7768 230.544 71.7768C229.508 71.732 228.48 71.7104 227.461 71.7104C215.432 71.7104 204.719 74.7928 196.388 80.928C187.352 87.5816 181.6 95.0608 179.532 108.853C178.551 115.394 179.498 122.49 181.857 128.934L181.986 130.338C182.152 130.418 182.319 130.494 182.49 130.563C185.146 137.033 189.237 142.714 194.211 146.312C198.252 149.238 202.803 151.218 207.59 152.367L207.168 153.719C207.139 153.806 207.109 153.893 207.079 153.979C202.211 154.702 198.376 156.194 194.667 158.767C189.23 161.721 147.829 162.951 147.829 162.951L144.783 131.729L142.283 132.157C142.283 132.122 142.283 127.094 142.283 121.566C142.283 116.413 139.885 109.278 137.838 109.278C137.681 109.278 137.527 109.319 137.376 109.406C135.247 110.636 137.376 117.3 137.376 117.3C137.376 117.3 123.723 118.793 123.723 122.846C123.723 126.899 128.919 134.446 128.919 134.446L133.963 133.582L126.069 134.934C126.069 134.934 126.896 185.375 134.291 187.111C136.751 187.689 143.167 188.66 150.729 189.532C140.42 194.442 129.257 201.015 123.195 205.451C120.884 207.143 115.076 208.995 107.73 211.556C102.236 196.917 99.2324 181.062 99.2324 164.505C99.2324 90.528 159.203 30.5576 233.18 30.5576C307.156 30.5576 367.126 90.528 367.126 164.505C367.126 224.566 327.596 275.394 273.135 292.391V292.391ZM130.208 231.727C130.208 231.727 130.208 231.727 130.209 231.727H130.208Z" fill="#DB2228" fill-opacity="0.15"/>
<path d="M-43.9864 299.861C-43.9864 299.861 41.3474 272.554 58.1443 243.862C73.4108 217.784 115.868 210.814 123.195 205.451C133.518 197.897 158.638 184.142 169.134 182.969C179.044 181.862 188.001 188.352 185.098 199.072C181.664 211.75 130.209 231.727 130.209 231.727C130.209 231.727 128.45 258.423 166.022 265.334C203.594 272.243 220.006 269.796 240.304 263.75C260.602 257.703 265.783 256.408 265.783 256.408C265.783 256.408 270.529 240.909 277.712 237.318C285.485 233.43 291.819 236.742 293.259 239.045C294.698 241.348 286.405 265.083 283.742 272.138C281.078 279.191 260.253 295.092 260.253 295.092C258.38 296.521 256.842 298.339 255.742 300.422C251.505 308.438 239.58 327.021 235.41 329.106C230.226 331.698 215.831 334.864 215.831 334.864C215.831 334.864 213.222 340.462 201.916 346.59C188.359 353.941 178.382 365.353 150.742 363.914C132.97 362.988 87.0944 349.352 49.684 359.142C33.7761 363.304 -47.0352 422.837 -47.0352 422.837L-43.9864 299.861" fill="#F7C4A8"/>
<path d="M305.128 255.992C305.332 255.381 305.457 254.894 305.457 254.618C305.295 254.71 305.106 254.818 304.891 254.94L325.264 243.096C325.312 243.072 325.351 243.049 325.388 243.025C325.448 242.989 325.508 242.952 325.566 242.914C325.346 243.786 324.664 244.625 323.523 245.294L305.128 255.992Z" fill="#BFE9DF"/>
<path d="M151.71 343.409C149.812 343.409 147.914 342.992 146.463 342.158L59.7234 292.09C56.9721 290.51 56.8293 287.986 59.2418 286.309V286.867C59.2418 286.871 59.2418 286.874 59.2418 286.878V286.879C59.2439 287.366 59.3793 287.851 59.6649 288.302C59.9536 288.777 60.3886 289.224 60.9627 289.617L60.9634 289.639L148.142 339.961C148.262 340.03 148.386 340.096 148.513 340.16V340.208C149.881 340.892 151.606 341.24 153.345 341.24C154.588 341.24 155.838 341.062 156.97 340.702V340.682V340.702C157.587 340.516 158.143 340.27 158.638 339.961L200.82 315.438C200.782 315.863 200.75 316.285 200.726 316.706L156.958 342.158C155.507 342.992 153.609 343.409 151.71 343.409V343.409ZM153.39 329.094C151.649 329.094 149.908 328.744 148.513 328.042V328.029C148.39 327.968 148.266 327.906 148.142 327.844L67.6908 281.373L67.6936 281.371L148.204 327.844C149.647 328.673 151.532 329.09 153.421 329.094C153.41 329.094 153.4 329.094 153.39 329.094V329.094ZM225.458 301.732L225.233 301.246L226.982 300.23C226.982 300.231 226.982 300.232 226.982 300.233L225.33 301.204C225.33 301.204 225.379 301.4 225.458 301.732Z" fill="#E39870"/>
<path d="M325.566 242.914C325.568 242.913 325.57 242.911 325.572 242.91V242.911C325.57 242.912 325.568 242.913 325.566 242.914Z" fill="#365B77"/>
<path d="M325.264 243.096C325.305 243.073 325.346 243.049 325.387 243.025C325.35 243.049 325.312 243.072 325.264 243.096Z" fill="#365B77"/>
<path d="M325.572 242.911V242.91C325.616 242.882 325.659 242.854 325.702 242.825C325.659 242.854 325.616 242.882 325.572 242.911ZM326.067 242.553C326.962 241.827 327.424 240.95 327.424 240.072C327.424 240.97 326.972 241.822 326.067 242.553Z" fill="#365B77"/>
<path d="M59.6653 288.302C59.3797 287.851 59.2443 287.366 59.2422 286.879C59.2447 287.362 59.3875 287.845 59.6653 288.302ZM59.2422 286.878C59.2422 286.874 59.2422 286.871 59.2422 286.867C59.2422 286.871 59.2422 286.874 59.2422 286.878Z" fill="#355873"/>
<path d="M60.23 276.896C60.0031 276.669 59.8143 276.43 59.6647 276.184C59.8122 276.417 60 276.64 60.23 276.849V276.896V276.896ZM59.2422 274.762V274.762V274.762Z" fill="#365973"/>
<path d="M61.4654 277.776L61.4573 277.771C61.4601 277.773 61.4629 277.774 61.4654 277.776ZM60.9426 277.474L60.8545 277.423C60.622 277.257 60.4139 277.08 60.2305 276.896V276.849C60.4242 277.082 60.6667 277.29 60.9426 277.474" fill="#365973"/>
<path d="M317.234 235.648L262.931 204.28C262.276 198.601 261.31 192.753 259.906 187.212L325.202 224.93C327.582 226.297 328.01 228.37 326.519 229.992C326.188 230.341 325.769 230.672 325.264 230.98L317.234 235.648ZM130.37 234.946C130.129 232.966 130.207 231.745 130.208 231.727H130.209C130.326 231.682 141.024 227.522 152.957 221.812L130.37 234.946" fill="#365B77"/>
<path d="M67.6945 281.371L61.4654 277.776C58.5636 276.109 58.5636 273.393 61.4036 271.726L130.209 231.727C130.207 231.745 130.13 232.966 130.37 234.946L81.3448 263.453L89.9552 268.43L67.6945 281.371V281.371ZM130.21 231.727L176.688 204.708C176.478 205.936 176.274 207.157 176.076 208.369L152.958 221.812C141.024 227.522 130.326 231.682 130.21 231.727" fill="#365973"/>
<path d="M290.917 250.946C291.536 248.88 292.084 246.926 292.509 245.215L293.129 244.854L293.257 244.929L306.805 236.906L263.653 211.978C263.469 209.478 263.233 206.897 262.932 204.28L317.235 235.648L290.917 250.946" fill="#365B77"/>
<path d="M153.422 329.094C151.534 329.09 149.649 328.673 148.206 327.844L67.6953 281.371L89.956 268.43L171.48 315.558L198.162 300.05L199.507 304.086L158.638 327.844C157.196 328.673 155.31 329.09 153.422 329.094V329.094ZM220.798 291.71L219.034 287.92L224.974 284.467C224.809 286.039 224.804 287.674 224.914 289.317L220.798 291.71ZM248.578 275.56C247.898 274.164 247.208 272.926 246.578 271.91L251.198 269.226C252.266 271.234 253.015 272.502 253.015 272.502L252.968 273.007L248.578 275.56V275.56ZM272.018 261.934C271.297 260.846 270.527 259.674 269.727 258.456L292.509 245.215C292.084 246.926 291.536 248.88 290.918 250.946L272.018 261.934Z" fill="#355873"/>
<path d="M148.513 328.042C148.387 327.979 148.263 327.913 148.143 327.844C148.266 327.906 148.39 327.968 148.513 328.029V328.042Z" fill="#355873"/>
<path d="M153.346 341.24C151.606 341.24 149.882 340.892 148.514 340.208V340.16C149.909 340.861 151.65 341.21 153.39 341.21C154.625 341.21 155.86 341.034 156.971 340.682V340.702C155.839 341.062 154.589 341.24 153.346 341.24Z" fill="#355873"/>
<path d="M156.971 340.702V340.682C157.568 340.493 158.13 340.252 158.637 339.961H158.638C158.144 340.27 157.588 340.516 156.971 340.702Z" fill="#355873"/>
<path d="M325.264 230.98L158.637 327.844C155.736 329.511 151.044 329.511 148.143 327.844L60.854 277.423C59.7947 276.663 59.2422 275.708 59.2422 274.75V286.867C59.2422 287.857 59.8328 288.845 60.9631 289.617L60.9638 289.639L148.143 339.961C151.044 341.627 155.736 341.627 158.637 339.961L325.264 243.096C326.684 242.294 327.424 241.183 327.424 240.072V227.954C327.424 229.066 326.684 230.116 325.264 230.98" fill="#2B485B"/>
<path d="M216.609 184.801L81.3457 263.453L171.48 315.558L306.806 236.906L216.609 184.801Z" fill="#E9F8FE"/>
<path d="M283.469 211.471C282.727 211.039 281.493 211.039 280.69 211.471C279.95 211.903 279.95 212.645 280.69 213.076C281.431 213.509 282.666 213.509 283.469 213.076C284.271 212.582 284.271 211.903 283.469 211.471Z" fill="#263C49"/>
<path d="M265.442 201.47C264.885 201.162 264.021 201.162 263.465 201.47C262.91 201.779 262.91 202.273 263.465 202.582L275.319 209.434C275.875 209.742 276.739 209.742 277.294 209.434C277.85 209.125 277.85 208.631 277.294 208.261L265.442 201.47Z" fill="#263C49"/>
<path d="M116.033 294.429L116.191 294.163C115.82 293.946 115.367 293.85 114.915 293.848C114.463 293.85 114.01 293.946 113.639 294.163L112.218 294.998L112.216 294.998C111.852 295.212 111.609 295.54 111.607 295.916C111.608 296.294 111.856 296.621 112.224 296.822L112.374 296.551L112.219 296.818L113.836 297.753L113.991 297.486L113.833 297.751C114.203 297.97 114.656 298.065 115.108 298.066C115.56 298.065 116.014 297.969 116.384 297.751L116.383 297.752L117.806 296.916L117.807 296.915C118.171 296.702 118.415 296.374 118.415 295.998C118.415 295.621 118.167 295.294 117.799 295.093L117.65 295.362L117.804 295.095L116.187 294.162L116.033 294.429L116.191 294.163L116.033 294.429L115.879 294.696L117.498 295.631L117.5 295.632C117.742 295.77 117.799 295.906 117.799 295.998C117.799 296.09 117.738 296.236 117.492 296.385L116.071 297.22H116.069C115.83 297.364 115.47 297.45 115.108 297.449C114.747 297.45 114.387 297.364 114.148 297.221L114.147 297.22L112.527 296.283L112.524 296.282C112.282 296.143 112.225 296.008 112.225 295.916C112.224 295.824 112.286 295.678 112.531 295.53L112.531 295.53L113.953 294.695L113.955 294.694C114.194 294.55 114.554 294.465 114.915 294.466C115.276 294.465 115.636 294.55 115.875 294.694L115.878 294.695L115.879 294.696L116.033 294.429" fill="#E9F8FE"/>
<path d="M144.456 310.659L141.373 308.887C141.225 308.802 141.037 308.853 140.951 309.001C140.866 309.149 140.917 309.338 141.065 309.422L144.148 311.194C144.296 311.279 144.485 311.228 144.569 311.08C144.654 310.933 144.603 310.744 144.456 310.659Z" fill="#E9F8FE"/>
<path d="M143.329 311.429L140.245 309.658C140.098 309.573 139.909 309.624 139.825 309.772C139.739 309.92 139.79 310.109 139.938 310.194L143.021 311.965C143.169 312.05 143.357 311.998 143.442 311.85C143.527 311.703 143.477 311.514 143.329 311.429Z" fill="#E9F8FE"/>
<path d="M142.071 312.279L138.988 310.508C138.84 310.423 138.652 310.474 138.566 310.622C138.482 310.77 138.533 310.958 138.681 311.043L141.763 312.814C141.911 312.899 142.1 312.849 142.185 312.701C142.27 312.553 142.218 312.364 142.071 312.279Z" fill="#E9F8FE"/>
<path d="M89.6311 280.135L90.1039 282.395H87.2639C87.0935 282.395 86.9551 282.534 86.9551 282.704C86.9551 282.874 87.0935 283.013 87.2639 283.013H90.4831C90.5759 283.013 90.6647 282.97 90.7231 282.898C90.7815 282.826 90.8047 282.731 90.7855 282.641L90.2359 280.009C90.2007 279.842 90.0375 279.735 89.8703 279.77C89.7031 279.805 89.5967 279.968 89.6311 280.135" fill="#E9F8FE"/>
<path d="M293.256 244.929L306.804 236.906L216.607 184.801L203.121 192.823L293.256 244.929" fill="#BFDFED"/>
<path d="M156.325 227.476L153.982 228.8L229.609 272.474L231.99 271.15L156.325 227.476" fill="white"/>
<path d="M147.518 232.798L145.176 234.123L220.802 277.797L223.182 276.473L147.518 232.798Z" fill="white"/>
<path d="M138.518 237.928L136.176 239.252L211.802 282.926L214.183 281.602L138.518 237.928" fill="white"/>
<path d="M129.71 243.251L127.367 244.576L202.994 288.25L205.374 286.925L129.71 243.251" fill="white"/>
<path d="M288.755 231.441C289.394 231.81 289.397 232.413 288.761 232.782L235.117 264.079C234.482 264.447 233.442 264.447 232.804 264.079L160.982 222.594C160.345 222.226 160.341 221.622 160.975 221.254L214.62 189.958C215.256 189.588 216.297 189.588 216.935 189.956L288.755 231.441" fill="#DB2228"/>
<path d="M174.882 287.294C178.651 289.47 178.667 292.998 174.921 295.174C171.176 297.35 165.087 297.354 161.316 295.178L116.526 269.317C112.756 267.141 112.736 263.611 116.482 261.434C120.227 259.258 126.322 259.258 130.091 261.434L174.882 287.294Z" fill="#DB2228"/>
<path d="M122.594 266.479C123.252 266.49 123.889 266.321 124.504 265.964C125.114 265.61 125.41 265.237 125.398 264.85C125.379 264.458 125.017 264.062 124.308 263.653L123.526 263.202L119.753 265.394L120.639 265.906C121.28 266.276 121.929 266.464 122.594 266.479V266.479ZM127.306 264.925C127.362 265.585 126.906 266.191 125.936 266.754C124.972 267.315 123.917 267.594 122.778 267.582C121.632 267.572 120.464 267.224 119.273 266.537L117.133 265.301L123.34 261.693L125.554 262.971C126.666 263.614 127.25 264.265 127.306 264.925Z" fill="white"/>
<path d="M131.618 266.473L125.411 270.08L124.016 269.274L130.223 265.667L131.618 266.473Z" fill="white"/>
<path d="M131.284 270.507L132.847 271.41L133.874 269.914L131.284 270.507V270.507ZM136.39 269.229L132.885 274.396L131.4 273.539L132.158 272.424L129.534 270.91L127.618 271.355L126.133 270.498L135.037 268.448L136.39 269.229" fill="white"/>
<path d="M142.853 272.79C143.75 273.309 144.235 273.933 144.312 274.653L142.546 274.842C142.512 274.538 142.422 274.293 142.28 274.102C142.132 273.914 141.922 273.739 141.649 273.582C141.119 273.275 140.491 273.118 139.77 273.118C139.048 273.118 138.395 273.284 137.807 273.626C137.217 273.969 136.922 274.342 136.924 274.748C136.915 275.153 137.158 275.498 137.641 275.778C138.123 276.055 138.621 276.234 139.123 276.314L140.833 275.319L142.239 276.131L140.034 277.413C138.722 277.452 137.523 277.158 136.427 276.525C135.503 275.992 135.039 275.374 135.02 274.662C135 273.95 135.451 273.33 136.375 272.794C137.297 272.258 138.378 271.994 139.627 272.003C140.877 272.013 141.955 272.273 142.853 272.79" fill="white"/>
<path d="M152.292 278.41L146.085 282.017L144.689 281.211L145.598 277.231L141.71 279.49L140.314 278.685L146.522 275.078L147.828 275.831L146.899 279.926L150.897 277.603L152.292 278.41" fill="white"/>
<path d="M153.596 284.354C154.344 284.334 154.997 284.167 155.549 283.846C156.107 283.522 156.392 283.143 156.427 282.71C156.46 282.277 156.218 281.907 155.699 281.608C155.174 281.305 154.535 281.166 153.787 281.186C153.04 281.208 152.392 281.378 151.835 281.702C151.283 282.022 150.991 282.398 150.958 282.831C150.929 283.261 151.176 283.627 151.701 283.93C152.22 284.23 152.854 284.373 153.596 284.354ZM158.315 282.786C158.329 283.506 157.888 284.134 156.976 284.663C156.064 285.194 154.983 285.45 153.739 285.446C152.488 285.436 151.41 285.163 150.487 284.63C149.563 284.097 149.083 283.47 149.069 282.75C149.05 282.026 149.496 281.402 150.408 280.872C151.32 280.342 152.395 280.082 153.646 280.09C154.89 280.096 155.979 280.369 156.903 280.902C157.826 281.435 158.295 282.062 158.315 282.786Z" fill="white"/>
<path d="M163.366 284.634C163.785 284.876 164.132 285.16 164.406 285.482C164.679 285.809 164.843 286.133 164.892 286.462L163.167 286.645C163.038 286.093 162.681 285.65 162.103 285.318C161.873 285.184 161.632 285.112 161.386 285.097C161.146 285.084 160.937 285.126 160.754 285.233C160.572 285.339 160.51 285.466 160.568 285.626C160.626 285.782 160.879 286.072 161.326 286.499C161.773 286.926 162.016 287.319 162.054 287.681C162.093 288.034 161.828 288.377 161.276 288.698C160.718 289.022 160.054 289.164 159.291 289.122C158.522 289.083 157.799 288.865 157.112 288.468C156.121 287.895 155.594 287.168 155.531 286.286L157.376 286.182C157.459 286.911 157.791 287.441 158.363 287.771C158.62 287.919 158.877 288.002 159.133 288.022C159.39 288.044 159.609 288.002 159.797 287.892C159.984 287.783 160.051 287.653 160.003 287.498C159.961 287.347 159.766 287.102 159.419 286.774C158.862 286.254 158.556 285.817 158.497 285.463C158.432 285.106 158.697 284.757 159.286 284.415C159.874 284.073 160.543 283.934 161.291 283.991C162.034 284.051 162.73 284.266 163.366 284.634" fill="white"/>
<path d="M168.266 287.632L162.059 291.239L160.664 290.434L166.871 286.826L168.266 287.632Z" fill="white"/>
<path d="M172.006 289.622C172.425 289.864 172.767 290.146 173.046 290.47C173.32 290.797 173.484 291.121 173.533 291.45L171.808 291.633C171.68 291.082 171.321 290.639 170.745 290.306C170.513 290.173 170.273 290.1 170.027 290.085C169.781 290.07 169.577 290.116 169.395 290.221C169.213 290.327 169.15 290.454 169.209 290.615C169.267 290.77 169.52 291.06 169.966 291.487C170.413 291.914 170.657 292.308 170.689 292.666C170.733 293.022 170.469 293.365 169.917 293.686C169.359 294.01 168.696 294.152 167.932 294.11C167.163 294.071 166.435 293.85 165.753 293.456C164.761 292.883 164.234 292.157 164.172 291.275L166.017 291.17C166.1 291.899 166.432 292.43 167.004 292.759C167.261 292.908 167.517 292.99 167.774 293.011C168.03 293.032 168.25 292.99 168.437 292.881C168.625 292.772 168.692 292.642 168.645 292.486C168.601 292.335 168.407 292.09 168.06 291.763C167.502 291.242 167.197 290.806 167.132 290.449C167.073 290.094 167.337 289.746 167.926 289.404C168.515 289.061 169.184 288.922 169.932 288.98C170.674 289.04 171.371 289.255 172.006 289.622" fill="white"/>
<path d="M230.544 71.7768C230.544 71.7768 237.839 73.3472 245.575 77.7624C253.505 82.288 261.896 89.808 263.357 101.688C264.199 108.53 263.846 115.182 262.308 121.318C258.566 136.234 247.839 148.094 230.329 152.187C217.973 155.075 204.456 153.728 194.21 146.312C183.961 138.898 177.464 122.645 179.532 108.853C181.599 95.0608 187.351 87.5816 196.388 80.928C205.424 74.2736 217.263 71.2096 230.544 71.7768" fill="#F8A074"/>
<path d="M207.354 127.029C207.966 129.335 209.687 131.198 211.999 131.539C214.645 131.929 216.919 130.265 218.437 128.134C219.248 126.994 206.992 125.657 207.354 127.029Z" fill="white"/>
<path d="M212.176 122.035L212.1 122.034C211.981 122.026 210.924 121.962 210.238 121.779C208.578 121.334 207.963 120.434 207.74 119.76C207.509 119.061 207.466 117.903 208.579 116.362C209.565 114.994 209.662 112.294 209.615 111.367C209.589 110.88 209.947 110.461 210.411 110.437L210.429 110.436C210.885 110.42 211.27 110.792 211.297 111.274C211.305 111.435 211.484 115.272 209.919 117.439C209.413 118.141 209.197 118.772 209.329 119.174C209.452 119.548 209.923 119.862 210.649 120.055C211.098 120.174 211.916 120.244 212.192 120.261C212.658 120.289 213.015 120.708 212.987 121.197C212.963 121.662 212.608 122.021 212.176 122.035" fill="#F17640"/>
<path d="M182.49 130.563C182.319 130.494 182.152 130.418 181.986 130.338L181.857 128.934C182.058 129.482 182.269 130.024 182.49 130.563" fill="#DFD2B3"/>
<path d="M185.617 131.178C184.515 131.178 183.461 130.961 182.489 130.563C182.268 130.024 182.057 129.482 181.857 128.934L180.543 114.618C181.894 113.585 183.545 112.953 185.34 112.89C185.437 112.887 185.533 112.886 185.629 112.886C190.287 112.886 194.137 116.787 194.291 121.734C194.448 126.782 190.695 131.007 185.907 131.173C185.81 131.176 185.713 131.178 185.617 131.178Z" fill="#F79765"/>
<path d="M193.847 111.625C193.782 113.503 194.75 115.064 196.008 115.112C197.267 115.162 198.341 113.678 198.407 111.802C198.472 109.924 197.504 108.36 196.244 108.314C194.984 108.265 193.911 109.747 193.847 111.625Z" fill="#14211C"/>
<path d="M229.442 114.403C229.378 116.282 230.346 117.842 231.604 117.89C232.862 117.94 233.937 116.456 234.002 114.581C234.067 112.702 233.099 111.138 231.838 111.092C230.579 111.043 229.506 112.526 229.442 114.403Z" fill="#14211C"/>
<path d="M244.943 133.382C239.975 133.382 235.868 129.222 235.704 123.947C235.537 118.565 239.541 114.057 244.646 113.88C244.748 113.877 244.851 113.874 244.954 113.874C248.422 113.874 251.469 115.902 253.05 118.92C253.049 118.921 253.048 118.921 253.047 118.921C253.047 118.921 253.927 122.154 253.931 125.957C252.967 130.098 249.489 133.23 245.251 133.377C245.148 133.381 245.045 133.382 244.943 133.382" fill="#F79765"/>
<path d="M253.84 130.528C254.322 130.649 255.407 130.784 255.928 130.766C259.051 130.658 261.501 127.899 261.398 124.603C261.296 121.31 258.682 118.726 255.558 118.834C255.298 118.843 255.009 118.82 254.714 118.797C254.116 118.75 253.495 118.702 253.049 118.921C253.049 118.921 254.013 122.466 253.926 126.497C253.84 130.528 253.84 130.528 253.84 130.528" fill="#F8A074"/>
<path d="M258.548 125.96C258.151 125.96 257.796 125.666 257.714 125.238C257.255 122.774 255.059 122.508 254.966 122.498C254.501 122.449 254.158 122.01 254.203 121.522C254.246 121.062 254.614 120.715 255.045 120.715C255.07 120.715 255.095 120.716 255.121 120.718C256.346 120.83 258.814 121.85 259.382 124.894C259.472 125.378 259.171 125.848 258.712 125.943L258.576 125.959C258.566 125.96 258.558 125.96 258.548 125.96Z" fill="#F7905F"/>
<path d="M194.667 160.353C194.667 160.353 187.453 162.43 183.491 174.513C179.166 187.692 174.889 213.587 173.459 227.478C170.718 254.097 171.525 266.173 171.525 266.173L188.871 271.019L194.667 160.353Z" fill="white"/>
<path d="M184.403 207.014C184.403 207.014 186.13 212.787 186.13 221.373C186.13 229.959 176.412 315.182 176.412 315.182C176.412 315.182 264.459 331.042 263.99 318.476C263.522 305.907 263.991 238.376 263.991 238.376C263.991 238.376 267.718 177.884 245.954 161.926C233.682 152.926 226.74 153.6 217.438 153.448C206.975 153.274 200.655 154.613 194.667 158.767C176.432 171.417 184.403 207.014 184.403 207.014" fill="white"/>
<path d="M206.298 240.678C206.014 240.568 205.73 240.456 205.449 240.345L206.864 220.306L206.908 220.163L235.345 186.528L230.303 179.619L238.552 178.897L243.272 160.353L244.927 161.237L241.028 180.636L234.084 181.406L237.863 187.45L207.332 220.279L206.298 240.678" fill="#E7E6E6"/>
<path d="M206.825 220.157L195.916 174.561L199.601 173.948L196.695 172.108L196.25 157.745L200.103 155.814L199.213 171.8L204.352 174.854L198.618 176.099L206.825 220.157" fill="#E7E6E6"/>
<path d="M237.715 157.463L207.452 216.875L207.076 154.017C207.076 154.017 231.315 156.163 237.715 157.463Z" fill="#DB2228"/>
<path d="M206.939 154.378C207.642 152.417 208.189 150.429 208.54 148.264C213.187 148.926 219.045 147.056 224.329 145.186C233.908 141.798 241.602 138.41 236.783 150.098C235.992 152.013 235.686 155.681 237.716 157.463C237.716 157.463 228.132 160.614 218.966 159.733C209.219 158.798 207.076 154.017 207.076 154.017L206.939 154.378" fill="#F8A074"/>
<path d="M207.168 153.719L207.589 152.367C207.592 152.368 207.595 152.369 207.598 152.37C207.462 152.822 207.319 153.272 207.168 153.719Z" fill="#DFD2B3"/>
<path d="M207.598 152.37C207.595 152.369 207.592 152.368 207.59 152.367L207.69 152.046C207.69 152.046 207.691 152.046 207.691 152.046C207.661 152.154 207.629 152.262 207.598 152.37" fill="#F79765"/>
<path d="M216.651 154.617C213.863 154.617 210.682 154.444 207.076 154.017L207.169 153.719C207.32 153.272 207.463 152.822 207.599 152.37C207.63 152.262 207.662 152.154 207.692 152.046C207.813 152.061 215.155 152.928 222.204 152.928C226.664 152.928 231.006 152.581 233.329 151.451C233.329 151.451 228.583 154.617 216.651 154.617" fill="#F79765"/>
<path d="M202.151 201.71C202.151 206.081 199.424 209.621 196.06 209.621C192.697 209.621 189.971 206.081 189.971 201.71C189.971 197.339 192.697 193.796 196.06 193.796C199.424 193.796 202.151 197.339 202.151 201.71Z" fill="#83D5D0"/>
<path d="M199.223 201.71C199.223 205.552 196.824 208.669 193.867 208.669C190.907 208.669 188.51 205.552 188.51 201.71C188.51 197.866 190.907 194.75 193.867 194.75C196.824 194.75 199.223 197.866 199.223 201.71Z" fill="#325673"/>
<path d="M196.906 195.538C196.906 195.537 196.948 195.142 197.026 194.426C197.301 191.926 198.025 185.548 198.982 178.858C199.461 175.514 199.997 172.092 200.562 169.042C201.127 165.994 201.725 163.312 202.309 161.485C202.806 159.922 203.488 158.39 204.34 157.089C205.191 155.786 206.209 154.72 207.361 154.049C207.768 153.811 207.905 153.29 207.667 152.884C207.43 152.478 206.908 152.341 206.502 152.578C205.053 153.426 203.871 154.694 202.914 156.157C201.957 157.621 201.222 159.285 200.686 160.967C199.973 163.203 199.288 166.441 198.645 170.074C196.719 180.962 195.213 195.351 195.212 195.361C195.163 195.829 195.503 196.248 195.97 196.297C196.438 196.346 196.857 196.006 196.906 195.538" fill="#325673"/>
<path d="M246.457 242.963V211.002L248.095 241.498C247.56 241.919 247.013 242.406 246.457 242.963Z" fill="#E7E6E6"/>
<path d="M236.213 181.513C236.838 179.497 237.61 176.16 238.235 172.504C238.857 168.85 239.33 164.895 239.331 161.654C239.33 160.228 239.24 158.939 239.017 157.849C238.904 157.303 238.758 156.806 238.56 156.359C238.362 155.914 238.112 155.515 237.769 155.193C237.426 154.87 236.887 154.888 236.565 155.231C236.244 155.574 236.261 156.113 236.604 156.434C236.728 156.55 236.872 156.752 237.004 157.05C237.203 157.496 237.368 158.144 237.472 158.93C237.578 159.716 237.628 160.64 237.628 161.654C237.628 164.733 237.169 168.627 236.556 172.218C235.944 175.807 235.176 179.113 234.585 181.007C234.446 181.457 234.697 181.934 235.146 182.074C235.595 182.213 236.073 181.962 236.213 181.513" fill="#325673"/>
<path d="M222.292 211.422C222.292 211.422 222.296 211.316 222.307 211.109C222.384 209.557 222.831 202.462 224.573 195.834C225.439 192.522 226.638 189.329 228.212 187.038C228.998 185.891 229.872 184.974 230.823 184.354C231.778 183.735 232.798 183.4 233.971 183.398C234.678 183.398 235.443 183.522 236.281 183.804C237.177 184.106 237.991 184.696 238.741 185.555C240.053 187.053 241.113 189.367 241.906 192.006C243.103 195.962 243.725 200.63 244.038 204.386C244.352 208.144 244.362 210.994 244.362 211.349V211.388C244.362 211.858 244.742 212.241 245.213 212.242C245.683 212.242 246.065 211.862 246.066 211.391V211.349C246.065 210.755 246.042 204.357 244.934 197.688C244.378 194.351 243.555 190.946 242.294 188.134C241.663 186.727 240.921 185.466 240.025 184.436C239.13 183.408 238.069 182.608 236.824 182.19C235.833 181.856 234.88 181.694 233.971 181.694C232.359 181.691 230.9 182.213 229.657 183.088C227.476 184.626 225.899 187.176 224.676 190.1C222.85 194.491 221.842 199.783 221.274 203.998C220.709 208.21 220.591 211.339 220.59 211.358C220.573 211.828 220.939 212.223 221.41 212.241C221.879 212.258 222.274 211.892 222.292 211.422" fill="#325673"/>
<path d="M223.7 211.39C223.7 212.893 222.689 214.112 221.444 214.112C220.196 214.112 219.186 212.893 219.186 211.39C219.186 209.887 220.196 208.669 221.444 208.669C222.689 208.669 223.7 209.887 223.7 211.39Z" fill="#83D5D0"/>
<path d="M247.471 212.265C247.471 213.766 246.46 214.986 245.215 214.986C243.968 214.986 242.957 213.766 242.957 212.265C242.957 210.762 243.968 209.543 245.215 209.543C246.46 209.543 247.471 210.762 247.471 212.265Z" fill="#83D5D0"/>
<path d="M267.164 155.001C278.548 150.398 291.911 138.712 286.749 123.662C283.425 113.97 279.96 95.3 267.945 74.9704C259.408 60.5272 234.566 54.58 216.484 57.9112C199.228 61.0904 185.469 64.6576 176.723 98.804C167.977 132.951 167.644 128.866 164.906 133.252C162.168 137.637 173.167 150.866 197.262 148.289L193.603 145.861C193.603 145.861 184.913 140.419 182.385 123.063C179.858 105.706 187.9 90.6128 187.9 90.6128C187.9 90.6128 217.315 105.818 238.688 108.5C250.352 109.964 249.992 130.369 247.231 136.119C243.102 144.717 234.406 148.894 236.635 151.774C243.272 160.353 257.742 158.812 267.164 155.001" fill="#4C3B47"/>
<path d="M275.696 82.6576C279.765 83.2632 285.406 83.4504 286.857 81.7016C287.096 81.4144 287.375 80.912 287.051 79.8632C286.641 78.5312 285.993 77.7728 285.073 77.5432C282.455 76.8904 278.104 80.3664 275.696 82.6576V82.6576ZM281.129 84.708C277.819 84.708 274.541 84.1056 273.916 83.984C273.638 83.9304 273.411 83.7184 273.326 83.4344C273.241 83.1504 273.313 82.8392 273.512 82.6272C274.26 81.8288 280.95 74.8624 285.424 75.9776C286.885 76.3424 287.921 77.4816 288.502 79.3648C289.022 81.0504 288.519 82.1424 288.006 82.7616C286.748 84.2776 283.927 84.708 281.129 84.708" fill="white"/>
<path d="M275.722 85.04C278.593 88.1424 282.949 91.9296 285.111 91.4784C285.465 91.404 285.978 91.1864 286.329 90.148C286.776 88.8288 286.704 87.8112 286.109 87.036C284.417 84.8336 278.957 84.7784 275.722 85.04ZM284.77 93.1192C280.629 93.1192 274.288 85.8168 273.545 84.9432C273.356 84.7208 273.299 84.4072 273.397 84.1272C273.494 83.8472 273.731 83.648 274.011 83.608C275.065 83.4576 284.4 82.256 287.293 86.0232C288.239 87.2536 288.397 88.8232 287.766 90.6888C287.201 92.3584 286.17 92.8984 285.405 93.0568C285.2 93.1 284.988 93.1192 284.77 93.1192" fill="white"/>
<path d="M275.442 96.808C275.442 96.808 230.622 105.955 182.055 83.1568C182.055 83.1568 184.947 67.312 189.854 60.9368C194.762 54.5624 249.147 45.7152 270.855 70.9192C271.335 71.4752 271.806 72.0328 272.19 72.6488C276.627 79.78 278.032 96.6808 278.032 96.6808" fill="#DB2228"/>
<path d="M249.662 75.2032C234.599 75.2032 212.735 73.1928 192.787 63.8016C192.211 63.5296 191.951 62.816 192.209 62.2072C192.467 61.6 193.143 61.3256 193.72 61.5976C227.819 77.6512 267.661 71.7504 268.059 71.6888C268.683 71.5888 269.266 72.0488 269.357 72.708C269.449 73.3672 269.016 73.9808 268.39 74.0768C268.218 74.1032 260.8 75.2032 249.662 75.2032" fill="white"/>
<path d="M144.782 131.729L147.828 162.951C147.828 162.951 189.229 161.721 194.666 158.767C194.666 158.767 190.03 185.096 187.419 189.618C184.808 194.139 141.684 188.847 134.29 187.111C126.895 185.375 126.068 134.934 126.068 134.934L144.782 131.729" fill="white"/>
<path d="M128.919 134.446C128.919 134.446 123.723 126.899 123.723 122.846C123.723 118.793 137.376 117.3 137.376 117.3C137.376 117.3 135.247 110.636 137.376 109.406C139.505 108.178 142.283 116.02 142.283 121.566C142.283 127.113 142.283 132.157 142.283 132.157L128.919 134.446Z" fill="#F8A074"/>
<path d="M132.045 129.713C130.403 129.713 128.733 129.394 127.491 128.678C125.903 127.761 125.322 126.935 125.322 126.935C125.322 126.935 129.981 128.678 133.002 128.678C134.94 128.678 137.156 127.332 138.497 125.805C138.825 125.987 139.181 126.133 139.565 126.222C138.793 127.223 137.78 128.074 136.735 128.678C135.599 129.333 133.838 129.713 132.045 129.713V129.713ZM140.899 123.285C140.861 122.878 140.853 122.45 140.859 122.054C140.92 122.237 140.953 122.408 140.953 122.562C140.953 122.805 140.935 123.046 140.899 123.285ZM139.581 119.972C139.338 119.898 139.077 119.829 138.809 119.776C138.425 118.893 138.064 118.267 138.064 118.267C138.064 118.267 138.836 119.034 139.581 119.972Z" fill="#F79765"/>
<path d="M140.519 126.323C140.479 126.323 140.439 126.323 140.397 126.322C140.107 126.32 139.83 126.285 139.566 126.222C140.247 125.338 140.741 124.336 140.9 123.285C140.95 123.827 141.053 124.33 141.243 124.66C141.883 125.767 141.455 126.23 141.455 126.23C141.455 126.23 141.37 126.323 140.519 126.323ZM138.498 125.805C136.615 124.76 135.621 122.502 135.621 122.502C135.621 122.502 135.23 120.76 136.666 119.931C136.994 119.741 137.397 119.668 137.823 119.668C138.146 119.668 138.483 119.71 138.811 119.776C139.251 120.786 139.723 122.135 139.723 123.273C139.723 124.038 139.247 124.95 138.498 125.805ZM140.86 122.054C140.651 121.422 140.123 120.652 139.583 119.972C140.363 120.21 140.955 120.499 140.955 120.499C140.955 120.499 140.874 121.202 140.86 122.054Z" fill="#F79765"/>
<path d="M139.564 126.222C139.181 126.133 138.825 125.987 138.496 125.805C139.246 124.95 139.722 124.038 139.722 123.273C139.722 122.135 139.25 120.786 138.809 119.776C139.076 119.829 139.338 119.898 139.581 119.972C140.122 120.652 140.65 121.422 140.859 122.054C140.852 122.45 140.861 122.878 140.899 123.285C140.739 124.336 140.246 125.338 139.564 126.222" fill="#F7905B"/>
<path d="M139.046 125.513C139.046 125.513 136.309 123.722 136.309 121.862C136.309 120.002 139.697 120.038 140.953 120.5C143.277 121.353 142.78 123.842 142.281 125.762C141.784 127.682 139.046 125.513 139.046 125.513" fill="#F8A074"/>
<path d="M179.205 191.402H177.588L177.589 191.4C178.145 191.396 178.685 191.388 179.206 191.374L179.206 191.399C179.206 191.401 179.206 191.401 179.205 191.402" fill="#EB946B"/>
<path d="M177.588 191.4L179.733 177.618L179.205 191.374C178.684 191.388 178.144 191.396 177.588 191.4" fill="#E7E6E6"/>
<path d="M57.0554 94.8568L62.5892 79.7312L70.933 97.1776C71.1314 97.592 71.5273 97.8728 71.9842 97.9224C72.4414 97.9712 72.8879 97.7816 73.1705 97.4192L84.3085 83.0984L89.7229 92.4752C89.9877 92.9352 90.5069 93.1928 91.0341 93.1264C91.5605 93.06 91.9989 92.6808 92.1421 92.1696L100.903 60.7936L108.297 104.85C108.4 105.464 108.918 105.923 109.54 105.952C110.163 105.981 110.721 105.571 110.88 104.97L116.239 84.7528L119.349 96.0752C119.504 96.6376 120.004 97.0304 120.586 97.0472L151.008 97.9288C151.738 97.9504 152.347 97.3752 152.368 96.6456C152.389 95.9152 151.815 95.3064 151.084 95.2848L121.641 94.4312L117.491 79.3256C117.332 78.748 116.808 78.3512 116.21 78.3536C115.611 78.356 115.091 78.7584 114.937 79.3368L109.892 98.3712L102.529 54.5032C102.427 53.8928 101.913 53.4344 101.295 53.4016C100.677 53.3688 100.117 53.7704 99.9509 54.3664L90.4405 88.428L85.6165 80.0736C85.3957 79.6904 85.0029 79.4456 84.5621 79.4152C84.1205 79.3848 83.6989 79.5736 83.4269 79.9232L72.3961 94.1056L63.6198 75.7552C63.3907 75.276 62.8939 74.9792 62.3636 75.0048C61.8333 75.0296 61.3667 75.3728 61.1845 75.8712L54.571 93.948C54.3202 94.6336 54.673 95.3936 55.3589 95.6448C56.0448 95.8952 56.8045 95.5432 57.0554 94.8568" fill="#DB2228"/>
<path d="M274.115 288.51C274.115 288.51 296.63 276.298 302.81 261.61C304.032 258.705 304.964 256.494 305.457 254.618C301.318 256.982 278.704 269.504 276.347 270.994L274.115 288.51Z" fill="#FFBE9D"/>
<path d="M301.604 264.165C301.604 264.165 301.635 264.085 301.692 263.929C301.77 263.783 301.847 263.638 301.923 263.493C301.724 263.914 301.604 264.165 301.604 264.165ZM302.984 261.195C303.829 259.184 304.526 257.514 305.02 256.054L305.128 255.992C304.655 257.405 303.755 259.486 302.984 261.195Z" fill="#DACEB7"/>
<path d="M305.021 256.054C305.191 255.552 305.337 255.075 305.457 254.618C305.457 254.894 305.333 255.381 305.129 255.992L305.021 256.054" fill="#CEC4B0"/>
<path d="M301.691 263.929C301.969 263.162 302.857 260.564 303.636 256.674C303.738 256.168 303.839 255.551 303.839 255.551C303.839 255.551 304.511 255.163 305.456 254.618C305.336 255.075 305.19 255.552 305.02 256.054C304.526 257.514 303.829 259.184 302.983 261.195C302.562 262.129 302.178 262.951 301.923 263.493C301.847 263.638 301.77 263.783 301.691 263.929Z" fill="#F8A078"/>
<path d="M201.606 310.384L196.262 294.352C196.262 294.352 175.562 279.443 177.666 272.086C179.771 264.73 183.63 262.63 186.367 263.386C191.471 264.797 206.88 275.653 213.552 279.626C215.102 280.548 216.313 281.935 217.019 283.593L227.1 305.259L203.659 337.253C203.659 337.253 198.581 323.782 201.606 310.384Z" fill="#FFBE9D"/>
<path d="M198.078 269.727C193.23 266.676 188.711 264.034 186.366 263.386C186.022 263.291 185.66 263.242 185.286 263.242C184.626 263.242 183.929 263.397 183.226 263.734L183.017 263.614C183.586 263.251 184.204 262.977 184.774 262.977C184.874 262.977 184.973 262.985 185.07 263.003C189.525 263.837 195.73 268.096 198.078 269.727V269.727ZM180.801 265.685L181.002 265.35C181.002 265.35 181.046 265.3 181.129 265.214L181.193 265.25C181.062 265.388 180.93 265.533 180.801 265.685" fill="#EFFAFE"/>
<path d="M181.193 265.25L181.129 265.214C181.416 264.909 182.159 264.162 183.017 263.614L183.226 263.734C182.544 264.061 181.857 264.558 181.193 265.25Z" fill="white"/>
<path d="M192.168 276.282C192.03 276.282 191.889 276.272 191.748 276.253C187.982 275.744 178.695 269.193 178.695 269.193L180.803 265.685C180.932 265.533 181.063 265.388 181.195 265.25C181.859 264.558 182.546 264.061 183.227 263.734C183.931 263.397 184.627 263.242 185.287 263.242C185.662 263.242 186.023 263.291 186.368 263.386C188.713 264.034 193.232 266.676 198.079 269.727C198.386 269.939 198.626 270.107 198.788 270.218C198.788 270.218 195.755 276.282 192.168 276.282" fill="#FAB896"/>
<path d="M251.463 289.331L253.014 272.502C253.014 272.502 240.051 250.53 244.936 244.641C249.819 238.75 254.197 238.378 256.399 240.171C260.506 243.514 270.252 259.647 274.766 265.967C275.814 267.434 276.365 269.191 276.347 270.994L274.115 288.51C273.423 293.934 270.111 298.67 265.251 301.177C257.924 304.957 247.858 309.976 246.457 309.765C239.748 308.753 249.394 293.094 251.463 289.331" fill="#FFBE9D"/>
<path d="M264.592 250.71C263.958 249.773 263.33 248.858 262.715 247.978L262.817 247.918C263.57 249.042 264.18 250.034 264.592 250.71" fill="#EFFAFE"/>
<path d="M262.715 247.978C262.446 247.593 262.179 247.215 261.916 246.846C261.962 246.832 262.01 246.818 262.055 246.804C262.322 247.185 262.578 247.558 262.818 247.918L262.715 247.978Z" fill="#6DCDC0"/>
<path d="M261.916 246.846C260.819 245.306 259.778 243.913 258.842 242.766C260.018 244.035 261.115 245.467 262.056 246.804C262.01 246.818 261.963 246.832 261.916 246.846" fill="white"/>
<path d="M257.814 254.972C257.188 254.972 256.593 254.837 256.063 254.514C252.819 252.534 249.436 245.046 249.436 245.046L248.107 241.638C248.107 241.638 251.033 239.266 253.523 239.266C254.007 239.266 254.474 239.355 254.899 239.569C256.24 240.24 257.586 241.41 258.842 242.766C259.778 243.913 260.819 245.306 261.916 246.846C262.179 247.215 262.447 247.593 262.715 247.978C263.331 248.858 263.959 249.773 264.593 250.71C264.78 251.016 264.927 251.258 265.027 251.418C265.027 251.418 261.022 254.973 257.814 254.972" fill="#FAB896"/>
<path d="M228.853 305.786C227.313 301.774 223.833 291.492 225.118 283.363C225.118 283.363 206.731 262.303 210.914 252.346C214.172 244.588 219.934 245.34 223.245 248.517C226.556 251.695 243.408 267.528 245.404 270.174C247.4 272.819 251.028 279.491 252.163 286.364L254.075 299.17L228.853 305.786" fill="#FFBE9D"/>
<path d="M229.546 307.498C229.546 307.498 229.271 306.872 228.854 305.786L229.546 307.498Z" fill="#F9C09F"/>
<path d="M234.027 258.787C229.407 254.356 224.81 250.021 223.244 248.517C221.831 247.162 219.972 246.247 218.052 246.247C217.514 246.247 216.971 246.319 216.432 246.473C217.215 246.082 218.011 245.83 218.763 245.83C218.979 245.83 219.193 245.851 219.401 245.895C222.602 246.578 234.027 258.786 234.027 258.786C234.027 258.786 234.027 258.786 234.027 258.787ZM211.421 251.242L211.139 250.9C211.139 250.9 211.667 250.27 212.499 249.453C212.121 249.976 211.76 250.57 211.421 251.242Z" fill="#6DCDC0"/>
<path d="M224.945 263.162C224.446 263.162 223.965 263.094 223.514 262.939C219.459 261.55 213.809 254.135 213.809 254.135L211.422 251.242C211.761 250.57 212.122 249.976 212.499 249.453C213.501 248.47 214.943 247.218 216.433 246.473C216.972 246.319 217.515 246.247 218.053 246.247C219.973 246.247 221.832 247.162 223.245 248.517C224.811 250.021 229.407 254.356 234.027 258.787C233.99 258.819 228.911 263.162 224.945 263.162" fill="#FAB896"/>
<path d="M218.27 334.303C218.27 334.303 218.271 334.301 218.273 334.301L218.27 334.303Z" fill="#FCD2B8"/>
<path d="M215.832 334.864C215.832 334.864 222.354 320.238 226.465 310.39C226.694 309.722 226.82 309.27 226.818 309.083C226.815 308.436 226.649 307.345 226.428 306.178L227.102 305.259L225.677 302.197L227.291 301.258C227.866 303.121 228.433 304.688 228.854 305.786L230.159 305.443C230.37 306.534 230.386 307.702 230.046 308.867C228.75 313.291 218.286 334.279 218.274 334.303C218.273 334.303 218.272 334.303 218.271 334.303L215.832 334.864V334.864ZM226.382 310.627L223.779 317.202C224.928 314.437 225.866 312.094 226.382 310.627ZM229.546 307.498L228.854 305.786C229.271 306.872 229.546 307.498 229.546 307.498Z" fill="#F79765"/>
<path d="M225.677 302.197L225.46 301.732C225.381 301.4 225.332 301.204 225.332 301.204L226.984 300.233C227.087 300.584 227.189 300.925 227.291 301.258L225.677 302.197" fill="#EC9261"/>
<path d="M226.427 306.178C226.107 304.479 225.673 302.619 225.459 301.732L225.676 302.197L227.101 305.259L226.427 306.178Z" fill="#F79765"/>
<path d="M228.852 305.786C228.431 304.688 227.864 303.121 227.29 301.258C227.187 300.925 227.085 300.584 226.982 300.233L227.462 299.951C227.462 299.951 229.568 302.39 230.158 305.443L228.852 305.786" fill="#F79765"/>
<path d="M229.546 307.498C229.546 307.498 229.271 306.872 228.854 305.786L229.546 307.498Z" fill="#F9AC80"/>
<path d="M251.877 284.858C251.86 284.783 251.849 284.735 251.844 284.714C251.843 284.711 251.843 284.707 251.842 284.703L252.231 281.016L251.877 284.858Z" fill="#575D55"/>
<path d="M251.357 308.016C251.357 308.016 252.381 303.45 253.101 299.425L254.075 299.17L253.624 296.151C253.77 295.04 253.836 294.164 253.77 293.723C253.509 291.969 252.117 285.902 251.877 284.858L252.23 281.016L252.231 281.01C252.231 281.01 256.721 289.714 256.721 295.745C256.721 297.634 255.133 306.252 255.133 306.252L251.357 308.016" fill="#F79765"/>
<path d="M253.102 299.425C253.314 298.245 253.499 297.11 253.624 296.151L254.075 299.17L253.102 299.425ZM251.844 284.714C251.843 284.707 251.842 284.704 251.842 284.704V284.703C251.843 284.707 251.843 284.711 251.844 284.714Z" fill="#F79765"/>
<path d="M278.713 269.611L278.719 269.608C278.716 269.61 278.715 269.61 278.713 269.611Z" fill="#575D55"/>
<path d="M274.115 288.51C274.115 288.51 276.696 276.174 276.696 274.03C276.696 272.94 276.421 270.981 276.421 270.981L278.712 269.611C278.714 269.61 278.715 269.61 278.718 269.608C278.719 269.634 278.905 272.737 278.61 276.416C278.459 278.299 276.334 287.219 276.334 287.219L274.115 288.51" fill="#F79765"/>
</g>
<defs>
<clipPath id="clip0_522_87515">
<rect width="400" height="400" fill="white" transform="translate(0.5)"/>
</clipPath>
</defs>
</svg>
