<?xml version="1.0" encoding="utf-8"?>
<!-- Generator: Adobe Illustrator 23.0.5, SVG Export Plug-In . SVG Version: 6.00 Build 0)  -->
<svg version="1.1" id="Layer_1" xmlns="http://www.w3.org/2000/svg" xmlns:xlink="http://www.w3.org/1999/xlink" x="0px" y="0px"
	 viewBox="0 0 1781.4 796.1" style="enable-background:new 0 0 1781.4 796.1;" xml:space="preserve">
<style type="text/css">
	.st0{fill:#DB2329;}
	.st1{fill:url(#SVGID_1_);}
</style>
<path class="st0" d="M121.5,705.3c-23-13.5-44.4-29.7-63.3-48.8C35.5,633.6,0.9,593.9,0.1,560c-3.9-164,161.5-231.9,320.2-330.8
	c347.6-216,503.6-11.4,1065.8-200c82.6-27.7,182.7-47.4,264.1-5c60.9,31.8,95.2,93.6,112.6,157.8c19.2,70.9,21.1,146.2,16.8,219.2
	c-4.5,78.7-6.1,176.7-62,237.2c-68.4,73.9-196.5,92.6-291,107.5c-115,18.1-231.5,26.2-347.6,31.2c-77.2,3.3-154.5,4.8-231.8,5.9
	c-152.3,2.1-304.5,5.5-456.4-7.8c-57.3-5-114.8-12-170.1-28C186.3,737.2,152.5,723.6,121.5,705.3z"/>
<linearGradient id="SVGID_1_" gradientUnits="userSpaceOnUse" x1="642.0111" y1="-358.4362" x2="642.0111" y2="-357.4963" gradientTransform="matrix(-1309.8025 0 0 -542.2877 841866.75 -193667.0156)">
	<stop  offset="0" style="stop-color:#DB2329"/>
	<stop  offset="1" style="stop-color:#DD2C39"/>
</linearGradient>
<path class="st1" d="M1540.2,682.1c63.3-10,87.8-112.5,61.7-164.7c-34.7-69.3-129.8-109.3-221.7-162.4
	c-255.5-147.1-370.3-7.8-783.6-136.3C270.3,117.4,294.1,429.9,318.7,566.2c8.2,45.6,43.5,83.8,92.3,99.6
	c75.3,24.4,216.6,49.5,472.6,41C1127.3,698.8,1409.4,702.7,1540.2,682.1z"/>
</svg>
