<?xml version="1.0" encoding="utf-8"?>
<!-- Generator: Adobe Illustrator 23.0.5, SVG Export Plug-In . SVG Version: 6.00 Build 0)  -->
<svg version="1.1" id="Layer_1" xmlns="http://www.w3.org/2000/svg" xmlns:xlink="http://www.w3.org/1999/xlink" x="0px" y="0px"
	 viewBox="0 0 1833.3 1559.8" style="enable-background:new 0 0 1833.3 1559.8;" xml:space="preserve">
<style type="text/css">
	.st0{fill:#DB2329;}
	.st1{fill:url(#SVGID_1_);}
	.st2{fill:url(#SVGID_2_);}
</style>
<path class="st0" d="M1783.2,749.3c56.3,277.6-131.1,370.7-310.1,514.6c-347.4,279.2-503.6,14.8-1065.8,258.3S47.5,749.3,47.5,749.3
	H1783.2z"/>
<linearGradient id="SVGID_1_" gradientUnits="userSpaceOnUse" x1="642.019" y1="405.1214" x2="642.019" y2="406.1396" gradientTransform="matrix(1309.8025 0 0 542.2877 -840085.375 -218941.4688)">
	<stop  offset="0" style="stop-color:#DB2329"/>
	<stop  offset="1" style="stop-color:#DD2C39"/>
</linearGradient>
<path class="st1" d="M185.3,750.9c-41.4,189.1,96.5,252.5,228,350.6c255.5,190,370.3,10.1,783.6,175.9s264.7-526.5,264.7-526.5
	H185.3z"/>
<path class="st0" d="M46.2,750.9c-56.3-277.6-8.1-463,189.8-578.4c172.7-100.7,269.4-78.1,411.2-58.8
	c110.8,15.1,290-161.6,472.6-21.3c115.1,88.4,195.6-20.1,315.2-63.4c560.2-202.7,346.9,721.9,346.9,721.9H46.2z"/>
<linearGradient id="SVGID_2_" gradientUnits="userSpaceOnUse" x1="642.0198" y1="406.6398" x2="642.0198" y2="407.6581" gradientTransform="matrix(1309.8025 0 0 -542.2877 -840085.375 221265.0781)">
	<stop  offset="0" style="stop-color:#DB2329"/>
	<stop  offset="1" style="stop-color:#DD2C39"/>
</linearGradient>
<path class="st2" d="M1462.6,749.3c0,0,148.6-692.4-264.7-526.5s-528.1-14.1-783.6,175.9c-131.5,98-269.4,161.5-228,350.6H1462.6z"
	/>
<path class="st0" d="M627.8,111"/>
</svg>
