<?xml version="1.0" encoding="utf-8"?>
<!-- Generator: Adobe Illustrator 16.0.0, SVG Export Plug-In . SVG Version: 6.00 Build 0)  -->
<!DOCTYPE svg PUBLIC "-//W3C//DTD SVG 1.1//EN" "http://www.w3.org/Graphics/SVG/1.1/DTD/svg11.dtd">
<svg version="1.1" id="Layer_1" xmlns="http://www.w3.org/2000/svg" xmlns:xlink="http://www.w3.org/1999/xlink" x="0px" y="0px"
	 width="495px" height="639px" viewBox="0 0 495 639" enable-background="new 0 0 495 639" xml:space="preserve">
<g>
	<g>
		<defs>
			<path id="SVGID_1_" d="M21.442-1341c176.345,0-67.065,208.923,88.593,319.3s87.752,319.299-88.593,319.299
				c-176.345,0-319.3-142.955-319.3-319.299C-297.858-1198.045-154.902-1341,21.442-1341z"/>
		</defs>
		<clipPath id="SVGID_2_">
			<use xlink:href="#SVGID_1_"  overflow="visible"/>
		</clipPath>
		<g transform="translate(-297.858 -1341)" clip-path="url(#SVGID_2_)">
			
				<linearGradient id="SVGID_3_" gradientUnits="userSpaceOnUse" x1="-108.1005" y1="-0.0391" x2="-108.1005" y2="0.9609" gradientTransform="matrix(-494.8363 0 0 -638.6 -52946.8164 1954.75)">
				<stop  offset="0" style="stop-color:#DDDFF9"/>
				<stop  offset="1" style="stop-color:#DB2329"/>
			</linearGradient>
			<path opacity="0.3" fill="url(#SVGID_3_)" enable-background="new    " d="M473.394,1979.601
				c-176.345,0,67.066-208.924-88.593-319.3c-155.659-110.377-87.752-319.3,88.593-319.3c176.345,0,319.3,142.955,319.3,319.3
				C792.694,1836.646,649.738,1979.601,473.394,1979.601z"/>
		</g>
	</g>
</g>
<path fill="#DB2329" d="M0,320.3c0,176.345,142.955,319.3,319.3,319.3s244.25-208.922,88.593-319.3
	C252.236,209.923,495.645,1,319.3,1S0,143.956,0,320.3z"/>
<g>
	<defs>
		<path id="SVGID_4_" d="M0,320.3c0,176.345,142.955,319.3,319.3,319.3s244.25-208.922,88.593-319.3
			C252.236,209.923,495.645,1,319.3,1S0,143.956,0,320.3z"/>
	</defs>
	<clipPath id="SVGID_5_">
		<use xlink:href="#SVGID_4_"  overflow="visible"/>
	</clipPath>
	<g opacity="0.4" clip-path="url(#SVGID_5_)">
		
			<linearGradient id="SVGID_6_" gradientUnits="userSpaceOnUse" x1="-351.3828" y1="918.8799" x2="-351.3828" y2="919.8799" gradientTransform="matrix(-494.8363 0 0 -638.6 -173629.625 587436)">
			<stop  offset="0" style="stop-color:#F4E1E1"/>
			<stop  offset="1" style="stop-color:#DB2329"/>
		</linearGradient>
		<path opacity="0.3" fill="url(#SVGID_6_)" enable-background="new    " d="M494.836,320.3c0-176.344-142.955-319.3-319.3-319.3
			S-68.716,209.922,86.943,320.3c155.658,110.378-87.752,319.3,88.593,319.3C351.88,639.6,494.836,496.645,494.836,320.3z"/>
	</g>
</g>
</svg>
